<svg width="48" height="48" viewBox="0 0 48 48" fill="none" xmlns="http://www.w3.org/2000/svg">
<path d="M24.9988 16.19H21.9988V28.19L31.4988 33.89L32.9988 31.43L24.9988 26.69V16.19ZM34.6728 3.81L43.8868 11.5L41.3268 14.57L32.1068 6.884L34.6728 3.81ZM13.3248 3.81L15.8888 6.882L6.67279 14.57L4.11279 11.498L13.3248 3.81ZM23.9988 8.19C14.0588 8.19 5.99879 16.25 5.99879 26.19C5.99879 36.13 14.0588 44.19 23.9988 44.19C33.9388 44.19 41.9988 36.13 41.9988 26.19C41.9988 16.25 33.9388 8.19 23.9988 8.19ZM23.9988 40.19C16.2788 40.19 9.99879 33.91 9.99879 26.19C9.99879 18.47 16.2788 12.19 23.9988 12.19C31.7188 12.19 37.9988 18.47 37.9988 26.19C37.9988 33.91 31.7188 40.19 23.9988 40.19Z" fill="#333333"/>
</svg>
