<svg width="48" height="48" viewBox="0 0 48 48" fill="none" xmlns="http://www.w3.org/2000/svg">
<path d="M12.5 42H20.5C20.5 44.2 18.7 46 16.5 46C14.3 46 12.5 44.2 12.5 42ZM8.5 40H24.5V36H8.5V40ZM31.5 21C31.5 28.64 26.18 32.72 23.96 34H9.04C6.82 32.72 1.5 28.64 1.5 21C1.5 12.72 8.22 6 16.5 6C24.78 6 31.5 12.72 31.5 21ZM27.5 21C27.5 14.94 22.56 10 16.5 10C10.44 10 5.5 14.94 5.5 21C5.5 25.94 8.48 28.78 10.2 30H22.8C24.52 28.78 27.5 25.94 27.5 21ZM41.24 16.74L38.5 18L41.24 19.26L42.5 22L43.76 19.26L46.5 18L43.76 16.74L42.5 14L41.24 16.74ZM36.5 14L38.38 9.88L42.5 8L38.38 6.12L36.5 2L34.62 6.12L30.5 8L34.62 9.88L36.5 14Z" fill="#333333"/>
</svg>
