<svg width="48" height="48" viewBox="0 0 48 48" fill="none" xmlns="http://www.w3.org/2000/svg">
<path d="M33 5.65002C29.52 5.65002 26.18 7.27002 24 9.83002C21.82 7.27002 18.48 5.65002 15 5.65002C8.84 5.65002 4 10.49 4 16.65C4 24.21 10.8 30.37 21.1 39.73L24 42.35L26.9 39.71C37.2 30.37 44 24.21 44 16.65C44 10.49 39.16 5.65002 33 5.65002ZM24.2 36.75L24 36.95L23.8 36.75C14.28 28.13 8 22.43 8 16.65C8 12.65 11 9.65002 15 9.65002C18.08 9.65002 21.08 11.63 22.14 14.37H25.88C26.92 11.63 29.92 9.65002 33 9.65002C37 9.65002 40 12.65 40 16.65C40 22.43 33.72 28.13 24.2 36.75Z" fill="#333333"/>
</svg>
