<svg width="48" height="48" viewBox="0 0 48 48" fill="none" xmlns="http://www.w3.org/2000/svg">
<path d="M39 45.5H36V27.5H39V45.5ZM16.06 27.5H13L9 45.5H12.06L16.06 27.5ZM28 10.5C30.2 10.5 32 8.7 32 6.5C32 4.3 30.2 2.5 28 2.5C25.8 2.5 24 4.3 24 6.5C24 8.7 25.8 10.5 28 10.5ZM20.6 17.3L15 45.5H19.2L22.8 29.5L27 33.5V45.5H31V30.5L26.8 26.5L28 20.5C30.6 23.5 34.6 25.5 39 25.5V21.5C35.2 21.5 32 19.5 30.4 16.7L28.4 13.5C27.28 11.72 25.04 11 23.1 11.82L13 16.1V25.5H17V18.7L20.6 17.3Z" fill="#333333"/>
</svg>
