<svg width="48" height="48" viewBox="0 0 48 48" fill="none" xmlns="http://www.w3.org/2000/svg">
<path d="M42 45C39.94 45 37.88 44.5 36 43.5C32.22 45.5 27.78 45.5 24 43.5C20.22 45.5 15.78 45.5 12 43.5C10.1 44.5 8.06 45 6 45H4V41H6C8.08 41 10.16 40.3 12 39C15.66 41.6 20.34 41.6 24 39C27.66 41.6 32.34 41.6 36 39C37.82 40.3 39.92 41 42 41H44V45H42ZM24 10C21.8 10 20 11.8 20 14C20 16.2 21.8 18 24 18C26.2 18 28 16.2 28 14C28 11.8 26.2 10 24 10ZM48 34C48 34 44.96 35.42 40.14 36.74C38.5 36.28 37.08 35.24 36 34C34.54 35.68 32.4 37 30 37C27.6 37 25.46 35.68 24 34C22.54 35.68 20.4 37 18 37C15.6 37 13.46 35.68 12 34C10.92 35.22 9.5 36.26 7.86 36.74C3.04 35.42 0 34 0 34C0 34 5.86 31.28 14.26 29.84L16.96 21.5C17.58 19.6 19.6 18.56 21.5 19.18C21.68 19.24 21.88 19.32 22.04 19.4L26.98 22L32.66 19L35.96 11.58L34.94 8.94L37.6 3L44 5.86L41.34 11.8L38.72 12.8L31.28 29.48C40.98 30.74 48 34 48 34ZM30.04 24.92L27 26.52L23.5 24.68L22.08 29.02C22.72 29.02 23.36 29 24 29C25.42 29 26.8 29.06 28.14 29.16L30.04 24.92Z" fill="#333333"/>
</svg>
