<svg width="48" height="48" viewBox="0 0 48 48" fill="none" xmlns="http://www.w3.org/2000/svg">
<path d="M24.0001 43.5C26.2001 43.5 28.0001 41.7 28.0001 39.5H20.0001C20.0001 41.7 21.8001 43.5 24.0001 43.5ZM36.0001 31.5V21.5C36.0001 15.36 32.7401 10.22 27.0001 8.86V7.5C27.0001 5.84 25.6601 4.5 24.0001 4.5C22.3401 4.5 21.0001 5.84 21.0001 7.5V8.86C15.2801 10.22 12.0001 15.34 12.0001 21.5V31.5L8.00006 35.5V37.5H40.0001V35.5L36.0001 31.5ZM32.0001 33.5H16.0001V21.5C16.0001 16.54 19.0201 12.5 24.0001 12.5C28.9801 12.5 32.0001 16.54 32.0001 21.5V33.5ZM15.1601 7.66L12.3001 4.8C7.50006 8.46 4.34006 14.1 4.06006 20.5H8.06006C8.36006 15.2 11.0801 10.56 15.1601 7.66ZM39.9401 20.5H43.9401C43.6401 14.1 40.4801 8.46 35.7001 4.8L32.8601 7.66C36.9001 10.56 39.6401 15.2 39.9401 20.5Z" fill="#333333"/>
</svg>
