<svg width="48" height="48" viewBox="0 0 48 48" fill="none" xmlns="http://www.w3.org/2000/svg">
<path d="M16 28L7 37L10 40L17 33H21L16 28ZM29 1C26.8 1 25 2.8 25 5C25 7.2 26.8 9 29 9C31.2 9 33 7.2 33 5C33 2.8 31.2 1 29 1ZM41 41.02L35 47L29.02 40.98V38L14.82 23.82C14.2 23.92 13.6 23.96 13 23.96V19.64C16.32 19.7 20.22 17.9 22.34 15.56L25.14 12.46C25.52 12.04 26 11.7 26.52 11.46C27.1 11.18 27.76 11 28.44 11H28.5C30.98 11.02 33 13.04 33 15.52V27.02C33 28.7 32.3 30.24 31.16 31.34L24 24.18V19.64C22.74 20.68 21.14 21.68 19.42 22.42L32 35H35L41 41.02Z" fill="#333333"/>
</svg>
