<svg width="48" height="48" viewBox="0 0 48 48" fill="none" xmlns="http://www.w3.org/2000/svg">
<path d="M40.98 7.02002C39.86 5.90002 36.68 5.08002 32.66 5.08002C26.5 5.08002 18.36 7.00002 12.7 12.66C3.32001 22.06 4.20001 38.14 7.02001 40.98C8.14001 42.1 11.32 42.92 15.34 42.92C21.5 42.92 29.64 41 35.3 35.34C44.68 25.94 43.8 9.86002 40.98 7.02002ZM11.42 36.58C12.68 32.8 15.74 26.6 21.16 21.18C26.52 15.82 32.72 12.72 36.56 11.42C35.3 15.2 32.24 21.4 26.8 26.82C21.48 32.18 15.28 35.28 11.42 36.58ZM15.52 15.52C20.8 10.24 28.2 9.28002 31.58 9.14002C27.48 11.02 22.66 14.06 18.36 18.36C14.04 22.68 11.02 27.52 9.14001 31.62C9.32001 26.66 10.88 20.14 15.52 15.52ZM32.48 32.48C27.2 37.76 19.8 38.72 16.42 38.86C20.52 36.98 25.34 33.94 29.64 29.64C33.96 25.32 36.98 20.48 38.88 16.38C38.68 21.34 37.12 27.86 32.48 32.48Z" fill="#333333"/>
</svg>
