<svg width="48" height="48" viewBox="0 0 48 48" fill="none" xmlns="http://www.w3.org/2000/svg">
<path d="M29.0999 10.5C31.2999 10.5 33.0999 8.7 33.0999 6.5C33.0999 4.3 31.2999 2.5 29.0999 2.5C26.8999 2.5 25.0999 4.3 25.0999 6.5C25.0999 8.7 26.8999 10.5 29.0999 10.5ZM21.8999 38.3L23.8999 29.5L28.0999 33.5V45.5H32.0999V30.5L27.8999 26.5L29.0999 20.5C31.6999 23.5 35.6999 25.5 40.0999 25.5V21.5C36.2999 21.5 33.0999 19.5 31.4999 16.7L29.4999 13.5C28.6999 12.3 27.4999 11.5 26.0999 11.5C25.4999 11.5 25.0999 11.7 24.4999 11.7L14.0999 16.1V25.5H18.0999V18.7L21.6999 17.3L18.4999 33.5L8.6999 31.5L7.8999 35.5L21.8999 38.3Z" fill="#333333"/>
</svg>
