<svg width="48" height="48" viewBox="0 0 48 48" fill="none" xmlns="http://www.w3.org/2000/svg">
<path d="M23 46.59V39.39C12.98 38.87 5 30.55 5 20.41C5 9.92997 13.52 1.40997 24 1.40997C34.48 1.40997 43 9.92997 43 20.41C43 30.31 36.12 40.27 25.86 45.21L23 46.59ZM24 5.40997C15.72 5.40997 9 12.13 9 20.41C9 28.69 15.72 35.41 24 35.41H27V40.01C34.28 35.41 39 27.85 39 20.41C39 12.13 32.28 5.40997 24 5.40997ZM22 28.41H26V32.41H22V28.41ZM26 25.41H22C22 18.91 28 19.41 28 15.41C28 13.21 26.2 11.41 24 11.41C21.8 11.41 20 13.21 20 15.41H16C16 10.99 19.58 7.40997 24 7.40997C28.42 7.40997 32 10.99 32 15.41C32 20.41 26 20.91 26 25.41Z" fill="#333333"/>
</svg>
