<svg width="48" height="48" viewBox="0 0 48 48" fill="none" xmlns="http://www.w3.org/2000/svg">
<path d="M42 45.5C39.94 45.5 37.88 45 36 44C32.22 46 27.78 46 24 44C20.22 46 15.78 46 12 44C10.1 45 8.06 45.5 6 45.5H4V41.5H6C8.08 41.5 10.16 40.8 12 39.5C15.66 42.1 20.34 42.1 24 39.5C27.66 42.1 32.34 42.1 36 39.5C37.82 40.8 39.92 41.5 42 41.5H44V45.5H42ZM34 2.5C31.8 2.5 30 4.3 30 6.5C30 8.7 31.8 10.5 34 10.5C36.2 10.5 38 8.7 38 6.5C38 4.3 36.2 2.5 34 2.5ZM28.86 16.46L24.36 19.5L32 25.5V33.18C33.06 33.94 34.06 34.74 34.98 35.52C33.62 36.68 31.88 37.5 30 37.5C27.6 37.5 25.46 36.18 24 34.5C22.54 36.18 20.4 37.5 18 37.5C17.34 37.5 16.7 37.4 16.08 37.22C10.38 33.3 6 28.94 6 26.06C6 24 8.02 23.5 9.7 23.5C11.66 23.5 14.26 24.12 17.1 25.16L16.04 18.96C15.82 17.62 16.4 16.2 17.6 15.38L21.9 12.48L17.9 11.74L12.26 15.6L10 12.3L17 7.5L28.1 9.56C29 9.74 29.96 10.3 30.54 11.34L32.3 14.44C34.02 17.46 37.28 19.5 41 19.5V23.5C35.82 23.5 31.28 20.66 28.86 16.46ZM20.6 21.7L21.48 27C23.32 27.84 26.44 29.54 28 30.5V27.5L20.6 21.7Z" fill="#333333"/>
</svg>
