<svg width="48" height="48" viewBox="0 0 48 48" fill="none" xmlns="http://www.w3.org/2000/svg">
<path d="M25 6.5C25 4.3 26.8 2.5 29 2.5C31.2 2.5 33 4.3 33 6.5C33 8.7 31.2 10.5 29 10.5C26.8 10.5 25 8.7 25 6.5ZM12.64 37.56L10.36 34.62L8 36.5L12.76 42.58C13.78 43.88 15.08 44.88 16.52 45.4C17.08 45.6 17.58 45.48 17.96 45.18C18.56 44.72 18.8 43.78 18.2 43.04C18.04 42.84 17.8 42.7 17.58 42.6C16.72 42.24 15.94 41.7 15.3 40.94L15.14 40.74L22 35.9L23.78 29.46L28 33.46V42.5H24V45.5H31.74C33.38 45.5 34.96 45.08 36.26 44.28C36.78 43.96 37 43.5 37 43C37 42.24 36.4 41.5 35.46 41.5C35.2 41.5 34.94 41.58 34.72 41.7C33.92 42.16 32.98 42.44 32 42.5V30.46L27.78 26.46L28.98 20.46C31.58 23.46 35.6 25.5 40 25.5V21.5C36.2 21.5 32.98 19.46 31.38 16.66L29.38 13.5C28.58 12.3 27.38 11.5 25.98 11.5C24.48 11.5 23.16 12.18 14 16.06V25.5H18V18.66L21.58 17.26L18.4 33.5L12.64 37.56Z" fill="#333333"/>
</svg>
