<svg width="48" height="48" viewBox="0 0 48 48" fill="none" xmlns="http://www.w3.org/2000/svg">
<path d="M39.1998 4.97778C34.5198 0.297779 25.9598 1.23778 20.0998 7.09778C16.8998 10.2978 15.0598 14.8378 15.0198 18.0178C14.9798 21.1778 15.5398 25.7978 12.3198 29.0178L3.83984 37.4978L6.67984 40.3378L15.1598 31.8578C18.3798 28.6378 22.9998 29.1978 26.1598 29.1578C29.3198 29.1178 33.8798 27.2778 37.0798 24.0778C42.9198 18.2178 43.8798 9.65778 39.1998 4.97778ZM20.7998 23.3578C17.7398 20.2978 18.6998 14.1378 22.9198 9.91778C27.1398 5.69778 33.2798 4.73778 36.3598 7.79778C39.4198 10.8578 38.4598 17.0178 34.2398 21.2378C30.0198 25.4578 23.8798 26.4178 20.7998 23.3578Z" fill="#333333"/>
<path d="M36.1598 33.9978C37.2198 33.9978 38.2398 34.4178 38.9798 35.1778C40.5398 36.7378 40.5398 39.2778 38.9798 40.8378C38.2398 41.5778 37.2198 41.9978 36.1598 41.9978C35.0998 41.9978 34.0798 41.5778 33.3398 40.8178C31.7798 39.2578 31.7798 36.7178 33.3398 35.1578C34.0798 34.4178 35.0998 33.9978 36.1598 33.9978ZM36.1598 29.9978C34.1198 29.9978 32.0598 30.7778 30.4998 32.3378C27.3798 35.4578 27.3798 40.5178 30.4998 43.6578C32.0598 45.2178 34.1198 45.9978 36.1598 45.9978C38.1998 45.9978 40.2598 45.2178 41.8198 43.6578C44.9398 40.5378 44.9398 35.4778 41.8198 32.3378C40.2598 30.7778 38.1998 29.9978 36.1598 29.9978Z" fill="#333333"/>
</svg>
