<svg width="48" height="48" viewBox="0 0 48 48" fill="none" xmlns="http://www.w3.org/2000/svg">
<path d="M24 4C12.96 4 4 12.96 4 24C4 35.04 12.96 44 24 44C35.04 44 44 35.04 44 24C44 12.96 35.04 4 24 4ZM26 8.14C32.14 8.9 37.14 13.18 39.08 18.86L26 11.3V8.14ZM16 10.16C18.36 8.78 22.66 8.04 22 8.12V22.82L16 26.28V10.16ZM9.26 30.2C8.46 28.28 8 26.2 8 24C8 19.96 9.52 16.28 12 13.46V28.62L9.26 30.2ZM11.28 33.66L24 26.3L30 29.76L16.04 37.82C14.18 36.76 12.56 35.36 11.28 33.66ZM24 40C22.92 40 21.86 39.88 20.84 39.68L34 32.08L36.72 33.64C33.8 37.5 29.2 40 24 40ZM26 22.84V15.92L40 24.02C40 26.22 39.54 28.3 38.74 30.2L26 22.84Z" fill="#333333"/>
</svg>
