<svg width="127" height="127" viewBox="0 0 127 127" fill="none" xmlns="http://www.w3.org/2000/svg">
<path d="M69.8495 110.13C75.4011 110.163 86.1444 108.303 91.2474 106.122C99.6357 102.538 103.9 99.8433 106.838 96.5427C113.056 89.5613 114.329 84.8716 116.491 79.0765C120.61 68.0392 120.575 55.1132 116.98 43.8933C113.388 32.6734 104.528 22.8807 93.1689 19.755C81.8121 16.6294 68.3361 21.1797 62.4625 31.3907C58.9667 37.4721 57.9527 45.3154 52.4213 49.6275C47.6251 53.3691 40.9606 53.2119 35.1529 55.0194C27.0815 57.5341 20.4727 64.3127 18.1633 72.445C15.854 80.5773 17.9149 89.8173 23.4615 96.1979C29.0081 102.579 31.9563 106.201 42.1064 107.816C50.7482 109.225 58.4901 110.399 69.8495 110.13Z" fill="#EEF2E6"/>
<path d="M19.043 98.7953C20.0798 98.2604 21.3016 98.1894 22.4525 98.3821C23.0711 98.4835 23.715 98.6686 24.1358 99.135C24.5566 99.5989 24.6352 100.418 24.1535 100.816C23.8671 101.054 23.464 101.089 23.0913 101.084C22.1889 101.074 21.1901 100.915 20.4702 101.457C20.0595 101.766 19.7857 102.281 19.2939 102.433C18.8123 102.583 18.2723 102.299 18.0163 101.865C17.7602 101.432 17.7526 100.889 17.8718 100.4C17.8743 100.4 17.9985 99.3353 19.043 98.7953Z" fill="#B2C9A7"/>
<path d="M16.6676 94.209C17.3014 95.114 18.5334 94.8148 19.1063 94.2622C19.6767 93.7096 19.92 92.9085 20.138 92.1429C20.64 90.3963 21.147 88.566 20.7743 86.7865C20.6628 86.2541 20.465 85.7243 20.0899 85.3314C19.7172 84.9359 19.1418 84.7027 18.617 84.8421C17.996 85.0069 17.6081 85.6153 17.3292 86.1933C16.5079 87.8943 16.0744 89.7829 16.0668 91.6714C16.0643 92.5536 16.1682 93.4789 16.6676 94.209Z" fill="#B2C9A7"/>
<path d="M14.9259 95.5113C15.6154 94.6951 15.7447 93.5011 15.438 92.4795C15.1312 91.4553 14.4392 90.5858 13.6407 89.8735C12.7052 89.0395 11.605 88.3905 10.4237 87.9748C9.95983 87.81 9.46804 87.6832 8.97625 87.7289C8.48446 87.7745 7.99014 88.0255 7.76199 88.464C7.4223 89.1105 7.74678 89.8938 8.09914 90.5326C8.71768 91.6581 9.42495 92.7355 10.2108 93.7495C10.8445 94.5658 11.5696 95.3719 12.5354 95.7395C13.5012 96.1096 14.5026 96.064 15.0146 95.3947" fill="#B2C9A7"/>
<path d="M16.6244 107.875C16.6371 107.875 16.6549 107.728 16.6827 107.464C16.7132 107.165 16.7486 106.787 16.7917 106.341C16.845 105.87 16.9134 105.307 17.0452 104.693C17.1771 104.082 17.3799 103.421 17.6435 102.749C17.9147 102.082 18.2494 101.474 18.6372 100.99C19.0225 100.503 19.4712 100.151 19.892 99.9453C20.3129 99.7374 20.688 99.6537 20.9491 99.6157C21.2128 99.5878 21.3598 99.5675 21.3598 99.5574C21.3598 99.5447 21.2128 99.5447 20.9415 99.5498C20.6754 99.5675 20.2824 99.636 19.8388 99.8363C19.3952 100.034 18.9186 100.391 18.5155 100.888C18.1074 101.383 17.7626 102.004 17.4863 102.683C17.2176 103.368 17.0174 104.034 16.8906 104.66C16.7664 105.284 16.7081 105.852 16.6726 106.328C16.6371 106.805 16.6244 107.193 16.6168 107.459C16.6092 107.725 16.6118 107.872 16.6244 107.875Z" fill="#263238"/>
<path d="M16.7003 107.008C16.7054 107.008 16.7105 106.942 16.7105 106.818C16.7105 106.673 16.7105 106.493 16.7079 106.273C16.7054 105.799 16.7079 105.112 16.7333 104.265C16.7764 102.571 16.9209 100.749 17.2023 98.1783C17.4684 95.7625 17.8259 92.9486 18.2061 91.1209C18.2872 90.7051 18.3684 90.33 18.4444 90.0029C18.5179 89.6734 18.5813 89.392 18.6396 89.1613C18.6903 88.9458 18.7334 88.7709 18.7663 88.6315C18.7942 88.5098 18.8044 88.4439 18.7993 88.4439C18.7942 88.4414 18.7714 88.5048 18.7334 88.6239C18.6928 88.7608 18.6396 88.9357 18.5737 89.1461C18.5027 89.3743 18.4317 89.6557 18.3481 89.9827C18.2619 90.3097 18.1732 90.6823 18.0844 91.0981C17.7118 92.756 17.3138 95.0704 17.0299 97.646C16.7485 100.222 16.6192 102.566 16.6091 104.265C16.5989 105.114 16.6167 105.801 16.6395 106.275C16.6522 106.498 16.6648 106.678 16.6724 106.82C16.6876 106.942 16.6953 107.008 16.7003 107.008Z" fill="#263238"/>
<path d="M16.7135 102.486C16.7261 102.486 16.7236 102.283 16.7084 101.916C16.6881 101.548 16.6374 101.018 16.5335 100.369C16.4245 99.7231 16.2698 98.9524 16.0315 98.1184C15.9276 97.7356 15.6817 96.8205 15.0911 95.4541C14.3103 93.601 13.2481 92.0851 12.3254 91.1472C12.1099 90.8987 11.8665 90.7188 11.6739 90.5413C11.575 90.4576 11.4863 90.374 11.395 90.3055C11.3038 90.2422 11.2201 90.1864 11.1415 90.1306C10.8373 89.9228 10.6675 89.8138 10.6624 89.8239C10.6345 89.8619 11.3418 90.2777 12.2367 91.2283C13.1264 92.1764 14.1582 93.6822 14.9339 95.52C15.3648 96.5163 15.6665 97.4061 15.882 98.159C16.1279 98.9854 16.2927 99.7484 16.4169 100.39C16.5335 101.031 16.6019 101.556 16.645 101.921C16.678 102.286 16.7008 102.489 16.7135 102.486Z" fill="#263238"/>
<path d="M12.3406 110.469L12.7943 116.677H20.772L21.2258 110.469H12.3406Z" fill="#263238"/>
<path d="M22.1763 108.015H11.5699V110.462H22.1763V108.015Z" fill="#263238"/>
<path d="M11.5697 116.436V117.115H12.0691H22.0012V116.436H11.5697Z" fill="#517C3C"/>
<path d="M12.5584 118.31L12.0692 117.116H21.621L21.0507 118.31H12.5584Z" fill="#517C3C"/>
<path d="M21.076 112.494C21.0785 112.497 21.0658 112.514 21.0379 112.55C21.0075 112.593 20.967 112.644 20.9188 112.707C20.8047 112.852 20.6501 113.052 20.4549 113.303L20.4346 113.328L20.4143 113.3C20.1228 112.897 19.7324 112.357 19.2736 111.721H19.3395C18.9998 112.203 18.6221 112.738 18.2165 113.313L18.181 113.364L18.1404 113.316C17.7247 112.821 17.276 112.286 16.807 111.729H16.8831C16.8603 111.757 16.8349 111.789 16.8096 111.82C16.3964 112.337 15.9958 112.839 15.6181 113.313L15.5776 113.364L15.5421 113.313C15.1365 112.74 14.7587 112.205 14.4165 111.721L14.4824 111.724C13.9273 112.355 13.4583 112.89 13.0983 113.3L13.073 113.328L13.0552 113.298C12.8727 112.991 12.7282 112.748 12.6217 112.57C12.5761 112.492 12.5406 112.428 12.5102 112.375C12.4848 112.332 12.4747 112.307 12.4772 112.307C12.4798 112.304 12.495 112.327 12.5229 112.367C12.5558 112.416 12.5964 112.479 12.6471 112.555C12.7586 112.73 12.9107 112.968 13.1034 113.27L13.0603 113.267C13.4152 112.852 13.8766 112.309 14.4241 111.67L14.4596 111.63L14.49 111.673C14.8348 112.155 15.2176 112.687 15.6257 113.257L15.5497 113.255C15.9274 112.781 16.3254 112.276 16.7386 111.759C16.7639 111.729 16.7893 111.696 16.8121 111.668L16.8501 111.62L16.8881 111.665C17.3546 112.223 17.8033 112.76 18.2165 113.255L18.143 113.257C18.5536 112.684 18.9364 112.152 19.2787 111.673L19.3116 111.627L19.3446 111.673C19.7933 112.314 20.176 112.862 20.4625 113.27H20.4219C20.6247 113.027 20.787 112.831 20.9061 112.689C20.9594 112.629 21.0025 112.58 21.0354 112.54C21.0582 112.509 21.0734 112.494 21.076 112.494Z" fill="#EEF2E6"/>
<path d="M21.3348 110.423C21.3348 110.451 19.3372 110.474 16.8706 110.474C14.4041 110.474 12.4065 110.451 12.4065 110.423C12.4065 110.396 14.4041 110.373 16.8706 110.373C19.3372 110.373 21.3348 110.396 21.3348 110.423Z" fill="#517C3C"/>
<path d="M21.7374 117.18C21.7374 117.207 19.5649 117.23 16.8854 117.23C14.2059 117.23 12.0334 117.207 12.0334 117.18C12.0334 117.152 14.2059 117.129 16.8854 117.129C19.5649 117.131 21.7374 117.154 21.7374 117.18Z" fill="#263238"/>
<path d="M42.1316 15.7284L37.637 15.7664C37.0337 15.7715 36.5495 16.2861 36.5546 16.9173L36.5622 17.7336C36.5673 18.3648 36.0831 18.8794 35.4797 18.8845L26.7213 18.9554C26.118 18.9605 25.6262 18.4535 25.6211 17.8248L25.6135 17.0086C25.6085 16.3773 25.1141 15.8729 24.5133 15.8779L22.934 15.8906L18.9997 15.9236C17.0452 15.9388 15.4761 17.5358 15.4938 19.4903L15.9831 76.2084C16.0008 78.1604 17.5953 79.7295 19.5473 79.7143L42.6791 79.5242C44.6336 79.509 46.2028 77.9119 46.185 75.9574L45.6958 19.2343C45.678 17.2823 44.0835 15.7132 42.1316 15.7284Z" fill="white"/>
<path d="M42.1315 15.7267C42.1315 15.7267 42.1721 15.7267 42.2532 15.7292C42.3343 15.7369 42.456 15.7267 42.6106 15.7546C42.925 15.7876 43.4016 15.8864 43.9415 16.2008C44.2128 16.3503 44.4916 16.5683 44.7553 16.8472C45.0164 17.126 45.2623 17.4759 45.4372 17.8967C45.6172 18.3149 45.716 18.8067 45.7135 19.3289C45.7186 19.8512 45.7236 20.4063 45.7312 20.997C45.7769 25.7095 45.8402 32.5262 45.9188 40.9474C45.9949 49.3712 46.0836 59.3997 46.185 70.5359C46.1977 71.9277 46.2103 73.3371 46.223 74.7643C46.2256 75.1218 46.2281 75.4792 46.2332 75.8366C46.2332 76.1966 46.2129 76.5667 46.1064 76.9165C46.0075 77.2664 45.8656 77.6086 45.6628 77.9179C45.4625 78.2246 45.2166 78.5034 44.9327 78.7417C44.3623 79.2082 43.6449 79.5098 42.8971 79.5529C42.1569 79.5808 41.4192 79.5707 40.6739 79.5834C39.1859 79.596 37.6851 79.6087 36.1717 79.6214C33.1424 79.6467 30.0599 79.6721 26.9291 79.6974C25.365 79.7101 23.7883 79.7228 22.2014 79.7355C21.4079 79.7431 20.6119 79.7481 19.8134 79.7557C19.0123 79.8039 18.1783 79.5986 17.504 79.1397C16.8272 78.6834 16.3227 77.9888 16.0844 77.2157C15.9551 76.8304 15.9298 76.4171 15.9272 76.0217C15.9247 75.6237 15.9196 75.2257 15.9171 74.8302C15.9044 73.2433 15.8892 71.6666 15.8765 70.1025C15.8486 66.9717 15.8233 63.8892 15.7979 60.8573C15.7472 54.7961 15.6965 48.9504 15.6509 43.381C15.6053 37.8116 15.5597 32.5186 15.5191 27.5677C15.4988 25.091 15.4785 22.7005 15.4608 20.4013C15.4583 20.1148 15.4557 19.8283 15.4532 19.5444C15.4532 19.4025 15.4633 19.258 15.4684 19.116C15.4912 18.974 15.5014 18.8321 15.5368 18.6952C15.6611 18.14 15.912 17.6204 16.2669 17.1894C16.6244 16.761 17.0731 16.4213 17.5699 16.1982C18.0668 15.9701 18.6118 15.8864 19.1391 15.8864C20.1911 15.8788 21.2203 15.8712 22.2216 15.8636C22.7236 15.8611 23.2179 15.856 23.7046 15.8535C23.948 15.8509 24.1913 15.8509 24.4322 15.8484C24.6755 15.8332 24.929 15.8991 25.1293 16.036C25.3295 16.1729 25.4867 16.3731 25.5678 16.6013C25.6616 16.8269 25.6414 17.0728 25.6464 17.2984C25.6464 17.4125 25.649 17.5291 25.649 17.6432C25.6515 17.7572 25.6464 17.8713 25.6642 17.9803C25.6946 18.1983 25.7884 18.4087 25.9329 18.571C26.0748 18.7358 26.2675 18.8524 26.4754 18.9005C26.5793 18.9259 26.6832 18.931 26.7948 18.9284C26.9038 18.9284 27.0128 18.9259 27.1218 18.9259C27.5553 18.9233 27.9786 18.9183 28.3969 18.9157C30.07 18.9031 31.6265 18.8929 33.0588 18.8803C33.7762 18.8752 34.4606 18.8701 35.1146 18.865C35.2769 18.86 35.4417 18.8701 35.5963 18.8549C35.7509 18.8346 35.9005 18.7814 36.0272 18.6977C36.2858 18.533 36.4582 18.2642 36.5165 17.9803C36.5469 17.8384 36.5419 17.6939 36.5393 17.5519C36.5393 17.41 36.5368 17.268 36.5368 17.1286C36.5368 16.9917 36.5266 16.8523 36.552 16.7154C36.5748 16.581 36.6179 16.4517 36.6813 16.3351C36.8055 16.1019 37.0134 15.9244 37.2415 15.8306C37.4722 15.7267 37.7206 15.7571 37.9437 15.7495C38.8512 15.7445 39.6168 15.7394 40.2379 15.7343C40.8564 15.7318 41.3305 15.7292 41.6473 15.7267C41.9668 15.7242 42.1315 15.7267 42.1315 15.7267C42.1315 15.7267 41.9693 15.7318 41.6499 15.7369C41.3305 15.7394 40.859 15.747 40.2404 15.7546C39.6193 15.7622 38.8538 15.7698 37.9462 15.7774C37.7206 15.785 37.4798 15.7571 37.2567 15.8585C37.0336 15.9498 36.8359 16.1222 36.7142 16.3503C36.6534 16.4644 36.6103 16.5886 36.59 16.7204C36.5672 16.8497 36.5773 16.9866 36.5773 17.126C36.5799 17.2655 36.5799 17.4049 36.5824 17.5494C36.5824 17.6913 36.59 17.8409 36.5596 17.9879C36.5013 18.282 36.3213 18.5608 36.0551 18.7307C35.9233 18.8169 35.7687 18.8726 35.6064 18.8929C35.4417 18.9081 35.2845 18.9005 35.1197 18.9056C34.4657 18.9107 33.7812 18.9183 33.0638 18.9259C31.6316 18.9386 30.0751 18.9538 28.402 18.969C27.9837 18.9715 27.5578 18.9766 27.1269 18.9817C27.0179 18.9817 26.9089 18.9842 26.7998 18.9842C26.6908 18.9867 26.5768 18.9817 26.4678 18.9538C26.2472 18.9031 26.0444 18.7789 25.8923 18.6065C25.7402 18.4366 25.6388 18.2161 25.6084 17.9854C25.5907 17.8688 25.5957 17.7547 25.5932 17.6406C25.5932 17.5266 25.5907 17.4125 25.5907 17.2959C25.5856 17.0652 25.6033 16.832 25.5146 16.619C25.4386 16.4036 25.289 16.216 25.0989 16.0867C24.9062 15.9574 24.6755 15.8966 24.4372 15.9092C24.1964 15.9118 23.9556 15.9143 23.7097 15.9168C23.223 15.9219 22.7286 15.9244 22.2267 15.9295C21.2254 15.9371 20.1962 15.9473 19.1441 15.9574C18.6219 15.9574 18.0896 16.0385 17.6029 16.2641C17.1161 16.4847 16.6776 16.8193 16.3278 17.2376C15.9805 17.6584 15.7346 18.1679 15.6129 18.7104C15.5774 18.8448 15.5698 18.9867 15.547 19.1236C15.5419 19.263 15.5318 19.4025 15.5318 19.5444C15.5343 19.8283 15.5368 20.1148 15.5394 20.4013C15.5597 22.7005 15.5825 25.091 15.6028 27.5677C15.6458 32.5211 15.694 37.8116 15.7447 43.381C15.7929 48.9504 15.8461 54.7961 15.8993 60.8573C15.9247 63.8866 15.9526 66.9717 15.9805 70.1025C15.9931 71.6666 16.0084 73.2433 16.021 74.8302C16.0236 75.2282 16.0286 75.6237 16.0312 76.0217C16.0337 76.4171 16.0616 76.8126 16.1858 77.1878C16.419 77.9381 16.9057 78.615 17.5648 79.0586C18.2239 79.5048 19.0225 79.7025 19.8159 79.6569C20.6144 79.6493 21.4104 79.6442 22.2039 79.6366C23.7908 79.6239 25.3676 79.6112 26.9317 79.5986C30.0599 79.5732 33.145 79.5479 36.1743 79.5225C37.6902 79.5098 39.1909 79.4972 40.6764 79.487C41.4192 79.4769 42.1645 79.487 42.892 79.4591C43.6196 79.4161 44.3167 79.1245 44.8719 78.6708C45.1456 78.4375 45.3865 78.1688 45.5817 77.8697C45.7794 77.5706 45.9163 77.2385 46.0126 76.8963C46.1165 76.554 46.1343 76.1966 46.1368 75.8417C46.1343 75.4843 46.1318 75.1268 46.1267 74.7694C46.114 73.3447 46.1039 71.9353 46.0912 70.541C45.9999 59.4048 45.9163 49.3763 45.8478 40.9525C45.7819 32.5287 45.7287 25.7146 45.6907 21.002C45.6856 20.4139 45.6831 19.8562 45.678 19.334C45.6805 18.8143 45.5842 18.3276 45.4067 17.9119C45.2344 17.4936 44.9935 17.1463 44.7324 16.8675C44.4713 16.5886 44.1976 16.3731 43.9288 16.221C43.394 15.9042 42.9199 15.8053 42.6081 15.7673C42.4509 15.7369 42.3293 15.747 42.2507 15.7369C42.1721 15.7292 42.1315 15.7267 42.1315 15.7267Z" fill="#263238"/>
<path d="M42.8641 21.4529C42.8641 21.4681 42.2811 21.4909 41.5586 21.5036C40.8386 21.5163 40.2531 21.5137 40.2531 21.4985C40.2531 21.4833 40.8361 21.4605 41.5586 21.4478C42.2785 21.4351 42.8641 21.4377 42.8641 21.4529Z" fill="#263238"/>
<path d="M42.8772 22.1226C42.8772 22.1378 42.2941 22.1606 41.5716 22.1733C40.8517 22.1859 40.2661 22.1834 40.2661 22.1682C40.2661 22.153 40.8492 22.1302 41.5716 22.1175C42.2916 22.1048 42.8772 22.1074 42.8772 22.1226Z" fill="#263238"/>
<path d="M42.887 22.79C42.887 22.8053 42.304 22.8281 41.5815 22.8407C40.8616 22.8534 40.276 22.8509 40.276 22.8357C40.276 22.8205 40.859 22.7976 41.5815 22.785C42.3015 22.7723 42.887 22.7748 42.887 22.79Z" fill="#263238"/>
<path d="M19.1394 23.7601C19.1394 23.7601 19.1597 23.7575 19.1926 23.755C19.2357 23.7524 19.2839 23.7499 19.3447 23.7474C19.4867 23.7423 19.6743 23.7372 19.9024 23.7296L19.8872 23.7448C19.8847 23.6206 19.8796 23.4863 19.8771 23.3418C19.8771 23.2657 19.8695 23.1947 19.8771 23.1086C19.8923 23.0224 19.9683 22.9438 20.0621 22.9362C20.1509 22.9336 20.232 22.9286 20.3283 22.9336C20.4297 22.9438 20.5159 23.0401 20.5134 23.1466C20.5159 23.3342 20.521 23.5319 20.5261 23.7372L20.5007 23.7119C20.7263 23.7068 20.9621 23.7043 21.2029 23.6992L21.1775 23.7271C21.1725 23.4432 21.1674 23.1517 21.1623 22.85C21.1598 22.7739 21.1598 22.7004 21.1573 22.6269C21.1573 22.5585 21.1142 22.5128 21.0559 22.4621C20.9519 22.3607 20.848 22.2593 20.7466 22.163C20.6452 22.0641 20.5463 21.9678 20.4475 21.874C20.3993 21.8258 20.3511 21.7802 20.303 21.7321C20.2523 21.6839 20.2142 21.6357 20.1559 21.6256C20.1002 21.6104 20.0393 21.623 19.9937 21.6585C19.9506 21.694 19.9075 21.7473 19.8644 21.7878C19.7782 21.8765 19.6946 21.9627 19.6135 22.0439C19.4563 22.2112 19.2915 22.3633 19.1724 22.5052C19.1217 22.5838 19.1419 22.6801 19.1394 22.7689C19.1394 22.8551 19.1394 22.9387 19.1419 23.0173C19.1419 23.1694 19.1419 23.3012 19.1419 23.4153C19.1419 23.5167 19.1419 23.6003 19.1419 23.6713C19.1394 23.7271 19.1394 23.7601 19.1394 23.7601C19.1369 23.7626 19.1369 23.7322 19.1343 23.6764C19.1318 23.608 19.1293 23.5243 19.1242 23.4254C19.1217 23.3114 19.1166 23.177 19.1115 23.0224C19.109 22.9438 19.1064 22.8576 19.1039 22.7689C19.1039 22.7232 19.1014 22.6776 19.1014 22.6294C19.1014 22.5787 19.1141 22.528 19.1394 22.4824C19.2687 22.3227 19.4233 22.1782 19.5805 22.0084C19.6616 21.9247 19.7427 21.8385 19.8289 21.7498C19.8746 21.7042 19.91 21.6611 19.9633 21.6129C20.019 21.5698 20.0951 21.5521 20.1661 21.5698C20.2421 21.585 20.2903 21.6459 20.3359 21.689C20.3841 21.7346 20.4323 21.7828 20.4804 21.8284C20.5793 21.9222 20.6782 22.0185 20.7796 22.1174C20.881 22.2162 20.9849 22.3151 21.0914 22.4165C21.1167 22.4419 21.1471 22.4647 21.1699 22.5002C21.1928 22.5356 21.2054 22.5762 21.208 22.6193C21.2105 22.6928 21.2105 22.7689 21.213 22.8424C21.2181 23.1415 21.2232 23.4356 21.2282 23.7195V23.7474H21.2004C20.957 23.7499 20.7238 23.755 20.4982 23.7575H20.4728V23.7322C20.4703 23.5268 20.4677 23.3316 20.4652 23.1415C20.4677 23.0553 20.4018 22.9818 20.3207 22.9717C20.2396 22.9691 20.1433 22.9717 20.0647 22.9742C19.9886 22.9818 19.9278 23.0426 19.9151 23.1111C19.91 23.1821 19.9151 23.2632 19.9151 23.3367C19.9176 23.4812 19.9176 23.6181 19.9176 23.7398V23.755H19.9024C19.6692 23.755 19.4816 23.755 19.3346 23.755C19.2763 23.755 19.2281 23.755 19.1876 23.755C19.1546 23.7626 19.1369 23.7626 19.1394 23.7601Z" fill="#263238"/>
<path d="M40.9251 31.5875L20.0494 31.7726C19.005 31.7827 18.1507 30.9436 18.1405 29.8992L18.1355 29.197C18.1253 28.1526 18.9644 27.2983 20.0088 27.2882L40.8846 27.1031C41.929 27.093 42.7833 27.9321 42.7934 28.9765L42.7985 29.6787C42.8086 30.7231 41.9695 31.5774 40.9251 31.5875Z" fill="#F5F5F5"/>
<path d="M40.9248 31.5841C40.9248 31.5841 40.973 31.579 41.0668 31.5714C41.1606 31.5638 41.2975 31.541 41.4724 31.4878C41.6448 31.4295 41.8526 31.3357 42.063 31.1709C42.2734 31.0087 42.4788 30.7704 42.6182 30.4535C42.6867 30.2963 42.7424 30.1214 42.7627 29.9288C42.7855 29.7386 42.7754 29.5358 42.7754 29.3254C42.7703 29.1125 42.783 28.8919 42.7399 28.6689C42.6993 28.4458 42.6182 28.2202 42.4889 28.0148C42.2354 27.6016 41.7842 27.2569 41.2366 27.1605C40.9654 27.1124 40.6764 27.1377 40.3798 27.1352C40.0832 27.1377 39.779 27.1403 39.4697 27.1453C34.4885 27.1935 27.611 27.2569 20.0136 27.3304C19.5497 27.3329 19.0934 27.5205 18.7613 27.8349C18.4267 28.1492 18.2214 28.5877 18.1884 29.0364C18.1757 29.2595 18.1884 29.4953 18.1859 29.7234C18.1833 29.9541 18.196 30.1747 18.2619 30.3901C18.3861 30.8185 18.6675 31.1912 19.0351 31.4295C19.2176 31.5486 19.423 31.6323 19.6334 31.6779C19.8463 31.7261 20.0618 31.7235 20.2823 31.721C20.7209 31.7185 21.1569 31.7134 21.5878 31.7109C22.4497 31.7033 23.2939 31.6957 24.1152 31.6906C27.4082 31.6652 30.3716 31.6424 32.8635 31.6221C35.3529 31.6069 37.3657 31.5943 38.7599 31.5841C39.4545 31.5816 39.9945 31.579 40.3621 31.579C40.5446 31.579 40.6815 31.579 40.7778 31.579C40.8767 31.579 40.9248 31.5841 40.9248 31.5841C40.9248 31.5841 40.8767 31.5867 40.7829 31.5892C40.6865 31.5917 40.5471 31.5943 40.3671 31.5968C39.997 31.6019 39.4571 31.6095 38.765 31.6196C37.3708 31.6348 35.3554 31.6576 32.8686 31.6855C30.3792 31.7109 27.4133 31.7388 24.1228 31.7717C23.299 31.7793 22.4574 31.7869 21.5955 31.7945C21.1645 31.7996 20.7285 31.8021 20.2899 31.8072C20.0719 31.8097 19.8438 31.8123 19.6207 31.7616C19.3976 31.7134 19.1847 31.6247 18.992 31.5005C18.6067 31.252 18.3101 30.8616 18.1808 30.4129C18.1124 30.1899 18.0972 29.949 18.1022 29.7209C18.1048 29.4902 18.0895 29.2646 18.1048 29.0263C18.1377 28.5548 18.3557 28.0934 18.7056 27.7639C19.0528 27.4318 19.532 27.2366 20.0187 27.2341C27.6161 27.1732 34.4935 27.1174 39.4748 27.0769C39.7866 27.0744 40.0908 27.0718 40.3849 27.0693C40.6789 27.0718 40.9705 27.0465 41.2544 27.0997C41.8197 27.2011 42.2811 27.5585 42.5396 27.9844C42.6714 28.1974 42.7551 28.4306 42.7931 28.6587C42.8337 28.8894 42.821 29.1125 42.8261 29.3229C42.8261 29.5333 42.8362 29.7386 42.8109 29.9313C42.7906 30.1265 42.7297 30.3039 42.6613 30.4636C42.5168 30.7856 42.3039 31.0264 42.0884 31.1887C41.8755 31.3534 41.6625 31.4472 41.4876 31.503C41.3101 31.5537 41.1707 31.5714 41.0769 31.5765C40.973 31.5841 40.9248 31.5841 40.9248 31.5841Z" fill="#263238"/>
<path d="M41.2851 29.2353C41.2775 29.2353 41.2775 29.1618 41.2395 29.0427C41.204 28.9235 41.1203 28.7511 40.9378 28.6193C40.7629 28.4875 40.4764 28.4165 40.2027 28.523C39.9314 28.6193 39.6982 28.9134 39.7058 29.2505C39.7058 29.5877 39.9441 29.8767 40.2153 29.9705C40.4916 30.0719 40.7756 29.9958 40.9479 29.8615C41.1279 29.7271 41.2091 29.5522 41.242 29.433C41.2775 29.3088 41.2775 29.2353 41.2851 29.2353C41.2876 29.2353 41.2902 29.2531 41.2927 29.2885C41.2952 29.324 41.2927 29.3747 41.28 29.4381C41.2572 29.5649 41.1786 29.7575 40.991 29.9096C40.8085 30.0617 40.4967 30.1555 40.19 30.049C39.8858 29.9527 39.6145 29.6308 39.6145 29.2505C39.6069 28.8703 39.8706 28.5458 40.1748 28.4419C40.4815 28.3303 40.7933 28.4165 40.9784 28.5661C41.1685 28.7156 41.2496 28.9058 41.275 29.0325C41.2902 29.0959 41.2927 29.1491 41.2902 29.1821C41.2902 29.2176 41.2902 29.2353 41.2851 29.2353Z" fill="#263238"/>
<path d="M41.7465 30.6299C41.7287 30.6476 41.5487 30.4854 41.3459 30.2699C41.1431 30.0544 40.9936 29.8643 41.0113 29.8465C41.0291 29.8288 41.209 29.991 41.4118 30.2065C41.6146 30.4245 41.7642 30.6146 41.7465 30.6299Z" fill="#263238"/>
<path d="M21.4639 29.0676L21.0228 29.0727V28.9586L22.0342 28.9485V29.0626L21.5931 29.0676L21.6033 30.2058H21.4715L21.4639 29.0676Z" fill="#EEF2E6"/>
<path d="M22.9468 29.7601L22.161 29.7677C22.1762 29.9655 22.3283 30.0948 22.5336 30.0922C22.6477 30.0922 22.7491 30.0491 22.8201 29.9655L22.8911 30.0466C22.8074 30.148 22.6781 30.2012 22.5286 30.2038C22.2345 30.2063 22.0342 30.0086 22.0317 29.7297C22.0292 29.4509 22.2218 29.2506 22.488 29.2481C22.7516 29.2455 22.9468 29.4382 22.9494 29.7221C22.9494 29.7323 22.9468 29.7449 22.9468 29.7601ZM22.161 29.6714L22.8277 29.6663C22.8099 29.4813 22.6756 29.3545 22.4905 29.3571C22.308 29.3571 22.1737 29.4889 22.161 29.6714Z" fill="#EEF2E6"/>
<path d="M23.7859 30.181L23.4842 29.7906L23.1876 30.186L23.0457 30.1886L23.4132 29.7018L23.0558 29.2481L23.1978 29.2455L23.4842 29.6106L23.7631 29.2405H23.9025L23.5527 29.7018L23.9329 30.181H23.7859Z" fill="#EEF2E6"/>
<path d="M24.635 30.1171C24.5843 30.1627 24.5108 30.1856 24.4373 30.1856C24.2598 30.1881 24.1609 30.0867 24.1584 29.9143L24.1533 29.3465L23.986 29.349V29.2425L24.1533 29.24L24.1508 29.0347H24.2775L24.2801 29.24L24.5665 29.2375V29.3439L24.2801 29.3465L24.2852 29.9067C24.2852 30.0182 24.3435 30.0791 24.4499 30.0766C24.5006 30.0766 24.5539 30.0588 24.5894 30.0259L24.635 30.1171Z" fill="#EEF2E6"/>
<path d="M24.6299 35.4558L19.2329 35.5034L19.2805 40.9004L24.6775 40.8529L24.6299 35.4558Z" fill="#B2C9A7"/>
<path d="M35.0162 35.9069C35.0162 35.9323 33.2113 35.9678 30.9855 35.9881C28.7598 36.0083 26.9549 36.0033 26.9549 35.9779C26.9549 35.9526 28.7598 35.9171 30.9855 35.8968C33.2113 35.8765 35.0162 35.8816 35.0162 35.9069Z" fill="#B2C9A7"/>
<path d="M41.4599 37.504C41.4599 37.5293 38.2177 37.5775 34.2174 37.613C30.2147 37.6485 26.9724 37.6561 26.9724 37.6307C26.9724 37.6054 30.2147 37.5572 34.2174 37.5217C38.2151 37.4888 41.4599 37.4786 41.4599 37.504Z" fill="#263238"/>
<path d="M41.3002 38.6858C41.3002 38.7112 38.0959 38.7593 34.1413 38.7948C30.1867 38.8303 26.9825 38.8379 26.9825 38.8126C26.9825 38.7872 30.1867 38.7391 34.1413 38.7036C38.0934 38.6681 41.3002 38.6605 41.3002 38.6858Z" fill="#263238"/>
<path d="M35.4445 39.8668C35.4445 39.8922 33.5533 39.9302 31.2186 39.9505C28.8839 39.9708 26.9902 39.9682 26.9902 39.9429C26.9902 39.9175 28.8813 39.8795 31.2161 39.8592C33.5508 39.8389 35.4445 39.8415 35.4445 39.8668Z" fill="#263238"/>
<path d="M24.7084 44.4168L19.3114 44.4644L19.359 49.8614L24.756 49.8138L24.7084 44.4168Z" fill="#B2C9A7"/>
<path d="M35.0971 44.9052C35.0971 44.9306 33.2922 44.9661 31.0665 44.9863C28.8407 45.0066 27.0358 45.0016 27.0358 44.9762C27.0358 44.9509 28.8407 44.9154 31.0665 44.8951C33.2922 44.8748 35.0971 44.8799 35.0971 44.9052Z" fill="#B2C9A7"/>
<path d="M41.5383 46.4952C41.5383 46.5205 38.296 46.5687 34.2958 46.6042C30.293 46.6397 27.0508 46.6473 27.0508 46.6219C27.0508 46.5966 30.293 46.5484 34.2958 46.5129C38.2935 46.48 41.5383 46.4698 41.5383 46.4952Z" fill="#263238"/>
<path d="M41.3787 47.6844C41.3787 47.7097 38.1745 47.7579 34.2199 47.7934C30.2653 47.8289 27.061 47.8365 27.061 47.8111C27.061 47.7858 30.2653 47.7376 34.2199 47.7021C38.1719 47.6666 41.3787 47.659 41.3787 47.6844Z" fill="#263238"/>
<path d="M35.523 48.858C35.523 48.8834 33.6319 48.9214 31.2972 48.9417C28.9624 48.962 27.0688 48.9594 27.0688 48.9341C27.0688 48.9087 28.9599 48.8707 31.2946 48.8504C33.6319 48.8302 35.523 48.8327 35.523 48.858Z" fill="#263238"/>
<path d="M24.7897 53.4075L19.3927 53.4551L19.4403 58.8521L24.8373 58.8045L24.7897 53.4075Z" fill="#517C3C"/>
<path d="M35.1756 53.8945C35.1756 53.9198 33.3706 53.9553 31.1449 53.9756C28.9192 53.9959 27.1143 53.9908 27.1143 53.9655C27.1143 53.9401 28.9192 53.9046 31.1449 53.8843C33.3706 53.8641 35.1756 53.8691 35.1756 53.8945Z" fill="#B2C9A7"/>
<path d="M41.6168 55.4934C41.6168 55.5188 38.3745 55.567 34.3743 55.6024C30.3715 55.6379 27.1293 55.6455 27.1293 55.6202C27.1293 55.5948 30.3715 55.5467 34.3743 55.5112C38.3745 55.4757 41.6168 55.4681 41.6168 55.4934Z" fill="#263238"/>
<path d="M41.4573 56.6734C41.4573 56.6987 38.2531 56.7469 34.2985 56.7824C30.3439 56.8179 27.1396 56.8255 27.1396 56.8001C27.1396 56.7748 30.3439 56.7266 34.2985 56.6911C38.2531 56.6556 41.4573 56.648 41.4573 56.6734Z" fill="#263238"/>
<path d="M35.6038 57.8549C35.6038 57.8802 33.7127 57.9182 31.3779 57.9385C29.0432 57.9588 27.1495 57.9563 27.1495 57.9309C27.1495 57.9056 29.0406 57.8675 31.3754 57.8473C33.7101 57.827 35.6038 57.8295 35.6038 57.8549Z" fill="#263238"/>
<path d="M24.8682 62.3992L19.4712 62.4468L19.5188 67.8438L24.9158 67.7962L24.8682 62.3992Z" fill="#B2C9A7"/>
<path d="M35.2545 62.8883C35.2545 62.9136 33.4496 62.9491 31.2238 62.9694C28.9981 62.9897 27.1932 62.9846 27.1932 62.9593C27.1932 62.9339 28.9981 62.8984 31.2238 62.8781C33.4496 62.8604 35.2545 62.8629 35.2545 62.8883Z" fill="#517C3C"/>
<path d="M41.6983 64.4827C41.6983 64.5081 38.4561 64.5562 34.4558 64.5917C30.4531 64.6272 27.2108 64.6348 27.2108 64.6095C27.2108 64.5841 30.4531 64.5359 34.4558 64.5004C38.4535 64.465 41.6983 64.4574 41.6983 64.4827Z" fill="#263238"/>
<path d="M41.5362 65.6636C41.5362 65.689 38.3319 65.7371 34.3773 65.7726C30.4227 65.8081 27.2185 65.8157 27.2185 65.7904C27.2185 65.765 30.4227 65.7168 34.3773 65.6813C38.3319 65.6459 41.5362 65.6383 41.5362 65.6636Z" fill="#263238"/>
<path d="M35.6827 66.8444C35.6827 66.8697 33.7916 66.9077 31.4568 66.928C29.1221 66.9483 27.2285 66.9458 27.2285 66.9204C27.2285 66.8951 29.1196 66.857 31.4543 66.8368C33.789 66.8165 35.6827 66.819 35.6827 66.8444Z" fill="#263238"/>
<path d="M24.9468 71.3906L19.5498 71.4382L19.5974 76.8352L24.9944 76.7876L24.9468 71.3906Z" fill="#EEF2E6"/>
<path d="M35.3354 71.8771C35.3354 71.9024 33.5305 71.9379 31.3048 71.9582C29.079 71.9784 27.2741 71.9734 27.2741 71.948C27.2741 71.9227 29.079 71.8872 31.3048 71.8669C33.528 71.8492 35.3329 71.8517 35.3354 71.8771Z" fill="#EEF2E6"/>
<path d="M41.7766 73.4717C41.7766 73.4971 38.5344 73.5452 34.5342 73.5807C30.5314 73.6162 27.2891 73.6238 27.2891 73.5985C27.2891 73.5731 30.5314 73.525 34.5342 73.4895C38.5318 73.454 41.7766 73.4464 41.7766 73.4717Z" fill="#EBEBEB"/>
<path d="M41.6169 74.6602C41.6169 74.6855 38.4127 74.7337 34.4581 74.7692C30.5035 74.8047 27.2993 74.8123 27.2993 74.7869C27.2993 74.7616 30.5035 74.7134 34.4581 74.6779C38.4102 74.6424 41.6169 74.6348 41.6169 74.6602Z" fill="#EBEBEB"/>
<path d="M35.7612 75.8339C35.7612 75.8592 33.8701 75.8972 31.5354 75.9175C29.2007 75.9378 27.307 75.9353 27.307 75.9099C27.307 75.8846 29.1981 75.8465 31.5329 75.8263C33.8701 75.806 35.7612 75.8085 35.7612 75.8339Z" fill="#EBEBEB"/>
<g opacity="0.3">
<path d="M24.8682 62.3992L19.4712 62.4468L19.5188 67.8438L24.9158 67.7962L24.8682 62.3992Z" fill="black"/>
</g>
<path d="M105.296 77.4015L102.297 77.3812C101.894 77.3786 101.567 77.7158 101.564 78.1366L101.562 78.6791C101.559 79.0974 101.23 79.4371 100.829 79.4345L94.9808 79.394C94.5777 79.3914 94.2558 79.0492 94.2583 78.6284L94.2634 78.0859C94.2659 77.6676 93.9415 77.3254 93.5409 77.3203L92.4864 77.3127L89.8601 77.295C88.5571 77.2849 87.4924 78.3318 87.4823 79.6323L87.2643 103.963C87.2567 105.264 88.3061 106.323 89.6091 106.333L105.05 106.442C106.353 106.453 107.418 105.406 107.428 104.105L107.646 79.7742C107.646 78.4712 106.599 77.4116 105.296 77.4015Z" fill="white"/>
<path d="M105.296 77.401C105.334 77.4035 105.402 77.406 105.547 77.4136C105.711 77.4364 105.957 77.4745 106.256 77.6063C106.548 77.7406 106.9 77.9663 107.182 78.3516C107.473 78.7268 107.673 79.2718 107.651 79.8903C107.63 82.3518 107.602 85.9109 107.564 90.3041C107.547 92.5019 107.526 94.9102 107.504 97.4959C107.493 98.7887 107.481 100.125 107.468 101.504C107.463 102.193 107.455 102.89 107.45 103.6C107.443 103.953 107.468 104.315 107.372 104.67C107.283 105.02 107.113 105.354 106.875 105.633C106.634 105.91 106.33 106.135 105.988 106.282C105.645 106.429 105.265 106.477 104.893 106.467C104.147 106.462 103.394 106.457 102.634 106.452C101.113 106.442 99.5589 106.432 97.9771 106.419C96.3952 106.409 94.7855 106.396 93.153 106.386C92.3367 106.381 91.5128 106.373 90.6864 106.368C90.2707 106.361 89.8575 106.371 89.4392 106.351C89.0184 106.325 88.6077 106.168 88.2579 105.932C87.9106 105.686 87.6267 105.354 87.4543 104.972C87.2667 104.591 87.2236 104.158 87.2388 103.745C87.2464 102.916 87.254 102.094 87.2616 101.276C87.2769 99.6405 87.2921 98.0308 87.3047 96.4489C87.3326 93.2853 87.3605 90.2331 87.3884 87.3255C87.4011 85.8729 87.4137 84.4533 87.4264 83.0768C87.434 82.3873 87.4391 81.7104 87.4442 81.0412C87.4467 80.7066 87.4492 80.377 87.4543 80.0475C87.4594 79.7205 87.4467 79.3884 87.5329 79.0715C87.6901 78.4378 88.1185 77.8927 88.666 77.586C88.9398 77.4314 89.2415 77.3325 89.5482 77.2945C89.8575 77.2615 90.1591 77.2818 90.4583 77.2793C91.0591 77.2843 91.6472 77.2869 92.2226 77.2919C92.5091 77.2945 92.7956 77.297 93.0769 77.2996C93.2164 77.2996 93.3583 77.3021 93.4977 77.3021C93.6372 77.297 93.7842 77.3325 93.9033 77.4035C94.1492 77.5454 94.2912 77.8294 94.2811 78.1031C94.2811 78.2375 94.2785 78.3693 94.2785 78.5037C94.276 78.638 94.276 78.7673 94.3216 78.8865C94.4027 79.1298 94.6182 79.3199 94.8641 79.363C95.11 79.3884 95.3686 79.3732 95.6145 79.3808C96.6057 79.3884 97.5385 79.396 98.4131 79.4036C99.2851 79.4112 100.099 79.4163 100.847 79.4213C101.227 79.4239 101.521 79.0943 101.551 78.7597C101.562 78.5924 101.557 78.4226 101.559 78.2628C101.554 78.1031 101.567 77.9358 101.64 77.7964C101.775 77.51 102.081 77.3502 102.355 77.3756C102.626 77.3781 102.882 77.3807 103.118 77.3832C103.59 77.3883 103.99 77.3908 104.315 77.3933C104.926 77.3959 105.209 77.401 105.296 77.401C105.209 77.401 104.926 77.4009 104.31 77.3984C103.985 77.3959 103.585 77.3959 103.113 77.3933C102.877 77.3908 102.621 77.3908 102.35 77.3883C102.079 77.3655 101.785 77.5226 101.653 77.8015C101.582 77.9384 101.569 78.0955 101.574 78.2578C101.572 78.42 101.577 78.5848 101.567 78.7572C101.539 79.0994 101.235 79.4416 100.842 79.4416C100.094 79.4366 99.2801 79.4315 98.408 79.4264C97.5335 79.4213 96.6006 79.4163 95.6094 79.4087C95.361 79.4011 95.1125 79.4163 94.854 79.3909C94.5954 79.3453 94.3698 79.1476 94.2861 78.8941C94.238 78.7673 94.238 78.6279 94.2405 78.4986C94.2405 78.3668 94.243 78.2324 94.243 78.0981C94.2506 77.837 94.1163 77.5657 93.8831 77.4314C93.7665 77.3629 93.6321 77.33 93.4952 77.335C93.3558 77.335 93.2164 77.3325 93.0769 77.3325C92.7956 77.33 92.5116 77.33 92.2226 77.3274C91.6472 77.3249 91.0591 77.3198 90.4583 77.3148C90.1591 77.3173 89.8524 77.297 89.5533 77.33C89.2516 77.3655 88.955 77.4643 88.6863 77.6164C88.1489 77.9206 87.7281 78.453 87.5734 79.0766C87.4898 79.3884 87.5025 79.7154 87.4974 80.0424C87.4949 80.372 87.4923 80.7015 87.4898 81.0361C87.4847 81.7054 87.4771 82.3822 87.472 83.0717C87.4594 84.4482 87.4467 85.8653 87.434 87.3204C87.4087 90.2281 87.3808 93.2802 87.3529 96.4439C87.3377 98.0257 87.325 99.6354 87.3098 101.271C87.3022 102.087 87.2946 102.911 87.287 103.74C87.2743 104.153 87.3149 104.569 87.4974 104.944C87.6672 105.321 87.9436 105.646 88.2832 105.884C88.6255 106.117 89.026 106.27 89.4367 106.295C89.8499 106.315 90.2682 106.305 90.6814 106.313C91.5103 106.318 92.3316 106.325 93.1479 106.33C94.7805 106.343 96.3902 106.353 97.972 106.363C99.5539 106.373 101.108 106.386 102.629 106.396C103.389 106.401 104.142 106.406 104.888 106.411C105.258 106.422 105.628 106.373 105.962 106.231C106.297 106.087 106.596 105.869 106.832 105.598C107.068 105.327 107.232 104.997 107.319 104.655C107.412 104.31 107.387 103.953 107.397 103.598C107.405 102.89 107.41 102.191 107.417 101.501C107.43 100.125 107.443 98.7862 107.455 97.4934C107.481 94.9077 107.504 92.4994 107.524 90.3016C107.567 85.9059 107.602 82.3493 107.625 79.8878C107.651 79.2718 107.453 78.7318 107.166 78.3592C106.888 77.9764 106.538 77.7508 106.249 77.6164C105.955 77.4821 105.706 77.444 105.544 77.4187C105.4 77.4086 105.334 77.4035 105.296 77.401Z" fill="#263238"/>
<path d="M105.624 84.3613L89.3091 84.3223L89.282 95.6512L105.597 95.6902L105.624 84.3613Z" fill="#B2C9A7"/>
<path d="M99.8202 89.9919C99.8177 91.3 98.7555 92.3571 97.4475 92.3545C96.1394 92.352 95.0823 91.2898 95.0848 89.9818C95.0874 88.6737 96.1495 87.6166 97.4576 87.6191C98.7657 87.6217 99.8253 88.6838 99.8202 89.9919Z" fill="white"/>
<path d="M96.8697 89.9857L96.8723 88.9185L97.795 89.4533L98.7177 89.9882L97.7925 90.5206L96.8672 91.0504L96.8697 89.9857Z" fill="#B2C9A7"/>
<path d="M91.0448 97.3488V97.1663C91.0448 97.1511 91.0625 97.141 91.0778 97.1486L91.2349 97.2398L91.3921 97.3311C91.4073 97.3387 91.4073 97.359 91.3921 97.3666L91.2349 97.4579L91.0778 97.5491C91.0625 97.5567 91.0448 97.5466 91.0448 97.5314V97.3488Z" fill="#263238"/>
<path d="M92.525 97.211H92.3881C92.3754 97.211 92.3678 97.2211 92.3678 97.2313V97.3529V97.4746C92.3678 97.4873 92.3779 97.4949 92.3881 97.4949H92.525L92.7354 97.7079V97.3529V96.998L92.525 97.211Z" fill="#263238"/>
<path d="M91.5188 97.5674C91.4985 97.5674 91.4833 97.5522 91.4833 97.5319V97.1668C91.4833 97.1466 91.4985 97.1313 91.5188 97.1313C91.539 97.1313 91.5543 97.1466 91.5543 97.1668V97.5319C91.5568 97.5522 91.539 97.5674 91.5188 97.5674Z" fill="#263238"/>
<path d="M92.8239 97.1313V97.1897V97.5141V97.5724C92.9126 97.5395 92.976 97.4533 92.976 97.3519C92.976 97.2505 92.9126 97.1643 92.8239 97.1313Z" fill="#263238"/>
<path d="M92.8239 96.9614V97.0527C92.9531 97.0907 93.0495 97.2099 93.0495 97.3518C93.0495 97.4938 92.9531 97.6129 92.8239 97.6484V97.7397C93.0038 97.7016 93.1382 97.5419 93.1407 97.3493C93.1433 97.1566 93.0038 97.002 92.8239 96.9614Z" fill="#263238"/>
<path d="M93.9673 97.2104V97.6414H93.9065V97.2637H93.8102V97.2104H93.9673Z" fill="#263238"/>
<path d="M94.0586 97.3526C94.0586 97.3272 94.0789 97.312 94.1017 97.312C94.1245 97.312 94.1422 97.3298 94.1422 97.3551C94.1422 97.3805 94.1245 97.3982 94.1017 97.3982C94.0789 97.3957 94.0586 97.3779 94.0586 97.3526ZM94.0586 97.601C94.0586 97.5756 94.0789 97.5604 94.1017 97.5604C94.1245 97.5604 94.1422 97.5782 94.1422 97.6035C94.1422 97.6289 94.1245 97.6466 94.1017 97.6466C94.0789 97.6441 94.0586 97.6263 94.0586 97.601Z" fill="#263238"/>
<path d="M94.2005 97.4271C94.2005 97.2877 94.2766 97.2065 94.3754 97.2065C94.4768 97.2065 94.5503 97.2877 94.5503 97.4271C94.5503 97.5665 94.4743 97.6476 94.3754 97.6476C94.274 97.6451 94.2005 97.5665 94.2005 97.4271ZM94.4895 97.4271C94.4895 97.3181 94.4439 97.2623 94.3754 97.2623C94.307 97.2623 94.2613 97.3181 94.2613 97.4271C94.2613 97.5361 94.307 97.5919 94.3754 97.5919C94.4413 97.5919 94.4895 97.5361 94.4895 97.4271Z" fill="#263238"/>
<path d="M94.7406 97.2104V97.6414H94.6797V97.2637H94.5834V97.2104H94.7406Z" fill="#263238"/>
<path d="M95.1562 97.1243H95.2094L95.0066 97.7022H94.9534L95.1562 97.1243Z" fill="#263238"/>
<path d="M95.7191 97.5223C95.7191 97.6009 95.6531 97.6491 95.5467 97.6491C95.4427 97.6491 95.3768 97.6009 95.3768 97.5223C95.3768 97.4742 95.4047 97.4362 95.4529 97.4184C95.4149 97.4007 95.392 97.3677 95.392 97.3246C95.392 97.2536 95.4554 97.208 95.5467 97.208C95.6405 97.208 95.7013 97.2536 95.7013 97.3246C95.7013 97.3677 95.6785 97.3981 95.6405 97.4184C95.6937 97.4362 95.7191 97.4742 95.7191 97.5223ZM95.6582 97.5198C95.6582 97.4716 95.6177 97.4438 95.5492 97.4438C95.4808 97.4438 95.4402 97.4742 95.4402 97.5198C95.4402 97.568 95.4808 97.5984 95.5492 97.5984C95.6151 97.5984 95.6582 97.568 95.6582 97.5198ZM95.4554 97.3272C95.4554 97.3702 95.4909 97.3956 95.5492 97.3956C95.6075 97.3956 95.6455 97.3702 95.6455 97.3272C95.6455 97.2841 95.6075 97.2587 95.5492 97.2587C95.4909 97.2587 95.4554 97.2841 95.4554 97.3272Z" fill="#263238"/>
<path d="M95.7748 97.357C95.7748 97.3316 95.7951 97.3164 95.8179 97.3164C95.8408 97.3164 95.8585 97.3341 95.8585 97.3595C95.8585 97.3848 95.8408 97.4026 95.8179 97.4026C95.7926 97.4001 95.7748 97.3798 95.7748 97.357ZM95.7748 97.6054C95.7748 97.58 95.7951 97.5648 95.8179 97.5648C95.8408 97.5648 95.8585 97.5826 95.8585 97.6079C95.8585 97.6333 95.8408 97.651 95.8179 97.651C95.7926 97.646 95.7748 97.6282 95.7748 97.6054Z" fill="#263238"/>
<path d="M95.9143 97.4286C95.9143 97.2891 95.9904 97.208 96.0892 97.208C96.1906 97.208 96.2641 97.2891 96.2641 97.4286C96.2641 97.568 96.1881 97.6491 96.0892 97.6491C95.9904 97.6491 95.9143 97.568 95.9143 97.4286ZM96.2033 97.4311C96.2033 97.3221 96.1577 97.2663 96.0892 97.2663C96.0208 97.2663 95.9752 97.3221 95.9752 97.4311C95.9752 97.5401 96.0208 97.5959 96.0892 97.5959C96.1577 97.5959 96.2033 97.5401 96.2033 97.4311Z" fill="#263238"/>
<path d="M96.3249 97.431C96.3249 97.2916 96.4009 97.2104 96.4998 97.2104C96.5987 97.2104 96.6747 97.2916 96.6747 97.431C96.6747 97.5704 96.5987 97.6515 96.4998 97.6515C96.3984 97.649 96.3249 97.5704 96.3249 97.431ZM96.6139 97.431C96.6139 97.322 96.5683 97.2662 96.4998 97.2662C96.4314 97.2662 96.3857 97.322 96.3857 97.431C96.3857 97.54 96.4314 97.5958 96.4998 97.5958C96.5657 97.5958 96.6139 97.54 96.6139 97.431Z" fill="#263238"/>
<path d="M89.4754 97.5658C89.4348 97.5658 89.4019 97.5328 89.4019 97.4922V97.1145C89.4019 97.074 89.4348 97.041 89.4754 97.041C89.5159 97.041 89.5489 97.074 89.5489 97.1145V97.4922C89.5489 97.5353 89.5159 97.5683 89.4754 97.5658Z" fill="#263238"/>
<path d="M89.8048 97.5697C89.7643 97.5697 89.7313 97.5367 89.7313 97.4962V97.1184C89.7313 97.0779 89.7643 97.0449 89.8048 97.0449C89.8454 97.0449 89.8783 97.0779 89.8783 97.1184V97.4962C89.8783 97.5367 89.8454 97.5697 89.8048 97.5697Z" fill="#263238"/>
<path d="M105.517 96.6954L89.4323 96.6574C89.3462 96.6574 89.2777 96.589 89.2777 96.5028C89.2777 96.4166 89.3462 96.3481 89.4323 96.3481L105.517 96.3862C105.603 96.3862 105.672 96.4546 105.672 96.5408C105.674 96.627 105.603 96.6954 105.517 96.6954Z" fill="#EEF2E6"/>
<path d="M95.3462 96.6726L89.4345 96.6574C89.3483 96.6574 89.2799 96.589 89.2799 96.5028C89.2799 96.4166 89.3483 96.3481 89.4345 96.3481L95.3462 96.3634C95.4197 96.3634 95.4805 96.4242 95.4805 96.4977V96.5383C95.4805 96.6143 95.4197 96.6726 95.3462 96.6726Z" fill="#B2C9A7"/>
<path d="M95.6378 96.5183C95.6378 96.6805 95.506 96.8123 95.3412 96.8123C95.1789 96.8123 95.0471 96.6805 95.0471 96.5157C95.0471 96.3535 95.1789 96.2217 95.3437 96.2217C95.5059 96.2217 95.6378 96.3535 95.6378 96.5183Z" fill="#B2C9A7"/>
<path d="M105.545 99.5475C105.545 99.583 101.95 99.6058 97.5187 99.5931C93.085 99.583 89.4904 99.545 89.4904 99.5069C89.4904 99.4714 93.085 99.4486 97.5187 99.4613C101.952 99.474 105.545 99.512 105.545 99.5475Z" fill="#263238"/>
<path d="M105.542 101.134C105.542 101.169 101.947 101.192 97.5163 101.179C93.0825 101.169 89.4879 101.131 89.4879 101.093C89.4879 101.058 93.0825 101.035 97.5163 101.047C101.947 101.06 105.542 101.098 105.542 101.134Z" fill="#263238"/>
<path d="M105.537 102.721C105.537 102.757 101.942 102.78 97.5113 102.767C93.0775 102.757 89.4829 102.719 89.4829 102.681C89.4829 102.645 93.0775 102.622 97.5113 102.635C101.945 102.648 105.537 102.686 105.537 102.721Z" fill="#263238"/>
<path d="M105.397 33.5977L102.398 33.585C101.995 33.5825 101.668 33.9222 101.666 34.3405L101.663 34.8829C101.661 35.3012 101.334 35.6409 100.931 35.6384L95.0824 35.6105C94.6794 35.608 94.3549 35.2683 94.3574 34.8475L94.36 34.305C94.3625 33.8867 94.038 33.5445 93.635 33.5419L92.5804 33.5369L89.9541 33.5242C88.6512 33.5191 87.589 34.5686 87.5839 35.8691L87.4242 73.6228C87.4191 74.9233 88.4712 75.9804 89.7742 75.9854L105.215 76.0564C106.518 76.0615 107.58 75.012 107.585 73.7115L107.745 35.9578C107.752 34.6624 106.7 33.6028 105.397 33.5977Z" fill="white"/>
<path d="M105.397 33.5966C105.415 33.5966 105.435 33.5991 105.478 33.5991C105.532 33.6042 105.613 33.5991 105.717 33.6194C105.925 33.6447 106.241 33.7132 106.599 33.9261C106.954 34.134 107.349 34.5016 107.582 35.0669C107.699 35.3483 107.76 35.6753 107.755 36.0226C107.755 36.3699 107.752 36.74 107.752 37.1329C107.742 40.2738 107.724 44.814 107.704 50.4239C107.681 56.0364 107.656 62.7187 107.626 70.1361C107.623 71.0639 107.618 72.0018 107.613 72.9525C107.598 73.424 107.656 73.9132 107.509 74.3822C107.438 74.6129 107.331 74.836 107.197 75.0388C107.058 75.239 106.888 75.419 106.695 75.5711C106.31 75.8728 105.826 76.0604 105.329 76.0756C104.837 76.0857 104.345 76.0756 103.848 76.0756C102.857 76.0705 101.858 76.0654 100.847 76.0629C98.8291 76.0528 96.7732 76.0452 94.6894 76.035C93.6475 76.0299 92.5981 76.0249 91.541 76.0198C91.0137 76.0173 90.4813 76.0147 89.9515 76.0122C89.4192 76.0376 88.8665 75.8956 88.4229 75.5863C87.9768 75.2796 87.6472 74.8157 87.4926 74.2985C87.4115 74.0425 87.3962 73.7687 87.3962 73.5026C87.3962 73.2364 87.3988 72.9727 87.3988 72.7091C87.4038 71.652 87.4089 70.6025 87.4114 69.5581C87.4216 67.4718 87.4292 65.4184 87.4368 63.398C87.4545 59.3598 87.4723 55.466 87.4875 51.7548C87.5052 48.0435 87.5205 44.5199 87.5357 41.2193C87.5433 39.569 87.5509 37.9771 87.5585 36.4434C87.5686 36.0631 87.5331 35.6778 87.632 35.3077C87.7233 34.9427 87.8982 34.5979 88.1441 34.3216C88.3874 34.0427 88.6916 33.8247 89.0262 33.6828C89.3609 33.5433 89.7234 33.4926 90.0757 33.5002C90.7779 33.5028 91.4624 33.5079 92.1291 33.5104C92.4637 33.5129 92.7932 33.5129 93.1177 33.5155C93.28 33.5155 93.4422 33.518 93.6019 33.518C93.7642 33.5129 93.9289 33.5636 94.0608 33.66C94.19 33.7563 94.2889 33.8932 94.3371 34.0427C94.3903 34.1948 94.3751 34.3571 94.3776 34.5066C94.3802 34.6587 94.3675 34.8159 94.3852 34.9604C94.4055 35.1074 94.474 35.2443 94.5703 35.3533C94.6666 35.4623 94.7984 35.5384 94.9379 35.5713C95.0773 35.5992 95.2269 35.584 95.3688 35.5891C95.6578 35.5916 95.9417 35.5916 96.218 35.5942C97.3334 35.5992 98.3703 35.6068 99.3234 35.6119C99.8 35.6144 100.256 35.617 100.692 35.6195C100.801 35.617 100.91 35.6246 101.014 35.6144C101.118 35.6018 101.217 35.5663 101.303 35.5105C101.476 35.4015 101.595 35.2215 101.633 35.0339C101.666 34.8438 101.645 34.6486 101.653 34.4661C101.645 34.2836 101.666 34.0934 101.76 33.9413C101.846 33.7892 101.985 33.6726 102.14 33.6143C102.294 33.551 102.459 33.5712 102.606 33.5687C103.21 33.5712 103.722 33.5763 104.135 33.5788C104.938 33.5915 105.309 33.594 105.397 33.5966C105.309 33.5966 104.938 33.5966 104.137 33.5966C103.724 33.5966 103.212 33.594 102.609 33.5915C102.459 33.594 102.297 33.5738 102.147 33.6371C101.998 33.6929 101.863 33.807 101.777 33.9565C101.686 34.1061 101.666 34.2861 101.673 34.4712C101.666 34.6562 101.686 34.8463 101.653 35.0441C101.613 35.2393 101.493 35.4243 101.313 35.5359C101.225 35.5916 101.123 35.6297 101.014 35.6423C100.905 35.6525 100.799 35.6449 100.69 35.6474C100.254 35.6449 99.7975 35.6449 99.3209 35.6423C98.3652 35.6398 97.3284 35.6347 96.2155 35.6296C95.9367 35.6296 95.6527 35.6271 95.3663 35.6271C95.2218 35.622 95.0773 35.6373 94.9277 35.6094C94.7807 35.5764 94.6463 35.4953 94.5449 35.3838C94.4435 35.2722 94.3726 35.1277 94.3523 34.9756C94.332 34.821 94.3472 34.6714 94.3447 34.5168C94.3421 34.3622 94.3573 34.2075 94.3066 34.063C94.261 33.9185 94.1647 33.7867 94.0405 33.6954C93.7844 33.4952 93.4371 33.5788 93.1177 33.5586C92.7932 33.556 92.4637 33.556 92.1291 33.5535C91.4624 33.5509 90.7779 33.5484 90.0757 33.5459C89.7259 33.5383 89.371 33.5864 89.0415 33.7259C88.7144 33.8653 88.4153 34.0808 88.1745 34.3545C87.9311 34.6258 87.7638 34.9655 87.6726 35.3255C87.5737 35.6854 87.6092 36.0707 87.6016 36.451C87.5965 37.9821 87.5889 39.5766 87.5838 41.2269C87.5712 44.5275 87.5559 48.0537 87.5407 51.7624C87.5255 55.4736 87.5103 59.3674 87.4926 63.4056C87.485 65.4235 87.4748 67.4794 87.4672 69.5657C87.4621 70.6076 87.4596 71.6596 87.4545 72.7167C87.4545 72.9803 87.452 73.2465 87.452 73.5102C87.452 73.7738 87.4672 74.0374 87.5458 74.2909C87.6954 74.7954 88.0198 75.2492 88.4559 75.5483C88.8919 75.85 89.4268 75.9894 89.9566 75.964C90.4889 75.9666 91.0188 75.9691 91.546 75.9716C92.6031 75.9767 93.6526 75.9818 94.6945 75.9869C96.7783 75.997 98.8342 76.0071 100.852 76.0147C101.861 76.0198 102.862 76.0249 103.853 76.0299C104.348 76.0299 104.842 76.0401 105.331 76.0299C105.818 76.0147 106.29 75.8322 106.667 75.5382C106.855 75.3886 107.02 75.2137 107.159 75.0159C107.291 74.8182 107.395 74.6002 107.463 74.3721C107.605 73.9158 107.552 73.429 107.565 72.955C107.57 72.0044 107.572 71.0664 107.577 70.1386C107.61 62.7187 107.641 56.0389 107.666 50.4264C107.694 44.8165 107.714 40.2763 107.732 37.1354C107.714 36.3572 107.821 35.6373 107.567 35.0745C107.337 34.5142 106.944 34.1441 106.594 33.9388C106.239 33.7259 105.925 33.6549 105.717 33.627C105.613 33.6067 105.532 33.6118 105.478 33.6042C105.435 33.5991 105.412 33.5966 105.397 33.5966Z" fill="#263238"/>
<path d="M105.106 39.0725C105.106 39.1105 101.846 39.1384 97.8232 39.1384C93.8001 39.1384 90.5401 39.108 90.5401 39.0725C90.5401 39.0345 93.8001 39.0066 97.8232 39.0066C101.846 39.0066 105.106 39.0345 105.106 39.0725Z" fill="#263238"/>
<path d="M104.455 63.3801H91.2169V72.572H104.455V63.3801Z" fill="#B2C9A7"/>
<path d="M77.875 42.829L73.3804 42.8265C72.7771 42.8265 72.2878 43.336 72.2878 43.9672V44.7835C72.2878 45.4147 71.7986 45.9242 71.1978 45.9242L62.4368 45.9192C61.8335 45.9192 61.3468 45.4071 61.3468 44.7784V43.9621C61.3468 43.3309 60.8575 42.8214 60.2567 42.8214H58.6774L54.7431 42.8188C52.7886 42.8188 51.2042 44.4007 51.2042 46.3552L51.1941 103.073C51.1941 105.025 52.7759 106.61 54.7279 106.61L77.8598 106.622C79.8142 106.622 81.3961 105.04 81.3986 103.086L81.4088 46.3678C81.4088 44.4134 79.8269 42.8315 77.875 42.829Z" fill="white"/>
<path d="M77.8749 42.8274C77.8749 42.8274 77.9154 42.8274 77.9965 42.8299C78.0777 42.8375 78.1993 42.8274 78.354 42.8578C78.6683 42.8958 79.1449 42.9972 79.6798 43.3166C79.951 43.4687 80.2248 43.6893 80.4859 43.9707C80.7445 44.252 80.9878 44.6044 81.1602 45.0252C81.3351 45.446 81.4289 45.9378 81.4239 46.46C81.4239 46.9822 81.4264 47.5374 81.4264 48.1281C81.4289 52.8406 81.434 59.6572 81.4391 68.0785C81.4416 76.5023 81.4416 86.5308 81.4441 97.6696C81.4441 99.0613 81.4441 100.471 81.4441 101.898C81.4441 102.255 81.4441 102.613 81.4441 102.97C81.4391 103.33 81.4163 103.7 81.3098 104.05C81.2084 104.4 81.0639 104.742 80.8586 105.046C80.6532 105.351 80.4073 105.627 80.1209 105.863C79.5454 106.324 78.8255 106.618 78.0777 106.656C77.3349 106.679 76.5998 106.661 75.8545 106.666C74.3664 106.666 72.8657 106.664 71.3498 106.664C68.3204 106.661 65.2353 106.661 62.1072 106.659C60.5431 106.659 58.9663 106.656 57.3794 106.656C56.5859 106.656 55.7899 106.656 54.9914 106.654C54.1903 106.694 53.3589 106.484 52.6896 106.017C52.0153 105.556 51.5185 104.856 51.2878 104.081C51.1636 103.695 51.1407 103.282 51.1407 102.884C51.1407 102.486 51.1407 102.088 51.1407 101.693C51.1407 100.106 51.1407 98.5289 51.1407 96.9648C51.1407 93.8341 51.1433 90.7516 51.1433 87.7197C51.1458 81.6585 51.1484 75.8128 51.1484 70.2434C51.1509 64.674 51.1534 59.3809 51.156 54.4301C51.1585 51.9534 51.1585 49.5629 51.161 47.2636C51.161 46.9772 51.161 46.6907 51.161 46.4068C51.1636 46.2648 51.1737 46.1203 51.1813 45.9784C51.2067 45.8364 51.2168 45.6945 51.2548 45.5576C51.3841 45.0049 51.6401 44.4853 51.9976 44.0594C52.3575 43.636 52.8113 43.2989 53.3082 43.0783C53.805 42.8527 54.3526 42.7741 54.8799 42.7817C55.9319 42.7817 56.9611 42.7843 57.9624 42.7843C58.4644 42.7843 58.9587 42.7843 59.4454 42.7868C59.6888 42.7868 59.9321 42.7868 60.1729 42.7868C60.4163 42.7741 60.6698 42.8426 60.8701 42.982C61.0703 43.1214 61.225 43.3242 61.3036 43.5499C61.3948 43.778 61.372 44.0214 61.3745 44.2495C61.3745 44.3636 61.3745 44.4802 61.3745 44.5943C61.3745 44.7083 61.3695 44.8224 61.3847 44.9314C61.4126 45.1494 61.5064 45.3598 61.6483 45.5221C61.7877 45.6869 61.9804 45.806 62.1883 45.8567C62.2922 45.8821 62.3961 45.8897 62.5077 45.8871C62.6167 45.8871 62.7257 45.8871 62.8347 45.8871C63.2682 45.8871 63.6915 45.8871 64.1098 45.8897C65.7829 45.8922 67.3394 45.8947 68.7717 45.8973C69.4891 45.8973 70.1735 45.8998 70.8276 45.8998C70.9898 45.8973 71.1546 45.9074 71.3092 45.8947C71.4638 45.877 71.6134 45.8237 71.7427 45.7426C72.0013 45.5804 72.1787 45.3142 72.2396 45.0303C72.2725 44.8883 72.2674 44.7438 72.2674 44.6019C72.2674 44.4599 72.2674 44.318 72.2674 44.1785C72.27 44.0416 72.2598 43.9022 72.2852 43.7653C72.308 43.631 72.3536 43.5017 72.4195 43.3876C72.5463 43.1544 72.7542 42.9795 72.9848 42.8882C73.2181 42.7868 73.464 42.8172 73.687 42.8122C74.5946 42.8147 75.3601 42.8172 75.9812 42.8172C76.5998 42.8198 77.0738 42.8223 77.3907 42.8223C77.7101 42.8248 77.8749 42.8274 77.8749 42.8274C77.8749 42.8274 77.7126 42.8299 77.3932 42.8324C77.0738 42.8324 76.6023 42.835 75.9837 42.8375C75.3627 42.8375 74.5971 42.8401 73.6896 42.8401C73.464 42.8451 73.2231 42.8172 73.0001 42.9161C72.777 43.0048 72.5767 43.1747 72.4525 43.4028C72.3891 43.5144 72.346 43.6411 72.3232 43.7704C72.2979 43.8997 72.308 44.0366 72.3055 44.176C72.3055 44.3154 72.3055 44.4548 72.3055 44.5993C72.3055 44.7413 72.3105 44.8909 72.2776 45.0379C72.2167 45.3294 72.0342 45.6083 71.7655 45.7781C71.6312 45.8618 71.4765 45.9175 71.3168 45.9378C71.152 45.953 70.9949 45.9429 70.8301 45.9454C70.1761 45.9454 69.4916 45.9454 68.7742 45.9454C67.3419 45.9454 65.7854 45.9454 64.1123 45.948C63.6941 45.948 63.2682 45.948 62.8372 45.948C62.7282 45.948 62.6192 45.948 62.5102 45.948C62.4012 45.9505 62.2871 45.9429 62.1781 45.915C61.9601 45.8618 61.7548 45.735 61.6078 45.5626C61.4557 45.3903 61.3593 45.1697 61.3289 44.939C61.3137 44.8224 61.3162 44.7083 61.3162 44.5943C61.3162 44.4802 61.3162 44.3661 61.3162 44.2495C61.3137 44.0188 61.334 43.7856 61.2478 43.5727C61.1717 43.3572 61.0272 43.1671 60.8371 43.0352C60.647 42.9034 60.4163 42.8426 60.178 42.8527C59.9372 42.8527 59.6964 42.8527 59.4505 42.8527C58.9638 42.8527 58.4694 42.8527 57.9675 42.8527C56.9662 42.8527 55.937 42.8527 54.8849 42.8527C54.3627 42.8477 53.8304 42.9262 53.3411 43.1468C52.8544 43.3623 52.4108 43.6918 52.0584 44.1076C51.7086 44.5258 51.4576 45.0328 51.3309 45.5753C51.2954 45.7097 51.2852 45.8491 51.2599 45.9885C51.2523 46.1279 51.2421 46.2674 51.2396 46.4093C51.2396 46.6933 51.2396 46.9797 51.2396 47.2662C51.2396 49.5654 51.2396 51.9559 51.2421 54.4326C51.2421 59.386 51.2421 64.6791 51.2447 70.2459C51.2447 75.8153 51.2447 81.661 51.2447 87.7222C51.2447 90.7515 51.2447 93.8366 51.2447 96.9674C51.2447 98.5315 51.2447 100.108 51.2447 101.695C51.2447 102.093 51.2447 102.489 51.2447 102.887C51.2447 103.282 51.2675 103.678 51.3892 104.055C51.6148 104.808 52.0964 105.488 52.753 105.936C53.407 106.387 54.2056 106.595 54.999 106.555C55.7975 106.555 56.5935 106.555 57.387 106.557C58.9739 106.557 60.5507 106.56 62.1148 106.56C65.243 106.562 68.328 106.565 71.3574 106.565C72.8733 106.565 74.374 106.567 75.8621 106.567C76.6048 106.562 77.3476 106.58 78.0777 106.557C78.8052 106.522 79.5049 106.235 80.0651 105.787C80.3414 105.556 80.5848 105.287 80.7825 104.991C80.9828 104.694 81.1222 104.362 81.2236 104.02C81.3301 103.678 81.3529 103.323 81.3554 102.968C81.3554 102.61 81.3554 102.253 81.3554 101.895C81.3554 100.471 81.3554 99.0613 81.3579 97.667C81.363 86.5308 81.3706 76.4998 81.3757 68.076C81.3833 59.6522 81.3909 52.8356 81.396 48.1255C81.396 47.5374 81.3985 46.9797 81.3985 46.4575C81.4036 45.9378 81.3123 45.4511 81.1399 45.0328C80.9701 44.6146 80.7318 44.2647 80.4758 43.9833C80.2172 43.702 79.946 43.4839 79.6772 43.3293C79.1449 43.0099 78.6708 42.9034 78.359 42.8629C78.2019 42.8324 78.0827 42.8401 78.0016 42.8299C77.9154 42.8324 77.8749 42.8274 77.8749 42.8274Z" fill="#263238"/>
<path d="M78.5925 48.9402C78.5925 48.9554 78.0094 48.9732 77.287 48.9782C76.567 48.9833 75.9814 48.9757 75.9814 48.9605C75.9814 48.9453 76.5645 48.9275 77.287 48.9225C78.0094 48.9174 78.5925 48.925 78.5925 48.9402Z" fill="#263238"/>
<path d="M78.6001 49.607C78.6001 49.6222 78.0171 49.6399 77.2946 49.645C76.5747 49.6501 75.9891 49.6425 75.9891 49.6273C75.9891 49.6121 76.5721 49.5943 77.2946 49.5892C78.0145 49.5867 78.5976 49.5918 78.6001 49.607Z" fill="#263238"/>
<path d="M78.6052 50.2761C78.6052 50.2914 78.0221 50.3091 77.2997 50.3142C76.5797 50.3192 75.9941 50.3116 75.9941 50.2964C75.9941 50.2812 76.5772 50.2635 77.2997 50.2584C78.0196 50.2533 78.6052 50.2609 78.6052 50.2761Z" fill="#263238"/>
<path d="M53.7522 50.7024C53.7522 50.7024 53.7725 50.6999 53.8055 50.6999C53.8486 50.6973 53.8967 50.6973 53.9576 50.6948C54.0995 50.6923 54.2871 50.6872 54.5153 50.6821L54.5 50.6973C54.4975 50.5731 54.495 50.4388 54.4924 50.2943C54.4924 50.2182 54.4848 50.1472 54.4924 50.0611C54.5077 49.9749 54.5837 49.8988 54.68 49.8887C54.7688 49.8861 54.8499 49.8836 54.9462 49.8861C55.0476 49.8988 55.1313 49.9951 55.1287 50.1016C55.1313 50.2892 55.1338 50.4869 55.1363 50.6923L55.111 50.6669C55.3366 50.6644 55.5724 50.6619 55.8132 50.6593L55.7853 50.6872C55.7828 50.4033 55.7802 50.1118 55.7777 49.8101C55.7777 49.734 55.7752 49.6605 55.7752 49.587C55.7752 49.5186 55.7321 49.4729 55.6763 49.4197C55.5724 49.3183 55.4684 49.2169 55.3696 49.1155C55.2682 49.0166 55.1693 48.9178 55.073 48.824C55.0248 48.7758 54.9766 48.7276 54.9285 48.682C54.8803 48.6339 54.8397 48.5857 54.784 48.573C54.7282 48.5578 54.6674 48.5705 54.6217 48.6034C54.5786 48.6389 54.533 48.6896 54.4899 48.7327C54.4037 48.8189 54.3201 48.9051 54.2364 48.9862C54.0767 49.151 53.9119 49.3006 53.7928 49.4451C53.7421 49.5236 53.7598 49.62 53.7573 49.7087C53.7573 49.7949 53.7573 49.8785 53.7573 49.9571C53.7573 50.1092 53.7548 50.241 53.7548 50.3551C53.7548 50.4565 53.7522 50.5402 53.7522 50.6112C53.7548 50.6695 53.7548 50.6999 53.7522 50.7024C53.7497 50.7049 53.7497 50.6745 53.7472 50.6188C53.7446 50.5503 53.7421 50.4667 53.7395 50.3678C53.737 50.2537 53.7345 50.1194 53.7294 49.9647C53.7269 49.8861 53.7269 49.7999 53.7243 49.7112C53.7243 49.6656 53.7218 49.62 53.7218 49.5718C53.7218 49.5211 53.7345 49.4704 53.7598 49.4248C53.8891 49.2651 54.0463 49.1231 54.206 48.9558C54.2871 48.8721 54.3708 48.7885 54.457 48.6998C54.5026 48.6567 54.5381 48.611 54.5938 48.5654C54.6496 48.5223 54.7282 48.5071 54.7966 48.5248C54.8727 48.5426 54.9209 48.6034 54.9665 48.6465C55.0147 48.6922 55.0628 48.7403 55.111 48.7885C55.2073 48.8848 55.3087 48.9811 55.4076 49.08C55.509 49.1789 55.6104 49.2803 55.7168 49.3817C55.7422 49.407 55.7701 49.4298 55.7954 49.4679C55.8182 49.5034 55.8309 49.5439 55.8335 49.587C55.8335 49.6605 55.836 49.7366 55.836 49.8101C55.8385 50.1092 55.8411 50.4033 55.8436 50.6872V50.7151H55.8157C55.5724 50.7176 55.3391 50.7176 55.1135 50.7202H55.0882V50.6948C55.0882 50.4895 55.0856 50.2943 55.0856 50.1042C55.0882 50.018 55.0223 49.9444 54.9437 49.9343C54.8626 49.9292 54.7662 49.9318 54.6876 49.9343C54.6116 49.9394 54.5482 50.0002 54.5355 50.0712C54.5279 50.1422 54.533 50.2233 54.533 50.2968C54.533 50.4413 54.533 50.5782 54.533 50.6999V50.7151H54.5178C54.2846 50.7126 54.097 50.7125 53.95 50.71C53.8916 50.71 53.8435 50.7075 53.8029 50.7075C53.77 50.7049 53.7522 50.7024 53.7522 50.7024Z" fill="#263238"/>
<path d="M60.594 86.8999H55.197V92.2969H60.594V86.8999Z" fill="#B2C9A7"/>
<path d="M70.9774 87.4828C70.9774 87.5082 69.1725 87.5285 66.9468 87.5285C64.7211 87.5285 62.9161 87.5082 62.9161 87.4828C62.9161 87.4575 64.7211 87.4372 66.9468 87.4372C69.1725 87.4347 70.9774 87.4575 70.9774 87.4828Z" fill="#B2C9A7"/>
<path d="M77.4039 89.1386C77.4039 89.164 74.1591 89.1843 70.1589 89.1843C66.1561 89.1843 62.9139 89.164 62.9139 89.1386C62.9139 89.1133 66.1561 89.093 70.1589 89.093C74.1617 89.093 77.4039 89.1133 77.4039 89.1386Z" fill="#263238"/>
<path d="M77.2337 90.3183C77.2337 90.3437 74.0269 90.364 70.0749 90.364C66.1203 90.364 62.916 90.3437 62.916 90.3183C62.916 90.293 66.1203 90.2727 70.0749 90.2727C74.0295 90.2727 77.2337 90.293 77.2337 90.3183Z" fill="#263238"/>
<path d="M71.3702 91.4431C71.3702 91.4684 69.4766 91.4887 67.1444 91.4887C64.8097 91.4887 62.916 91.4684 62.916 91.4431C62.916 91.4177 64.8071 91.3975 67.1444 91.3975C69.4766 91.3975 71.3702 91.4177 71.3702 91.4431Z" fill="#263238"/>
<g opacity="0.3">
<path d="M60.594 86.8999H55.197V92.2969H60.594V86.8999Z" fill="black"/>
</g>
<path d="M60.5944 95.6833H55.1974V101.08H60.5944V95.6833Z" fill="#B2C9A7"/>
<path d="M70.9775 96.2702C70.9775 96.2956 69.1726 96.3159 66.9468 96.3159C64.7211 96.3159 62.9162 96.2956 62.9162 96.2702C62.9162 96.2449 64.7211 96.2246 66.9468 96.2246C69.1726 96.2246 70.9775 96.2449 70.9775 96.2702Z" fill="#B2C9A7"/>
<path d="M77.4041 97.917C77.4041 97.9423 74.1593 97.9626 70.1591 97.9626C66.1563 97.9626 62.9141 97.9423 62.9141 97.917C62.9141 97.8916 66.1563 97.8713 70.1591 97.8713C74.1619 97.8713 77.4041 97.8916 77.4041 97.917Z" fill="#263238"/>
<path d="M77.2337 99.101C77.2337 99.1264 74.0269 99.1466 70.0749 99.1466C66.1203 99.1466 62.916 99.1264 62.916 99.101C62.916 99.0757 66.1203 99.0554 70.0749 99.0554C74.0295 99.0528 77.2337 99.0757 77.2337 99.101Z" fill="#263238"/>
<path d="M71.3705 100.229C71.3705 100.254 69.4768 100.275 67.1446 100.275C64.8099 100.275 62.9163 100.254 62.9163 100.229C62.9163 100.204 64.8074 100.183 67.1446 100.183C69.4768 100.183 71.3705 100.204 71.3705 100.229Z" fill="#263238"/>
<g opacity="0.3">
<path d="M60.5944 95.6833H55.1974V101.08H60.5944V95.6833Z" fill="black"/>
</g>
<path d="M58.2315 58.3587L58.1619 70.8538L74.7864 70.9464L74.856 58.4514L58.2315 58.3587Z" fill="#B2C9A7"/>
<path d="M57.9451 70.8535L63.7958 63.1167L67.3651 67.9966L69.819 65.4134L74.5721 70.9448L57.9451 70.8535Z" fill="#B2C9A7"/>
<path d="M68.9237 62.1924C68.9186 62.9149 68.3305 63.4979 67.608 63.4929C66.8856 63.4878 66.3025 62.8997 66.3076 62.1772C66.3127 61.4547 66.9008 60.8717 67.6233 60.8767C68.3457 60.8818 68.9288 61.4699 68.9237 62.1924Z" fill="#B2C9A7"/>
<g opacity="0.2">
<path d="M57.9451 70.8535L63.7958 63.1167L67.3651 67.9966L69.819 65.4134L74.5721 70.9448L57.9451 70.8535Z" fill="black"/>
</g>
<g opacity="0.2">
<path d="M68.9237 62.1924C68.9186 62.9149 68.3305 63.4979 67.608 63.4929C66.8856 63.4878 66.3025 62.8997 66.3076 62.1772C66.3127 61.4547 66.9008 60.8717 67.6233 60.8767C68.3457 60.8818 68.9288 61.4699 68.9237 62.1924Z" fill="black"/>
</g>
<path d="M77.0769 73.3205C77.0769 73.356 72.2477 73.3865 66.293 73.3865C60.3357 73.3865 55.5091 73.356 55.5091 73.3205C55.5091 73.2851 60.3357 73.2546 66.293 73.2546C72.2477 73.2546 77.0769 73.2851 77.0769 73.3205Z" fill="#263238"/>
<path d="M77.0769 74.7251C77.0769 74.7606 72.2477 74.791 66.293 74.791C60.3357 74.791 55.5091 74.7606 55.5091 74.7251C55.5091 74.6896 60.3357 74.6592 66.293 74.6592C72.2477 74.6592 77.0769 74.6871 77.0769 74.7251Z" fill="#263238"/>
<path d="M69.8088 81.452H62.7767C61.7576 81.452 60.9337 80.6256 60.9337 79.6091C60.9337 78.59 61.7601 77.7661 62.7767 77.7661H69.8088C70.8278 77.7661 71.6517 78.5925 71.6517 79.6091C71.6517 80.6281 70.8278 81.452 69.8088 81.452Z" fill="#B2C9A7"/>
<path d="M81.1047 83.2859C81.1047 83.3214 74.4579 83.3518 66.2597 83.3518C58.059 83.3518 51.4122 83.3214 51.4122 83.2859C51.4122 83.2504 58.059 83.22 66.2597 83.22C74.4579 83.22 81.1047 83.2479 81.1047 83.2859Z" fill="#EEF2E6"/>
<path d="M72.4123 55.3142C72.4123 55.3497 69.672 55.3801 66.2954 55.3801C62.9162 55.3801 60.1759 55.3497 60.1759 55.3142C60.1759 55.2787 62.9137 55.2483 66.2954 55.2483C69.672 55.2483 72.4123 55.2787 72.4123 55.3142Z" fill="#B2C9A7"/>
<path d="M73.6366 79.6093C73.6366 79.8298 73.4566 80.0098 73.2361 80.0098C73.0156 80.0098 72.8356 79.8298 72.8356 79.6093C72.8356 79.3887 73.0156 79.2087 73.2361 79.2087C73.4566 79.2087 73.6366 79.3887 73.6366 79.6093Z" fill="#B2C9A7"/>
<path d="M89.858 53.1845C89.858 53.187 89.8251 53.1896 89.7592 53.1921C89.6882 53.1946 89.5944 53.1946 89.4702 53.1972C89.2091 53.1997 88.8364 53.2048 88.3573 53.2099C87.3813 53.2149 85.9694 53.2225 84.2101 53.2301L84.2557 53.187C84.2532 57.0707 84.2506 62.7389 84.2456 69.0384C84.2354 72.9017 84.2253 76.5293 84.2151 79.6119V79.6702H84.1568C80.8892 79.6601 78.159 79.6524 76.24 79.6474C75.2894 79.6398 74.539 79.6347 74.0194 79.6322C73.7684 79.6296 73.5732 79.6246 73.4338 79.6246C73.3704 79.622 73.3222 79.622 73.2842 79.6195C73.2513 79.617 73.2335 79.617 73.2335 79.6144C73.2335 79.6119 73.2513 79.6119 73.2842 79.6093C73.3222 79.6093 73.3729 79.6068 73.4338 79.6043C73.5732 79.6017 73.7684 79.5992 74.0194 79.5967C74.539 79.5941 75.2894 79.5865 76.24 79.5815C78.159 79.5764 80.8892 79.5688 84.1568 79.5587L84.0985 79.617C84.1011 76.5319 84.1061 72.9068 84.1112 69.0435C84.1315 62.744 84.1518 57.0757 84.1644 53.1921V53.1465H84.2075C85.9668 53.1541 87.3763 53.1617 88.3548 53.1668C88.8339 53.1718 89.2091 53.1769 89.4677 53.1794C89.5893 53.182 89.6857 53.1845 89.7566 53.1845C89.8251 53.1794 89.858 53.182 89.858 53.1845Z" fill="#B2C9A7"/>
<path d="M97.8357 69.8799C98.897 69.8799 99.7572 69.0196 99.7572 67.9584C99.7572 66.8972 98.897 66.0369 97.8357 66.0369C96.7745 66.0369 95.9142 66.8972 95.9142 67.9584C95.9142 69.0196 96.7745 69.8799 97.8357 69.8799Z" fill="white"/>
<path d="M97.3643 67.9589V67.0945L98.1121 67.5254L98.8624 67.9589L98.1121 68.3924L97.3643 68.8259V67.9589Z" fill="#B2C9A7"/>
<path d="M91.0773 41.2291L91.0223 51.0928L104.146 51.1659L104.201 41.3022L91.0773 41.2291Z" fill="#517C3C"/>
<path d="M90.852 51.0921L95.4708 44.9878L98.2897 48.8385L100.226 46.7978L103.978 51.1656L90.852 51.0921Z" fill="#263238"/>
<path d="M99.5213 44.2589C99.5187 44.8292 99.0523 45.2906 98.4819 45.2855C97.9115 45.283 97.4502 44.8166 97.4552 44.2462C97.4578 43.6758 97.9242 43.2145 98.4946 43.2195C99.0624 43.2246 99.5238 43.6885 99.5213 44.2589Z" fill="#263238"/>
<path d="M102.713 53.0466H92.5529V53.726H102.713V53.0466Z" fill="#517C3C"/>
<path d="M104.919 55.6787C104.919 55.7167 101.656 55.7446 97.6355 55.7446C93.6124 55.7446 90.3524 55.7142 90.3524 55.6787C90.3524 55.6407 93.6124 55.6128 97.6355 55.6128C101.656 55.6128 104.919 55.6432 104.919 55.6787Z" fill="#263238"/>
<path d="M104.918 57.5386C104.918 57.5766 101.656 57.6045 97.6353 57.6045C93.6122 57.6045 90.3522 57.5741 90.3522 57.5386C90.3522 57.5005 93.6122 57.4727 97.6353 57.4727C101.656 57.4727 104.918 57.5031 104.918 57.5386Z" fill="#263238"/>
<path d="M104.918 59.4016C104.918 59.4396 101.656 59.4675 97.6354 59.4675C93.6124 59.4675 90.3524 59.4371 90.3524 59.4016C90.3524 59.3636 93.6124 59.3357 97.6354 59.3357C101.656 59.3357 104.918 59.3661 104.918 59.4016Z" fill="#263238"/>
<path d="M104.919 61.2607C104.919 61.2988 101.656 61.3266 97.6355 61.3266C93.6124 61.3266 90.3524 61.2962 90.3524 61.2607C90.3524 61.2227 93.6124 61.1948 97.6355 61.1948C101.656 61.1948 104.919 61.2252 104.919 61.2607Z" fill="#263238"/>
<path d="M90.2586 53.1845C90.2586 53.405 90.0786 53.585 89.858 53.585C89.6375 53.585 89.4575 53.405 89.4575 53.1845C89.4575 52.9639 89.6375 52.7839 89.858 52.7839C90.0786 52.7839 90.2586 52.9639 90.2586 53.1845Z" fill="#B2C9A7"/>
<path d="M98.2235 73.8215C98.2235 74.0116 98.0511 74.1637 97.8357 74.1637C97.6227 74.1637 97.4478 74.0116 97.4478 73.8215C97.4478 73.6313 97.6202 73.4792 97.8357 73.4792C98.0486 73.4792 98.2235 73.6313 98.2235 73.8215Z" fill="#B2C9A7"/>
<path d="M98.2235 82.8613C98.2235 83.0514 98.0511 83.2035 97.8357 83.2035C97.6227 83.2035 97.4478 83.0514 97.4478 82.8613C97.4478 82.6712 97.6202 82.5191 97.8357 82.5191C98.0486 82.5165 98.2235 82.6712 98.2235 82.8613Z" fill="#B2C9A7"/>
<path d="M97.8357 82.8611C97.8002 82.8611 97.7698 80.8382 97.7698 78.3412C97.7698 75.8442 97.8002 73.8213 97.8357 73.8213C97.8712 73.8213 97.9016 75.8442 97.9016 78.3412C97.9016 80.8356 97.8712 82.8611 97.8357 82.8611Z" fill="#B2C9A7"/>
<path d="M66.2573 52.1414C66.2548 52.1414 66.2523 52.1186 66.2523 52.073C66.2497 52.0223 66.2497 51.9539 66.2472 51.8702C66.2447 51.6851 66.2421 51.424 66.2371 51.0894C66.232 50.3999 66.2269 49.4112 66.2193 48.1742C66.2142 45.6823 66.2066 42.1992 66.1965 38.1913L66.2599 38.2547C64.858 38.2547 63.37 38.2572 61.8363 38.2572C56.7663 38.2496 52.1754 38.242 48.8444 38.237C47.1865 38.2294 45.8455 38.2218 44.9076 38.2167C44.4487 38.2116 44.0888 38.2066 43.8378 38.204C43.7212 38.2015 43.6299 38.1989 43.5589 38.1964C43.4956 38.1939 43.4651 38.1913 43.4651 38.1888C43.4651 38.1863 43.4981 38.1837 43.5589 38.1812C43.6274 38.1787 43.7212 38.1787 43.8378 38.1736C44.0913 38.1711 44.4487 38.166 44.9076 38.1609C45.8455 38.1558 47.1891 38.1482 48.8444 38.1406C52.1754 38.1356 56.7663 38.128 61.8363 38.1204C63.37 38.1204 64.858 38.1229 66.2599 38.1229H66.3232V38.1863C66.3131 42.1916 66.3055 45.6772 66.3004 48.1691C66.2928 49.4062 66.2852 50.3948 66.2827 51.0844C66.2776 51.419 66.2751 51.6801 66.2725 51.8651C66.27 51.9488 66.2675 52.0147 66.2675 52.0679C66.2624 52.1161 66.2599 52.1414 66.2573 52.1414Z" fill="#B2C9A7"/>
<path d="M66.6603 52.141C66.6603 52.3616 66.4803 52.5416 66.2598 52.5416C66.0392 52.5416 65.8593 52.3616 65.8593 52.141C65.8593 51.9205 66.0392 51.7405 66.2598 51.7405C66.4803 51.738 66.6603 51.918 66.6603 52.141Z" fill="#B2C9A7"/>
<path d="M43.8631 38.1908C43.8631 38.4114 43.6831 38.5913 43.4625 38.5913C43.242 38.5913 43.062 38.4114 43.062 38.1908C43.062 37.9703 43.242 37.7903 43.4625 37.7903C43.6831 37.7903 43.8631 37.9703 43.8631 38.1908Z" fill="#B2C9A7"/>
<path d="M36.0147 38.8581L37.2796 40.5033C37.2796 40.5033 37.8931 41.4489 37.414 41.6517C36.9932 41.8291 36.7194 41.2993 36.7194 41.2993C36.7194 41.2993 36.4532 40.0926 35.9285 40.3867C35.855 40.4273 35.9842 41.2841 36.0527 41.7201C36.078 41.8798 36.1642 42.0218 36.291 42.1206L37.6827 43.1853C37.9413 43.3831 38.248 43.5073 38.5699 43.5453L39.0643 43.6036L39.4699 44.4173L41.7159 43.5022L39.9287 41.1878L38.9679 39.72C38.8234 39.5932 38.6282 39.5451 38.4432 39.5932L38.2201 39.6515L38.0553 39.4842C37.9565 39.3854 37.812 39.3473 37.6776 39.3854L37.5407 39.4234L37.1656 39.0507C37.0413 38.9265 36.1845 38.1305 36.0248 38.199C36.0273 38.199 35.7029 38.4525 36.0147 38.8581Z" fill="#FFBE9D"/>
<path d="M38.5624 40.419C38.5548 40.4215 38.5269 40.3379 38.4331 40.2339C38.3419 40.1249 38.1847 40.0235 37.9641 39.9753C37.7918 39.8283 37.6777 39.6762 37.5915 39.5621C37.5104 39.4455 37.4749 39.3644 37.48 39.3619C37.485 39.3593 37.5281 39.4354 37.6143 39.5444C37.7005 39.6509 37.8323 39.808 37.9844 39.9399C38.0301 39.9551 38.0808 39.9652 38.1315 39.983C38.1796 40.0007 38.2253 40.0235 38.2658 40.0489C38.3469 40.0996 38.4103 40.1604 38.4534 40.2162C38.499 40.2719 38.5269 40.3226 38.5421 40.3607C38.5599 40.3962 38.5624 40.4164 38.5624 40.419Z" fill="#EB996E"/>
<path d="M38.8211 40.085C38.816 40.085 38.8033 40.0419 38.745 39.9963C38.6893 39.9506 38.5879 39.9152 38.4814 39.9506L38.4687 39.9532L38.4611 39.943C38.451 39.9329 38.4434 39.9228 38.4332 39.9126C38.2608 39.7276 38.1265 39.5704 38.1341 39.5628C38.1417 39.5552 38.2887 39.6997 38.4636 39.8847C38.4738 39.8949 38.4814 39.905 38.4915 39.9152L38.4713 39.9101C38.5929 39.8721 38.7121 39.9177 38.7653 39.9735C38.8211 40.0292 38.8287 40.085 38.8211 40.085Z" fill="#EB996E"/>
<path d="M36.2504 110.55L35.457 117.821L39.371 118.328L40.1822 111.047L36.2504 110.55Z" fill="#B2C9A7"/>
<path d="M37.4193 117.799C37.4522 117.802 37.6322 116.213 37.8223 114.245C38.0124 112.278 38.1392 110.684 38.1062 110.681C38.0733 110.679 37.8933 112.268 37.7032 114.235C37.5156 116.2 37.3863 117.797 37.4193 117.799Z" fill="#263238"/>
<path d="M35.5128 117.32L39.4268 117.814L39.3711 118.326L35.457 117.819L35.5128 117.32Z" fill="#263238"/>
<path d="M39.6294 115.998C39.6371 115.993 39.6092 115.932 39.5458 115.828C39.4824 115.724 39.381 115.58 39.2365 115.417C39.0895 115.255 38.8968 115.078 38.6484 114.925C38.4025 114.773 38.0958 114.649 37.7561 114.619C37.0767 114.548 36.4708 114.822 36.1565 115.123C35.9943 115.27 35.8878 115.415 35.8244 115.519C35.7636 115.623 35.7357 115.686 35.7433 115.689C35.7636 115.704 35.8853 115.455 36.2123 115.184C36.5291 114.91 37.102 114.669 37.7459 114.735C38.3873 114.799 38.8842 115.179 39.1782 115.476C39.4748 115.78 39.6117 116.01 39.6294 115.998Z" fill="#263238"/>
<g opacity="0.3">
<path d="M39.9517 113.12L39.863 113.921L35.9413 113.397L36.0073 112.793L39.9517 113.12Z" fill="black"/>
</g>
<path d="M30.6175 111.035L30.9268 118.343L34.8712 118.254L34.5772 110.931L30.6175 111.035Z" fill="#B2C9A7"/>
<path d="M32.8635 118.019C32.8965 118.016 32.8357 116.417 32.7267 114.445C32.6177 112.472 32.5036 110.875 32.4706 110.878C32.4377 110.88 32.4985 112.48 32.6075 114.452C32.7165 116.422 32.8306 118.019 32.8635 118.019Z" fill="#263238"/>
<path d="M30.9066 117.838L34.8511 117.737L34.8714 118.254L30.9269 118.342L30.9066 117.838Z" fill="#263238"/>
<path d="M34.7774 115.914C34.7824 115.909 34.7469 115.853 34.6684 115.759C34.5898 115.665 34.4681 115.538 34.2983 115.399C34.1284 115.262 33.9104 115.115 33.6417 115.001C33.3755 114.887 33.0536 114.811 32.7139 114.831C32.032 114.864 31.4743 115.224 31.2081 115.571C31.0687 115.741 30.985 115.901 30.9394 116.012C30.8938 116.127 30.8785 116.192 30.8861 116.195C30.909 116.205 30.9901 115.944 31.274 115.627C31.5452 115.31 32.0751 114.983 32.724 114.953C33.3679 114.92 33.9155 115.219 34.2501 115.467C34.5923 115.718 34.7622 115.926 34.7774 115.914Z" fill="#263238"/>
<g opacity="0.3">
<path d="M34.661 113.012L34.6939 113.815L30.7368 113.886L30.7114 113.28L34.661 113.012Z" fill="black"/>
</g>
<path d="M35.0362 94.9623L34.8816 74.9612H27.1093C27.1093 74.9612 26.4958 79.9247 26.7873 81.9274C27.0788 83.9275 29.1499 94.9927 29.1499 94.9927C29.1499 94.9927 29.8217 109.678 30.1513 113.453L35.0033 113.014L35.0362 94.9623Z" fill="#263238"/>
<path d="M39.7944 70.7429C39.7944 70.7429 42.2154 72.8064 42.7553 76.2895C43.2953 79.7701 41.6627 93.7024 41.6627 93.7024L40.2862 113.014H35.4875L35.6421 94.4198L34.8131 80.5686L34.2732 76.1881L39.7944 70.7429Z" fill="#263238"/>
<path d="M35.5356 93.4184C35.5305 93.4184 35.5229 93.3778 35.5153 93.2992C35.5077 93.2054 35.495 93.0913 35.4824 92.9544C35.4595 92.6325 35.4291 92.2041 35.3911 91.6819C35.3201 90.607 35.2339 89.1215 35.1579 87.4814C35.0818 85.8387 35.0311 84.3532 35.0134 83.2758C35.0058 82.7384 35.0032 82.3024 35.0083 82.0007C35.0108 81.8638 35.0159 81.7498 35.0185 81.6534C35.021 81.5748 35.0261 81.5317 35.0311 81.5317C35.0362 81.5317 35.0413 81.5723 35.0463 81.6534C35.0514 81.7472 35.0565 81.8613 35.0615 82.0007C35.0742 82.3227 35.0894 82.7536 35.1097 83.2733C35.1579 84.3684 35.2213 85.8438 35.2922 87.4763C35.3683 89.1063 35.4367 90.5842 35.4849 91.6793C35.5052 92.2016 35.5229 92.6325 35.5356 92.9544C35.5381 93.0913 35.5407 93.2054 35.5432 93.3017C35.5432 93.3778 35.5407 93.4184 35.5356 93.4184Z" fill="#517C3C"/>
<path d="M41.4016 94.5497C41.3991 94.57 41.1303 94.5345 40.6994 94.5041C40.2684 94.4737 39.6702 94.4635 39.0136 94.5244C38.3571 94.5852 37.7715 94.7094 37.3532 94.8184C36.9349 94.9274 36.6789 95.0111 36.6713 94.9933C36.6662 94.9781 36.9096 94.8615 37.3278 94.7297C37.7436 94.5953 38.3368 94.4585 39.0035 94.3951C39.6702 94.3342 40.2761 94.3596 40.7121 94.4154C41.143 94.4661 41.4067 94.5345 41.4016 94.5497Z" fill="#517C3C"/>
<path d="M33.7155 94.734C33.7079 94.7543 33.4822 94.6833 33.1096 94.6276C32.7369 94.5718 32.2147 94.5464 31.6494 94.6402C31.0841 94.7366 30.5974 94.9318 30.2653 95.1067C29.9307 95.2816 29.7431 95.4236 29.7279 95.4058C29.7178 95.3957 29.8901 95.2258 30.2197 95.0256C30.5467 94.8253 31.0461 94.6098 31.6292 94.511C32.2122 94.4146 32.7522 94.4527 33.1273 94.5363C33.5025 94.62 33.7205 94.7214 33.7155 94.734Z" fill="#517C3C"/>
<path d="M33.7636 94.9876C33.7788 95.0181 33.1552 95.3147 32.3339 95.5175C31.5125 95.7228 30.8256 95.7532 30.823 95.7203C30.818 95.6822 31.4923 95.5935 32.3035 95.3907C33.1147 95.1904 33.751 94.9496 33.7636 94.9876Z" fill="#517C3C"/>
<path d="M35.2821 81.3451C35.2872 81.3501 35.2238 81.4211 35.1047 81.5453C35.0464 81.6087 34.9678 81.6822 34.8765 81.7633C34.7853 81.847 34.6788 81.9383 34.5571 82.0346C34.3138 82.2273 34.0096 82.4478 33.642 82.6455C33.2744 82.8407 32.8561 83.0385 32.3618 83.1221L32.372 83.1196C32.2984 83.1373 32.2173 83.1551 32.1387 83.1753C31.1323 83.3959 30.1843 83.3148 29.5328 83.1652C29.2057 83.0917 28.9472 83.0055 28.7748 82.9371C28.6024 82.8686 28.5086 82.8204 28.5112 82.8128C28.5188 82.79 28.9015 82.9497 29.5505 83.0739C30.1969 83.1982 31.1247 83.2641 32.1083 83.0461C32.1869 83.0283 32.2655 83.008 32.3365 82.9928H32.339H32.3466C32.8029 82.9168 33.2263 82.7266 33.5862 82.5441C33.9487 82.3565 34.2529 82.1487 34.5014 81.9661C34.9957 81.5935 35.2669 81.3273 35.2821 81.3451Z" fill="#517C3C"/>
<path d="M36.9197 76.4108C36.9248 76.4133 36.94 76.4894 36.9704 76.6314C37.0008 76.786 37.0389 76.9862 37.087 77.2321C37.1859 77.762 37.3202 78.4895 37.4825 79.3641L37.4495 79.3235C38.0731 79.5593 38.7779 79.828 39.5358 80.1144L39.4623 80.1347C39.7944 79.7038 40.1493 79.2424 40.5143 78.7684C40.6005 78.6593 40.6842 78.5478 40.7678 78.4413L40.7552 78.4895C40.6386 77.4552 40.527 76.4843 40.4307 75.6351L40.5169 75.6782C40.015 75.9418 39.5156 76.0432 39.077 76.1396C38.6384 76.2283 38.2506 76.2866 37.9312 76.3271C37.6118 76.3677 37.3583 76.3905 37.1859 76.4057C37.011 76.4159 36.9248 76.4159 36.9197 76.4108C36.9146 76.4057 37.0135 76.3905 37.1808 76.3652C37.3684 76.3373 37.6143 76.3018 37.921 76.2562C38.2379 76.2055 38.6232 76.1396 39.0567 76.0432C39.4877 75.9418 39.9871 75.8278 40.456 75.5743L40.5321 75.5337L40.5422 75.6199C40.6436 76.4716 40.7577 77.44 40.8819 78.4743L40.8845 78.4996L40.8667 78.5199C40.7831 78.6289 40.6994 78.7379 40.6132 78.8469C40.2456 79.321 39.8907 79.7798 39.5587 80.2108L39.5282 80.2488L39.4851 80.231C38.7297 79.937 38.025 79.6632 37.4064 79.4224L37.376 79.4122L37.3709 79.3818C37.229 78.4895 37.1124 77.7467 37.0262 77.2068C36.9907 76.9634 36.9603 76.7657 36.9375 76.6136C36.9223 76.4767 36.9146 76.4083 36.9197 76.4108Z" fill="#517C3C"/>
<path d="M32.6482 77.1059C32.6533 77.1008 32.6508 77.1718 32.6482 77.3087C32.6432 77.4633 32.6356 77.6611 32.6254 77.907C32.6001 78.452 32.5646 79.2049 32.5215 80.1074L32.5189 80.1378L32.4911 80.153C31.9004 80.4597 31.2312 80.8096 30.5112 81.1847L30.4681 81.2075L30.4352 81.1721C30.0575 80.7817 29.6519 80.3634 29.2361 79.9324C29.1398 79.831 29.0435 79.7322 28.9471 79.6333L28.9294 79.613V79.5851C28.937 78.5458 28.9471 77.5673 28.9547 76.7105V76.6243L29.0359 76.6572C29.5302 76.86 30.0397 76.9158 30.4783 76.969C30.9219 77.0172 31.3097 77.04 31.6317 77.0552C31.9384 77.0679 32.1894 77.0755 32.3795 77.0831C32.5544 77.0958 32.6508 77.1008 32.6482 77.1059C32.6457 77.111 32.557 77.1211 32.3821 77.1262C32.2097 77.1313 31.9562 77.1363 31.6317 77.1313C31.3097 77.1262 30.9194 77.111 30.4707 77.0704C30.0245 77.0223 29.5175 76.9766 28.9902 76.7688L29.0713 76.7155C29.0688 77.5724 29.0663 78.5483 29.0637 79.5902L29.046 79.5446C29.1423 79.6435 29.2361 79.7423 29.335 79.8437C29.7507 80.2747 30.1513 80.6929 30.529 81.0859L30.4529 81.0732C31.1754 80.7031 31.8472 80.3609 32.4404 80.0592L32.4099 80.1048C32.4758 79.2176 32.5291 78.4799 32.5696 77.9425C32.5899 77.6915 32.6077 77.4887 32.6203 77.3315C32.6356 77.187 32.6432 77.111 32.6482 77.1059Z" fill="#517C3C"/>
<path d="M34.907 80.5161C34.8892 80.5187 34.8259 80.3083 34.7574 79.9559C34.6864 79.6035 34.618 79.1143 34.585 78.5667C34.5521 78.0192 34.5673 77.5248 34.5952 77.1674C34.6231 76.81 34.6611 76.592 34.6788 76.5945C34.7194 76.597 34.651 77.4767 34.7169 78.5617C34.7777 79.6416 34.945 80.506 34.907 80.5161Z" fill="#517C3C"/>
<path d="M41.4016 81.7171C41.4041 81.7247 41.3357 81.7576 41.2089 81.8109C41.0822 81.8641 40.8946 81.93 40.6588 81.9984C40.1873 82.1353 39.5105 82.257 38.7576 82.257C38.0047 82.2545 37.3279 82.1328 36.8563 81.9959C36.6206 81.9275 36.4305 81.8641 36.3063 81.8083C36.1795 81.7551 36.1111 81.7221 36.1136 81.7145C36.1212 81.6942 36.4077 81.7956 36.8792 81.9046C37.3507 82.0162 38.0174 82.1227 38.7576 82.1227C39.4978 82.1227 40.162 82.0162 40.636 81.9046C41.1075 81.7956 41.394 81.6942 41.4016 81.7171Z" fill="#517C3C"/>
<path d="M29.2969 50.0449C29.2969 50.0449 25.8012 51.9563 24.7745 52.405L26.1713 59.0898L28.3716 67.108L26.8963 75.5648C26.8963 75.5648 32.0829 76.4799 34.6255 76.1504C38.106 75.6991 42.5423 74.4189 42.5423 74.4189L39.0896 64.1091L39.9718 56.9908L38.4888 50.9905L34.8765 50.5621L29.2969 50.0449Z" fill="#B2C9A7"/>
<g opacity="0.3">
<path d="M27.6543 56.7295C27.8901 57.1985 28.43 57.4241 28.937 57.5635C29.444 57.7029 29.989 57.8043 30.3845 58.1491C31.0892 58.7626 31.0715 59.9134 31.7204 60.5852C32.1362 61.0162 32.8105 61.1784 33.3783 60.9857C33.7358 60.8641 34.0552 60.6106 34.4304 60.5751C34.6915 60.5497 34.9551 60.6334 35.2162 60.6131C35.9564 60.5599 36.3874 59.7791 36.6814 59.0997C36.9882 58.395 37.3 57.6522 37.2239 56.8892C37.1124 55.7459 36.1618 54.8232 36.0147 53.6849C35.9615 53.2641 36.0223 52.8332 35.9767 52.4098C35.9311 51.9865 35.7435 51.5378 35.3556 51.3604" fill="black"/>
</g>
<path d="M41.5917 49.2312L38.8843 43.8139L41.0593 42.4197C41.0593 42.4197 43.7768 45.2234 44.294 45.7684C44.294 45.7684 47.4222 48.6532 46.6059 50.045C45.9113 51.2288 44.8111 52.1439 44.8111 52.1439L41.5917 49.2312Z" fill="#B2C9A7"/>
<path d="M24.7745 52.4053C24.7263 52.5472 17.494 62.5503 17.1086 63.6125C17.0884 63.6708 17.0655 63.7317 17.0478 63.795C16.6168 65.1791 16.987 66.69 17.9553 67.7699L23.9176 74.4218L26.5236 71.4076L22.3764 64.0992L26.336 59.7238L24.7745 52.4053Z" fill="#B2C9A7"/>
<path d="M29.3071 71.8535C29.0662 71.8687 28.6252 72.2033 28.4274 72.3605C28.3615 72.4137 28.2804 72.439 28.1993 72.4314C28.0624 72.4213 27.9458 72.3275 27.9052 72.1957L27.6466 71.3262C27.3855 71.349 27.1523 71.496 27.018 71.7216L26.7315 72.2134L26.2372 71.7368L23.9177 74.3859C23.9177 74.3859 24.8303 75.372 25.4108 75.3872C25.9913 75.4025 28.7113 73.1666 28.7113 73.1666L29.4338 72.5303C29.4338 72.5328 30.0169 71.8104 29.3071 71.8535Z" fill="#FFBE9D"/>
<path d="M36.8233 50.7952L38.8741 50.8865L41.797 48.6506L45.9341 50.9195C45.9341 50.9195 44.0734 52.912 42.3192 54.9526C40.8996 56.6029 39.8907 57.6347 39.8907 57.6347L36.8233 50.7952Z" fill="#B2C9A7"/>
<path d="M38.7499 68.4091C38.755 68.4167 38.6511 68.5257 38.4559 68.7209C38.2632 68.9161 37.9691 69.1873 37.5965 69.5118C36.8537 70.1583 35.7688 70.9923 34.4734 71.7654C33.178 72.5361 31.9308 73.0988 31.008 73.4461C30.5467 73.6211 30.1689 73.7503 29.9053 73.8264C29.6417 73.905 29.4946 73.9455 29.4921 73.9379C29.4896 73.9303 29.6315 73.872 29.8901 73.7782C30.1487 73.687 30.5213 73.545 30.9751 73.36C31.8851 72.9924 33.1197 72.422 34.4075 71.6539C35.6927 70.8833 36.7802 70.0695 37.5357 69.4434C37.9134 69.1316 38.215 68.8705 38.4204 68.6854C38.6257 68.5004 38.7423 68.4015 38.7499 68.4091Z" fill="#263238"/>
<path d="M31.5683 67.228C31.5987 67.2483 30.8712 68.4296 29.9409 69.867C29.0105 71.3043 28.2323 72.4552 28.2018 72.4349C28.1714 72.4147 28.899 71.2333 29.8293 69.796C30.7571 68.3561 31.5379 67.2078 31.5683 67.228Z" fill="#263238"/>
<path d="M39.6449 57.085C39.6246 57.0825 39.6296 56.7909 39.6119 56.3169C39.5941 55.8428 39.5561 55.1888 39.4902 54.4714C39.4218 53.7515 39.3381 53.1025 39.2494 52.6386C39.1657 52.1722 39.0669 51.8984 39.0872 51.8908C39.1024 51.8832 39.2342 52.1544 39.3407 52.6209C39.4547 53.0848 39.5511 53.7363 39.622 54.4613C39.6879 55.1837 39.7133 55.8428 39.7057 56.3194C39.7006 56.7935 39.6626 57.0875 39.6449 57.085Z" fill="#263238"/>
<path d="M44.626 48.8586C44.6159 48.8763 44.441 48.78 44.1495 48.6634C43.8579 48.5468 43.4371 48.4124 42.9606 48.4023C42.4814 48.3871 42.0606 48.5113 41.7944 48.6735C41.5257 48.8332 41.3965 48.9853 41.3787 48.9701C41.3686 48.9625 41.475 48.7851 41.7437 48.595C42.0099 48.4023 42.4637 48.2527 42.9631 48.2705C43.465 48.2806 43.8985 48.4378 44.1875 48.5772C44.479 48.7217 44.6362 48.8459 44.626 48.8586Z" fill="#263238"/>
<path d="M43.3054 47.7028C43.313 47.751 42.7274 47.6876 42.1671 48.0501C41.612 48.4177 41.4193 48.9703 41.3788 48.9424C41.3636 48.9373 41.3965 48.8005 41.5004 48.5977C41.6044 48.3974 41.7996 48.1338 42.0962 47.9386C42.3928 47.7459 42.7147 47.6749 42.9403 47.6648C43.1685 47.6572 43.3079 47.6876 43.3054 47.7028Z" fill="#263238"/>
<g opacity="0.3">
<path d="M31.7964 66.0111C31.7584 65.7754 31.6038 65.5193 31.3655 65.5092C31.0917 65.4965 30.9193 65.7931 30.8128 66.0466C29.9712 68.0467 29.1321 70.0468 28.2905 72.0469L28.2018 72.4373C29.2209 70.8225 30.2298 69.2737 31.2489 67.6589C31.5632 67.1544 31.8902 66.5942 31.7964 66.0111Z" fill="black"/>
</g>
<g opacity="0.3">
<path d="M41.3812 48.8689C41.6956 48.41 41.9643 47.8878 42.5093 47.7737C43.0543 47.6597 43.6399 47.7636 44.1114 48.0602C44.2154 48.1261 44.3269 48.2351 44.2889 48.3517C44.261 48.4379 44.1621 48.4785 44.0734 48.5013C43.5943 48.6179 43.0974 48.481 42.6082 48.4151C42.1189 48.3517 41.7412 48.5621 41.4167 48.9322" fill="black"/>
</g>
<path d="M25.9127 58.6588C25.8975 58.6639 25.7758 58.4028 25.611 57.9642C25.4488 57.5257 25.251 56.9096 25.0837 56.2125C24.919 55.5179 24.815 54.8766 24.7618 54.4127C24.7086 53.9488 24.6984 53.6572 24.7162 53.6572C24.7364 53.6547 24.777 53.9412 24.8556 54.4C24.9316 54.8588 25.0482 55.4926 25.213 56.1821C25.3778 56.8716 25.5603 57.4902 25.6997 57.9338C25.8417 58.3774 25.933 58.6512 25.9127 58.6588Z" fill="#263238"/>
<path d="M29.7025 52.0628L34.8333 52.1363L34.3542 47.4972C34.3542 47.4972 34.7345 47.6874 34.808 45.7886C34.884 43.8899 35.0589 40.6629 35.0589 40.6629C32.8839 39.6565 30.3362 39.9074 28.3995 41.3169L28.113 41.5248L29.7025 52.0628Z" fill="#FFBE9D"/>
<path d="M28.6456 43.8821C28.6126 43.8669 27.3502 43.4613 27.3578 44.7618C27.3629 46.0622 28.6684 45.7884 28.671 45.7504C28.671 45.7124 28.6456 43.8821 28.6456 43.8821Z" fill="#FFBE9D"/>
<path d="M34.7545 43.782C34.7874 43.7693 35.9535 43.488 35.8775 44.7859C35.8014 46.0838 34.5136 45.739 34.5136 45.701C34.5111 45.6655 34.7545 43.782 34.7545 43.782Z" fill="#FFBE9D"/>
<path d="M31.7051 38.393C31.7051 38.393 29.9332 38.3296 29.2994 38.6516C28.2474 39.189 27.4311 40.6872 27.4134 42.5403C27.3956 44.3908 28.2372 46.9055 29.596 48.1451C30.9548 49.3848 32.0296 49.6154 32.0296 49.6154C32.0296 49.6154 34.9068 48.0437 35.2288 45.7496C35.5507 43.4554 35.7687 41.2423 34.8713 40.1269C33.9739 39.0115 32.3566 38.4209 31.7051 38.393Z" fill="#263238"/>
<path d="M27.6542 43.7342C27.5503 42.558 27.4514 41.3412 27.8215 40.2207C28.1916 39.0977 29.1549 38.0837 30.3362 38.0406C30.7139 38.0254 31.0967 38.1116 31.4694 38.0457C31.7913 37.9899 32.0829 37.8277 32.3871 37.7085C32.9067 37.5032 33.4974 37.4221 34.0272 37.6071C34.5545 37.7897 34.9981 38.2789 35.0158 38.8366C35.0235 39.0648 34.9651 39.3056 35.0437 39.5185C35.1274 39.7391 35.3353 39.8836 35.4823 40.0661C35.713 40.3576 35.7789 40.7531 35.7434 41.1232C35.7054 41.4933 35.5735 41.8457 35.4443 42.1955C35.1223 43.0574 34.8004 43.9193 34.4784 44.7812" fill="#263238"/>
<path d="M30.6201 44.3934C31.2919 44.0639 32.1234 44.0867 32.7774 44.4467C33.4315 44.8092 33.8928 45.5012 33.9714 46.244C34.0551 47.0121 34.0551 47.1363 34.5519 47.7295C34.8587 48.0945 35.1553 48.0742 35.5152 48.386C35.9817 48.7916 36.1236 49.5243 35.8448 50.0744C36.7751 50.0313 37.6446 49.9704 37.964 50.845C36.5749 50.5585 35.1831 51.8565 33.794 51.57C33.3554 51.4787 32.8991 51.3824 32.5417 51.1112C32.131 50.8019 31.9079 50.3076 31.7001 49.8386C31.3274 48.9919 30.9548 48.1452 30.5821 47.296C30.3312 46.7256 30.0751 46.1324 30.0878 45.5088C30.1005 44.8852 30.4579 44.2236 31.0612 44.0664" fill="#263238"/>
<path d="M30.0599 45.2427C29.8038 44.4416 30.0878 43.529 30.7342 43.0778C31.3806 42.624 32.3388 42.662 33.0132 43.1665C33.5125 43.5417 33.8472 44.1729 33.7914 44.7762C33.7356 45.3796 33.2438 45.9068 32.6456 45.9195" fill="#B2C9A7"/>
<path d="M33.107 43.9828C32.2882 43.3135 31.0688 43.4529 30.4047 44.1171C29.7405 44.7813 29.6746 46.1476 29.8748 47.0653C30.0903 48.0514 30.6937 49.0071 30.4934 49.9958C30.3717 50.5991 29.9585 51.21 30.1968 51.7779C30.3895 52.2367 30.9345 52.437 31.2285 52.8375C31.662 53.4282 31.4465 54.2571 31.1576 54.9289C30.8686 55.6007 30.5086 56.3257 30.7114 57.0279C30.8686 57.5729 31.3274 57.9658 31.695 58.3993C32.0626 58.8328 32.3566 59.4412 32.1107 59.9533C32.5797 60.3031 33.2667 60.3284 33.7585 60.0141C34.2503 59.6998 34.519 59.066 34.3973 58.4931C34.6863 58.7897 34.8637 59.1928 34.884 59.606C35.68 59.535 36.4202 59.028 36.7751 58.3131C37.1275 57.5982 37.0793 56.6983 36.6509 56.0265C36.3366 55.5348 35.8296 55.1368 35.7231 54.5613C35.5963 53.8769 36.0907 53.2076 36.0273 52.5156C35.969 51.8945 35.4797 51.4052 34.9778 51.0351C34.4759 50.665 33.9156 50.3304 33.5912 49.798C33.0664 48.9361 33.3098 47.8385 33.5126 46.8498C33.7179 45.8663 33.8168 44.7002 33.107 43.9828Z" fill="#263238"/>
<path d="M30.1106 44.5859C29.4084 45.06 29.3628 46.0664 29.4591 46.908C29.5554 47.7496 29.6923 48.6952 29.1752 49.3644C28.8254 49.8156 28.217 50.0793 28.037 50.6218C27.819 51.2834 28.364 51.945 28.4248 52.6396C28.4705 53.1416 28.2601 53.6283 28.0167 54.0694C27.7759 54.5105 27.4945 54.9414 27.3753 55.4307C27.2587 55.9199 27.3424 56.4979 27.7328 56.8148C27.9787 57.015 28.3032 57.0835 28.615 57.1317C29.7354 57.304 30.8813 57.3015 31.9992 57.1215C32.3338 55.745 32.6684 54.3533 32.6684 52.9388C32.6659 50.1275 31.3376 47.4454 31.3021 44.6341" fill="#263238"/>
<path d="M32.0804 59.0099C32.0778 59.0125 32.0373 58.9694 31.9663 58.8832C31.8852 58.7869 31.7812 58.6601 31.652 58.5055C31.3832 58.1759 30.9726 57.7146 30.5467 57.0732C30.3363 56.7538 30.131 56.3786 30.0017 55.9401C29.8673 55.5091 29.8496 54.9844 30.0296 54.5002C30.1969 54.0135 30.4833 53.5597 30.7444 53.0831C30.9979 52.6091 31.2565 52.0793 31.1906 51.5165C31.1399 50.9537 30.7622 50.4873 30.5923 49.9524C30.5518 49.818 30.5239 49.6761 30.5163 49.5341C30.5163 49.3921 30.5366 49.2502 30.5822 49.1184C30.6785 48.8547 30.856 48.6494 31.0233 48.4593C31.1906 48.2717 31.3579 48.0942 31.4745 47.894C31.5937 47.6988 31.6469 47.4782 31.657 47.2602C31.6722 46.8217 31.543 46.4211 31.4339 46.0586C31.3224 45.6961 31.2286 45.3564 31.2185 45.0472C31.2058 44.7379 31.2793 44.4717 31.3756 44.2791C31.4745 44.0839 31.6013 43.9647 31.6951 43.9013C31.7888 43.838 31.8497 43.8228 31.8497 43.8228C31.8649 43.8354 31.6063 43.9165 31.4238 44.3019C31.3351 44.4895 31.2742 44.7455 31.292 45.0421C31.3097 45.3412 31.4035 45.6682 31.5227 46.0307C31.6367 46.3907 31.7787 46.7988 31.766 47.2653C31.7584 47.496 31.7027 47.7393 31.5734 47.9523C31.4492 48.1677 31.2768 48.3503 31.1145 48.5404C30.9523 48.728 30.785 48.9257 30.7013 49.1615C30.6608 49.2781 30.643 49.4048 30.643 49.5316C30.6481 49.6583 30.676 49.7876 30.714 49.9144C30.8712 50.4214 31.259 50.8903 31.3199 51.5038C31.3528 51.8029 31.3047 52.1046 31.2109 52.3784C31.1145 52.6522 30.9903 52.9057 30.8585 53.1465C30.5923 53.6281 30.3084 54.0743 30.1436 54.5433C29.9687 55.0072 29.9814 55.4914 30.1056 55.9122C30.2248 56.3355 30.4199 56.7056 30.6227 57.025C31.0309 57.6613 31.4339 58.1354 31.6874 58.4751C31.8167 58.6449 31.9181 58.7767 31.9815 58.868C32.0525 58.9567 32.0854 59.0074 32.0804 59.0099Z" fill="#517C3C"/>
<path d="M29.3172 49.2335C29.2944 49.2234 29.5073 48.8939 29.5884 48.2855C29.6315 47.9838 29.6417 47.6187 29.6315 47.2131C29.6214 46.8075 29.591 46.3563 29.6163 45.8797C29.6442 45.4057 29.7405 44.9469 29.9433 44.5742C30.1487 44.2066 30.4351 43.9405 30.714 43.7884C30.9928 43.6363 31.259 43.5957 31.4339 43.6084C31.5226 43.616 31.5886 43.6261 31.6342 43.6413C31.6798 43.654 31.7001 43.6616 31.7001 43.6667C31.6976 43.6794 31.6038 43.6565 31.4339 43.6591C31.2666 43.6616 31.0207 43.7148 30.7621 43.8669C30.5036 44.019 30.2374 44.2776 30.0523 44.6274C29.8673 44.9773 29.7786 45.4184 29.7507 45.8823C29.7253 46.3462 29.7507 46.7949 29.7557 47.2055C29.7608 47.6162 29.7405 47.9889 29.6848 48.2956C29.629 48.6023 29.5428 48.8432 29.4642 49.0003C29.3831 49.16 29.3248 49.2361 29.3172 49.2335Z" fill="#517C3C"/>
<path d="M36.7777 58.319C36.7726 58.3164 36.7853 58.2632 36.7954 58.1567C36.8081 58.0503 36.8081 57.8931 36.7929 57.6928C36.7549 57.2948 36.6611 56.7042 36.3924 56.04C36.2479 55.7181 36.0197 55.3809 35.8473 54.9855C35.7611 54.7877 35.6851 54.5723 35.6496 54.3416C35.609 54.1109 35.6242 53.865 35.6597 53.6242C35.6952 53.3833 35.751 53.1425 35.7814 52.8992C35.8144 52.6558 35.8093 52.4048 35.7662 52.1539C35.6775 51.6545 35.4265 51.1601 35.0336 50.79C34.6457 50.4123 34.1083 50.2425 33.7103 49.8673C33.3123 49.4946 33.1121 48.9877 33.0208 48.5111C32.927 48.0294 32.9422 47.563 32.9752 47.1371C33.0081 46.7087 33.0588 46.3158 33.0842 45.9558C33.107 45.5958 33.1121 45.2663 33.0715 44.9874C33.0309 44.706 32.9321 44.4779 32.8028 44.3258C32.5392 44.0165 32.273 44.0267 32.2831 44.0114C32.2831 44.0114 32.3414 44.0038 32.4454 44.0317C32.5493 44.0621 32.7014 44.1357 32.8408 44.2903C32.9828 44.4424 33.0969 44.6832 33.145 44.9722C33.1932 45.2612 33.1932 45.5933 33.178 45.9583C33.1602 46.3234 33.1146 46.7188 33.0867 47.1422C33.0588 47.5655 33.0487 48.0218 33.1425 48.4857C33.2312 48.9446 33.4264 49.4237 33.799 49.771C34.1666 50.1208 34.7066 50.2932 35.1249 50.6912C35.5381 51.0841 35.8017 51.6012 35.8955 52.1285C35.9411 52.3922 35.9462 52.6609 35.9082 52.9144C35.8752 53.1679 35.8169 53.4087 35.7814 53.6419C35.7434 53.8751 35.7307 54.1033 35.7637 54.3213C35.7966 54.5393 35.8651 54.7472 35.9462 54.9398C36.1084 55.3302 36.329 55.6598 36.476 56.002C36.7422 56.689 36.8182 57.2822 36.841 57.6878C36.8487 57.8931 36.841 58.0528 36.8208 58.1567C36.8157 58.21 36.798 58.2505 36.7929 58.2759C36.7853 58.3063 36.7802 58.319 36.7777 58.319Z" fill="#517C3C"/>
<path d="M35.7713 51.1524C35.7611 51.1448 35.8346 51.046 35.8828 50.8381C35.9284 50.6328 35.9487 50.3083 35.8296 49.9483C35.7054 49.596 35.4062 49.2132 34.9575 48.9926C34.7344 48.8938 34.4556 48.7695 34.268 48.5414C34.0753 48.3107 33.9689 48.042 33.8345 47.7707C33.5988 47.1953 33.6292 46.6021 33.6292 46.0926C33.6343 45.5805 33.6038 45.1166 33.467 44.7592C33.3351 44.3992 33.1247 44.1584 32.9574 44.0291C32.7876 43.8973 32.6684 43.8643 32.6735 43.8516C32.676 43.8466 32.7039 43.8542 32.7597 43.8719C32.8129 43.8922 32.894 43.9252 32.9853 43.9885C33.1704 44.1102 33.4036 44.3536 33.5531 44.7262C33.7078 45.0963 33.7483 45.578 33.7483 46.0926C33.7559 46.6046 33.7331 47.1826 33.9537 47.72C34.0804 47.9786 34.1945 48.2575 34.3643 48.4603C34.4505 48.5617 34.5519 48.6453 34.6635 48.7112C34.7725 48.7797 34.8916 48.8253 35.0133 48.8861C35.4899 49.132 35.7966 49.5402 35.9183 49.923C36.0324 50.3108 35.9943 50.6429 35.931 50.8558C35.9006 50.9623 35.8575 51.0384 35.827 51.0891C35.7941 51.1322 35.7738 51.155 35.7713 51.1524Z" fill="#517C3C"/>
<path d="M29.7025 44.2896C29.6974 44.3022 29.4794 44.211 29.1803 43.9778C28.8837 43.7471 28.5187 43.3542 28.255 42.837C27.9914 42.3199 27.8874 41.7951 27.8773 41.4174C27.8646 41.0397 27.9179 40.809 27.9305 40.8115C27.9534 40.8141 27.9331 41.0448 27.9686 41.4098C28.0041 41.7748 28.1181 42.2768 28.3716 42.7762C28.6277 43.2756 28.9648 43.6634 29.2386 43.9068C29.5174 44.1501 29.7152 44.2693 29.7025 44.2896Z" fill="#517C3C"/>
<path d="M29.4668 44.6333C29.4516 44.6637 29.0333 44.4888 28.5745 44.1694C28.1157 43.8525 27.8038 43.5204 27.8292 43.4951C27.8545 43.4672 28.1993 43.7511 28.6505 44.0604C29.0992 44.3772 29.4846 44.6003 29.4668 44.6333Z" fill="#517C3C"/>
<path d="M35.0184 41.3057C35.0488 41.3032 34.9931 42.0333 34.5621 42.8064C34.1388 43.5822 33.5506 44.0207 33.5354 43.9928C33.505 43.9624 34.0348 43.496 34.4455 42.7431C34.8638 41.9952 34.9778 41.2981 35.0184 41.3057Z" fill="#517C3C"/>
<path d="M35.4316 42.3139C35.4645 42.3215 35.3454 42.8893 35.0437 43.5357C34.7446 44.1822 34.3872 44.641 34.3593 44.6207C34.3263 44.5979 34.6305 44.1162 34.9246 43.48C35.2212 42.8462 35.3936 42.3037 35.4316 42.3139Z" fill="#517C3C"/>
<path d="M34.8334 39.0296C34.8131 39.0372 34.7396 38.8395 34.59 38.548C34.5114 38.4035 34.4049 38.2387 34.2478 38.0993C34.0906 37.9573 33.8751 37.861 33.6318 37.8661C33.1374 37.8737 32.7597 38.188 32.5265 38.4111C32.2882 38.6418 32.1488 38.7989 32.1336 38.7837C32.1209 38.7736 32.235 38.5987 32.4606 38.3452C32.5747 38.221 32.7217 38.0765 32.9169 37.9548C33.1121 37.8331 33.358 37.7368 33.6292 37.7342C33.903 37.7266 34.1616 37.8458 34.3264 38.008C34.4987 38.1677 34.6001 38.3502 34.6711 38.5049C34.808 38.8192 34.8486 39.0245 34.8334 39.0296Z" fill="#517C3C"/>
<path d="M34.3238 58.8406C34.3212 58.8431 34.2781 58.8076 34.2021 58.7367C34.126 58.6657 34.017 58.5567 33.8827 58.4096C33.7508 58.2626 33.5911 58.075 33.439 57.8342C33.292 57.5934 33.145 57.2892 33.1196 56.9241C33.1095 56.7416 33.1323 56.549 33.1931 56.3588C33.2565 56.1712 33.3503 55.9887 33.4542 55.8062C33.6596 55.4462 33.9156 55.0685 33.9283 54.6122C33.9511 54.1585 33.7813 53.6895 33.5303 53.2585C33.2768 52.825 32.9346 52.4245 32.6304 51.9707C32.3211 51.5221 32.1031 51.0125 32.027 50.5004C31.9434 49.9884 31.9586 49.489 32.0017 49.0225C32.0955 48.0871 32.2805 47.2633 32.3084 46.5611C32.3541 45.8589 32.2679 45.291 32.1487 44.9158C32.0296 44.5407 31.9104 44.3556 31.9231 44.348C31.9282 44.3455 31.9561 44.3911 32.0093 44.4824C32.0625 44.5736 32.1284 44.713 32.1969 44.9006C32.3312 45.2758 32.4352 45.8538 32.4022 46.5661C32.3845 47.2785 32.2096 48.1099 32.1234 49.0352C32.0828 49.4966 32.0727 49.9884 32.1538 50.4827C32.2298 50.9796 32.4352 51.4612 32.7394 51.9023C33.036 52.3459 33.3807 52.749 33.6418 53.1977C33.8979 53.6413 34.0753 54.1356 34.05 54.6224C34.0322 55.1192 33.7559 55.5147 33.5506 55.8645C33.4441 56.042 33.3529 56.2169 33.2895 56.3943C33.2286 56.5718 33.2058 56.7518 33.2109 56.9216C33.2286 57.2664 33.3605 57.5604 33.4999 57.7987C33.6418 58.037 33.7914 58.2271 33.9182 58.3767C34.0449 58.5288 34.1488 58.6403 34.2173 58.7189C34.2908 58.795 34.3263 58.8355 34.3238 58.8406Z" fill="#517C3C"/>
<path d="M120.433 118.327C120.433 118.362 94.885 118.393 63.3775 118.393C31.8599 118.393 6.3172 118.362 6.3172 118.327C6.3172 118.291 31.8599 118.261 63.3775 118.261C94.885 118.261 120.433 118.291 120.433 118.327Z" fill="#263238"/>
</svg>
