<svg width="129" height="69" viewBox="0 0 129 69" fill="none" xmlns="http://www.w3.org/2000/svg">
<path d="M9.86943 68.6264C9.86943 68.6264 -5.41248 51.2974 2.05604 33.4578C6.92419 21.8292 25.1854 15.4573 35.491 21.8292C39.8803 24.5431 53.9626 21.9207 61.4816 10.6852C76.0928 -11.1482 127.087 2.11138 117.803 35.6332C113.31 51.8552 131.476 52.445 122.22 68.6606L9.86943 68.6264Z" fill="#EEF2E6"/>
<path d="M21.1811 40.1062C21.1811 40.1062 19.6398 38.4137 21.0861 37.3384C21.0861 37.3384 22.1425 36.7366 23.004 36.7854C23.004 36.7854 21.7836 38.7118 22.1784 38.9035C22.5733 39.0951 23.3739 36.6643 23.3739 36.6643C23.3739 36.6643 25.7779 36.4449 26.5513 36.7948C26.5513 36.7948 24.4962 38.3778 24.9292 38.4719C25.3622 38.566 27.5818 37.0125 27.5818 37.0125C27.5818 37.0125 29.8191 37.3709 29.6996 38.6558C29.5801 39.9407 28.8095 40.3372 28.4706 40.3034C28.1316 40.2692 26.1496 39.557 26.1065 39.8184C26.0633 40.0797 27.2565 40.9339 28.0921 40.9737C28.0921 40.9737 26.5145 42.6114 25.4662 42.1388C24.418 41.6661 24.3285 40.9172 23.6751 40.6362C23.0217 40.3552 22.4638 40.356 22.7336 40.6426C23.0035 40.9292 24.1863 41.2076 24.5598 41.83C24.9333 42.4523 25.2686 42.8719 24.184 42.7184C23.0994 42.5648 21.3365 41.8176 21.2588 40.9621L21.1815 40.1067L21.1811 40.1062Z" fill="#B2C9A7"/>
<path d="M28.6 38.6904C28.6 38.6904 22.5232 38.4701 21.181 40.1057C21.181 40.1057 20.8843 40.9424 19.971 41.7046L19.8288 42.0699C19.8288 42.0699 20.882 41.0245 21.2587 40.9616C21.2587 40.9616 20.6694 38.9346 28.6 38.6904Z" fill="#B2C9A7"/>
<path d="M19.971 41.7046C19.971 41.7046 18.6665 42.6126 18.5761 44.235L18.8128 44.2551C18.8128 44.2551 19.2295 42.5776 19.9824 41.9214C20.7353 41.2653 19.971 41.7046 19.971 41.7046Z" fill="#B2C9A7"/>
<path d="M15.7926 37.9773C15.7926 37.9773 18.2444 36.6847 17.1003 34.931C17.1003 34.931 16.1852 33.854 15.2042 33.5773C15.2042 33.5773 15.7272 36.1928 15.2042 36.2544C14.6812 36.316 14.8448 33.3001 14.8448 33.3001C14.8448 33.3001 12.2622 32.1307 11.2489 32.2231C11.2489 32.2231 12.8506 34.7771 12.3276 34.7155C11.8046 34.6539 10.0067 32.0691 10.0067 32.0691C10.0067 32.0691 7.35904 31.6076 6.93375 33.0845C6.50891 34.5615 7.19546 35.3002 7.58759 35.3926C7.97971 35.4849 10.4969 35.4542 10.4315 35.7617C10.3661 36.0692 8.66627 36.562 7.71845 36.2848C7.71845 36.2848 8.76441 38.7156 10.1375 38.5928C11.5106 38.4696 11.9355 37.6698 12.7852 37.6082C13.6353 37.5466 14.256 37.7622 13.8311 37.9773C13.4063 38.1929 11.9677 38.0479 11.2812 38.5975C10.5946 39.1467 10.0389 39.4855 11.3139 39.7314C12.5889 39.9778 14.8771 39.8238 15.3346 38.9008L15.7922 37.9777L15.7926 37.9773Z" fill="#B2C9A7"/>
<path d="M8.14319 33.5462C8.14319 33.5462 15.0078 35.6386 15.7925 37.9775C15.7925 37.9775 15.7598 39.0237 16.4464 40.2239V40.6854C16.4464 40.6854 15.7271 39.1161 15.335 38.9005C15.335 38.9005 16.8712 36.8696 8.14319 33.5462Z" fill="#B2C9A7"/>
<path d="M16.446 40.2237C16.446 40.2237 17.5047 41.737 16.9013 43.5792L16.6291 43.5103C16.6291 43.5103 16.8935 41.4812 16.3396 40.4606C15.7858 39.4401 16.4464 40.2237 16.4464 40.2237H16.446Z" fill="#B2C9A7"/>
<path d="M19.6929 36.1949C19.6929 36.1949 16.461 34.4913 17.9695 32.179C17.9695 32.179 19.1759 30.7594 20.4686 30.3941C20.4686 30.3941 19.7793 33.842 20.4686 33.9233C21.1578 34.0045 20.9425 30.0292 20.9425 30.0292C20.9425 30.0292 24.3466 28.4877 25.6825 28.6096C25.6825 28.6096 23.571 31.9762 24.2603 31.8954C24.9496 31.8141 27.3196 28.4069 27.3196 28.4069C27.3196 28.4069 30.8101 27.7982 31.3699 29.7456C31.9301 31.6927 31.025 32.6662 30.5079 32.7881C29.9908 32.9095 26.673 32.8693 26.7589 33.2748C26.8452 33.6803 29.0857 34.3296 30.3353 33.9643C30.3353 33.9643 28.9562 37.1688 27.1465 37.0067C25.3367 36.8446 24.7765 35.7899 23.656 35.7086C22.5355 35.6273 21.7167 35.9113 22.277 36.1953C22.8372 36.4794 24.7333 36.2886 25.638 37.0127C26.5426 37.7369 27.2755 38.183 25.5948 38.5076C23.9141 38.8323 20.8979 38.6291 20.2945 37.4122L19.6911 36.1953L19.6929 36.1949Z" fill="#E0F8D4"/>
<path d="M29.7759 30.3537C29.7759 30.3537 20.7271 33.1121 19.6929 36.1947C19.6929 36.1947 19.7361 37.5737 18.831 39.1559V39.7645C18.831 39.7645 19.7788 37.6956 20.2959 37.4121C20.2959 37.4121 18.2708 34.7349 29.7759 30.3541V30.3537Z" fill="#E0F8D4"/>
<path d="M18.831 39.1559C18.831 39.1559 17.4356 41.1508 18.2312 43.579L18.5901 43.4883C18.5901 43.4883 18.2416 40.8138 18.9718 39.4686C19.702 38.1234 18.831 39.1559 18.831 39.1559Z" fill="#E0F8D4"/>
<path d="M19.5839 48.8456C23.0803 48.8456 25.9142 46.1775 25.9142 42.8861H13.2536C13.2536 46.1775 16.088 48.8456 19.5839 48.8456Z" fill="#E0F8D4"/>
<path d="M13.9469 48.4133H25.2208C25.652 48.4133 26.0019 48.7427 26.0019 49.1486H13.1658C13.1658 48.7427 13.5157 48.4133 13.9469 48.4133Z" fill="#E0F8D4"/>
<path d="M26.0588 42.8861H13.0455V43.0687H26.0588V42.8861Z" fill="#BBF49F"/>
<path d="M52.2495 68.5023H52.2809C52.5367 68.4972 52.7343 68.3005 52.7102 68.0742L51.0036 52.0314L49.5146 52.1563L51.9651 68.2855C51.9842 68.4117 52.1068 68.5049 52.2495 68.5023Z" fill="#B1D3A5"/>
<path d="M35.8186 68.5023H35.7872C35.5314 68.4972 35.3337 68.3005 35.3578 68.0742L37.0644 52.0314L38.5534 52.1563L36.103 68.2855C36.0839 68.4117 35.9612 68.5049 35.8186 68.5023Z" fill="#B1D3A5"/>
<path d="M64.2881 68.5023H64.3194C64.5753 68.4972 64.7729 68.3005 64.7488 68.0742L63.0422 52.0314L61.5532 52.1563L64.0037 68.2855C64.0227 68.4117 64.1454 68.5049 64.2881 68.5023Z" fill="#B1D3A5"/>
<path d="M36.3266 49.6985L33.2977 35.6177C32.9088 33.7114 34.5872 31.9679 36.7659 32.015L42.6078 32.1408C44.6229 32.184 46.375 33.4539 46.9352 35.2764L51.3667 49.6989H36.3266V49.6985Z" fill="#B1D3A5"/>
<path d="M38.1591 49.6985L35.1302 35.6177C34.7413 33.7114 36.4197 31.9679 38.5985 32.015L44.4403 32.1408C46.4555 32.184 48.2075 33.4539 48.7678 35.2764L53.1993 49.6989H38.1591V49.6985Z" fill="#B1D3A5"/>
<path d="M60.2829 52.266H37.1707C36.7046 52.266 36.3265 51.9097 36.3265 51.4713V49.6979H60.2829C60.749 49.6979 61.1271 50.0542 61.1271 50.4926V51.4713C61.1271 51.9097 60.7486 52.266 60.2829 52.266Z" fill="#B1D3A5"/>
<path d="M48.0171 52.266H62.7501C63.1258 52.266 63.4303 51.9793 63.4303 51.6257V50.3382C63.4303 49.9846 63.1258 49.6979 62.7501 49.6979H48.0171C47.6414 49.6979 47.3369 49.9846 47.3369 50.3382V51.6257C47.3369 51.9793 47.6414 52.266 48.0171 52.266Z" fill="#B1D3A5"/>
<path d="M29.4305 49.5149V49.9952C29.4305 50.1633 29.3728 50.3006 29.3019 50.3006H10.6795C10.6091 50.3006 10.5509 50.1633 10.5509 49.9952V49.5149C10.5509 49.3468 10.6086 49.2095 10.6795 49.2095H29.3024C29.3728 49.2095 29.431 49.3472 29.431 49.5149H29.4305Z" fill="#B2E29A"/>
<path d="M29.4305 49.5149V49.9952C29.4305 50.1633 29.3773 50.3006 29.3128 50.3006H14.5285C14.4635 50.3006 14.4108 50.1633 14.4108 49.9952V49.5149C14.4108 49.3468 14.4639 49.2095 14.5285 49.2095H29.3128C29.3778 49.2095 29.4305 49.3472 29.4305 49.5149Z" fill="#CDF4BA"/>
<path d="M24.7169 50.3008H11.496V68.4411H24.7169V50.3008Z" fill="#B2C9A7"/>
<path d="M28.4219 50.3008H15.201V68.4411H28.4219V50.3008Z" fill="#E9FDDF"/>
<path d="M27.7117 67.4394H15.9116V50.8132H27.7117V67.4394ZM16.0388 67.3196H27.584V50.9334H16.0388V67.3196Z" fill="#F4F7F2"/>
<path d="M27.6481 56.3132H15.9753V56.433H27.6481V56.3132Z" fill="#F4F7F2"/>
<path d="M27.6481 61.9207H15.9753V62.0404H27.6481V61.9207Z" fill="#F4F7F2"/>
<path d="M23.008 51.8857H20.842C20.737 51.8857 20.6507 51.8049 20.6507 51.7057C20.6507 51.6068 20.7366 51.5256 20.842 51.5256H23.008C23.1129 51.5256 23.1993 51.6064 23.1993 51.7057C23.1993 51.8045 23.1134 51.8857 23.008 51.8857Z" fill="#F4F7F2"/>
<path d="M23.008 57.3689H20.842C20.737 57.3689 20.6507 57.288 20.6507 57.1888C20.6507 57.09 20.7366 57.0087 20.842 57.0087H23.008C23.1129 57.0087 23.1993 57.0896 23.1993 57.1888C23.1993 57.2876 23.1134 57.3689 23.008 57.3689Z" fill="#F4F7F2"/>
<path d="M23.008 63.0849H20.842C20.737 63.0849 20.6507 63.0041 20.6507 62.9049C20.6507 62.8061 20.7366 62.7248 20.842 62.7248H23.008C23.1129 62.7248 23.1993 62.8056 23.1993 62.9049C23.1993 63.0037 23.1134 63.0849 23.008 63.0849Z" fill="#F4F7F2"/>
<path d="M72.9521 8.75336H81.3321C81.7183 8.75336 82.0314 9.04849 82.0314 9.41163V17.0256C82.0314 17.3892 81.7178 17.6839 81.3321 17.6839H72.9521C72.5659 17.6839 72.2528 17.3887 72.2528 17.0256V9.41163C72.2528 9.04806 72.5663 8.75336 72.9521 8.75336Z" fill="#D4FBC0"/>
<path d="M73.3151 9.13983H80.969C81.3216 9.13983 81.6079 9.4093 81.6079 9.74122V16.6956C81.6079 17.0275 81.3216 17.297 80.969 17.297H73.3151C72.9625 17.297 72.6763 17.0275 72.6763 16.6956V9.74122C72.6763 9.4093 72.9625 9.13983 73.3151 9.13983Z" fill="#E9FDDF"/>
<path d="M77.1417 10.1459C77.2537 10.1459 77.3444 10.0605 77.3444 9.95517C77.3444 9.84981 77.2537 9.7644 77.1417 9.7644C77.0298 9.7644 76.9391 9.84981 76.9391 9.95517C76.9391 10.0605 77.0298 10.1459 77.1417 10.1459Z" fill="#B2C9A7"/>
<path d="M78.574 10.2248C78.6285 10.1328 78.7516 10.0994 78.8493 10.1508C78.947 10.2021 78.9824 10.318 78.9279 10.41C78.8734 10.5019 78.7503 10.5353 78.6526 10.484C78.5549 10.4326 78.5194 10.3167 78.574 10.2248Z" fill="#B2C9A7"/>
<path d="M79.9744 11.2722C80.0684 11.2154 80.1938 11.2406 80.2543 11.3291C80.3147 11.4177 80.2879 11.5357 80.1938 11.5926C80.0998 11.6495 79.9744 11.6243 79.914 11.5357C79.8531 11.4472 79.8803 11.3291 79.9744 11.2722Z" fill="#B2C9A7"/>
<path d="M80.6682 12.8932C80.78 12.8932 80.8709 12.9788 80.8709 13.084C80.8709 13.1892 80.78 13.2748 80.6682 13.2748C80.5565 13.2748 80.4656 13.1892 80.4656 13.084C80.4656 12.9788 80.5565 12.8932 80.6682 12.8932Z" fill="#B2C9A7"/>
<path d="M80.3137 14.7744C80.3927 14.8488 80.3927 14.9694 80.3137 15.0439C80.2346 15.1183 80.1065 15.1183 80.0274 15.0439C79.9484 14.9694 79.9484 14.8488 80.0274 14.7744C80.1065 14.7 80.2346 14.7 80.3137 14.7744Z" fill="#B2C9A7"/>
<path d="M79.042 15.9751C79.121 16.0495 79.121 16.1701 79.042 16.2446C78.9629 16.319 78.8348 16.319 78.7557 16.2446C78.6766 16.1701 78.6766 16.0495 78.7557 15.9751C78.8348 15.9007 78.9629 15.9007 79.042 15.9751Z" fill="#B2C9A7"/>
<path d="M76.9396 16.5937C76.9396 16.4884 77.0305 16.4029 77.1422 16.4029C77.254 16.4029 77.3449 16.4884 77.3449 16.5937C77.3449 16.6989 77.254 16.7844 77.1422 16.7844C77.0305 16.7844 76.9396 16.6989 76.9396 16.5937Z" fill="#B2C9A7"/>
<path d="M75.7037 10.2247C75.6491 10.1327 75.526 10.0993 75.4283 10.1507C75.3306 10.202 75.2952 10.3179 75.3497 10.4099C75.4042 10.5018 75.5274 10.5352 75.6251 10.4839C75.7228 10.4325 75.7582 10.3166 75.7037 10.2247Z" fill="#B2C9A7"/>
<path d="M74.3033 11.2721C74.2093 11.2153 74.0839 11.2405 74.0234 11.329C73.9626 11.4176 73.9898 11.5356 74.0839 11.5925C74.1779 11.6494 74.3033 11.6242 74.3638 11.5356C74.4242 11.4471 74.3974 11.329 74.3033 11.2721Z" fill="#B2C9A7"/>
<path d="M73.6095 12.8933C73.4977 12.8933 73.4069 12.9789 73.4069 13.0841C73.4069 13.1893 73.4977 13.2749 73.6095 13.2749C73.7213 13.2749 73.8122 13.1893 73.8122 13.0841C73.8122 12.9789 73.7213 12.8933 73.6095 12.8933Z" fill="#B2C9A7"/>
<path d="M73.964 14.7745C73.8849 14.8489 73.8849 14.9696 73.964 15.044C74.043 15.1184 74.1712 15.1184 74.2502 15.044C74.3293 14.9696 74.3293 14.8489 74.2502 14.7745C74.1712 14.7001 74.043 14.7001 73.964 14.7745Z" fill="#B2C9A7"/>
<path d="M75.2357 15.975C75.1566 16.0494 75.1566 16.1701 75.2357 16.2445C75.3147 16.3189 75.4429 16.3189 75.5219 16.2445C75.601 16.1701 75.601 16.0494 75.5219 15.975C75.4429 15.9006 75.3147 15.9006 75.2357 15.975Z" fill="#B2C9A7"/>
<path d="M77.0873 13.084C77.0873 12.9787 77.1782 12.8932 77.2899 12.8932C77.4017 12.8932 77.4926 12.9787 77.4926 13.084C77.4926 13.1892 77.4017 13.2747 77.2899 13.2747C77.1782 13.2747 77.0873 13.1892 77.0873 13.084Z" fill="#B2C9A7"/>
<path d="M77.3176 10.7018H77.2622V13.0843H77.3176V10.7018Z" fill="#B2C9A7"/>
<path d="M78.5561 12.0301L77.2144 13.0215L77.3168 13.1443L78.6585 12.1529L78.5561 12.0301Z" fill="#B2C9A7"/>
<path d="M56.4606 46.7514C55.2102 48.7998 53.6376 49.5906 53.6376 49.5906H47.0951C47.0951 49.5906 57.4143 45.1885 56.4606 46.7514Z" fill="#295214"/>
<path d="M64.5299 67.104C64.4591 67.7503 65.4141 67.9171 66.5215 67.9804C67.6288 68.0437 67.2916 68.2538 68.8069 68.5279C70.3223 68.8021 70.9352 68.4172 71.0475 68.2251C71.1474 68.0549 70.4445 67.7798 69.6957 67.4693C69.6012 67.4304 69.5071 67.3906 69.4126 67.3508C68.5698 66.992 68.1031 66.2721 67.4506 65.6027C66.8327 64.9688 66.2616 62.9529 66.2616 62.9529L64.2032 62.5175C64.2032 62.5175 64.7621 64.3324 64.9543 65.1065C65.0675 65.5621 64.8871 66.0681 64.7276 66.453C64.6417 66.6626 64.5549 66.8769 64.5304 67.1045L64.5299 67.104Z" fill="#FFD9BF"/>
<path d="M66.5215 67.9804C67.6288 68.0437 67.2917 68.2537 68.807 68.5279C70.3223 68.8021 70.9353 68.4171 71.0475 68.2251C71.1475 68.0548 70.4446 67.7798 69.6957 67.4693L69.6839 67.4813C69.6839 67.4813 68.6125 67.8119 67.3839 67.4838C66.3825 67.2169 65.4178 66.6421 64.7276 66.4526C64.6418 66.6622 64.555 66.8765 64.5304 67.104C64.4596 67.7503 65.4147 67.9171 66.522 67.9804H66.5215Z" fill="#0F2549"/>
<path d="M61.4116 44.6535C60.3039 43.9213 52.9767 42.6163 49.2376 42.2386L45.1047 38.8613C45.1047 38.8613 41.5869 43.766 41.5587 47.5185C41.5456 49.2683 42.4016 49.4419 42.4021 49.4424C42.4021 49.4424 55.6511 49.5348 56.2318 49.5912C57.1823 49.6836 58.4364 51.9129 58.7495 53.9433C59.063 55.9738 64.5877 64.2319 64.5877 64.2319C64.5877 64.2319 65.74 64.5792 66.2725 64.5501C66.8455 64.5185 67.1108 64.338 67.1108 64.338C67.1108 64.338 63.9093 46.305 61.4112 44.654L61.4116 44.6535Z" fill="#295214"/>
<path d="M61.103 67.104C61.0321 67.7503 61.9872 67.9171 63.0945 67.9804C64.2018 68.0437 63.8647 68.2538 65.38 68.5279C66.8954 68.8021 67.5083 68.4172 67.6205 68.2251C67.7205 68.0549 67.0176 67.7798 66.2688 67.4693C66.1747 67.4304 66.0802 67.3906 65.9857 67.3508C65.1429 66.992 64.6762 66.2721 64.0237 65.6027C63.4058 64.9688 62.8346 62.9529 62.8346 62.9529L60.7759 62.5175C60.7759 62.5175 61.3348 64.3324 61.527 65.1065C61.6401 65.5621 61.4597 66.0681 61.3002 66.453C61.2143 66.6626 61.1276 66.8769 61.103 67.1045V67.104Z" fill="#FFD9BF"/>
<path d="M63.0946 67.9804C64.2019 68.0437 63.8648 68.2537 65.3801 68.5279C66.8954 68.8021 67.5084 68.4171 67.6206 68.2251C67.7206 68.0548 67.0177 67.7798 66.2689 67.4693L66.2571 67.4813C66.2571 67.4813 65.1856 67.8119 63.957 67.4838C62.9556 67.2169 61.991 66.6421 61.3008 66.4526C61.2149 66.6622 61.1281 66.8765 61.1036 67.104C61.0327 67.7503 61.9878 67.9171 63.0951 67.9804H63.0946Z" fill="#1B3051"/>
<path d="M57.9542 44.6535C56.9919 44.0175 54.0975 43.5243 50.9028 43.1582C50.0195 43.0568 49.2944 42.4525 49.0785 41.6398L41.6473 38.8613C41.6473 38.8613 38.1295 43.766 38.1013 47.5185C38.0882 49.2683 38.9442 49.4419 38.9447 49.4424C38.9447 49.4424 52.1937 49.5348 52.7744 49.5912C53.7249 49.6836 54.979 51.9129 55.2921 53.9433C55.6056 55.9738 61.1303 64.2319 61.1303 64.2319C61.1303 64.2319 62.2826 64.5792 62.8151 64.5501C63.3881 64.5185 63.6534 64.338 63.6534 64.338C63.6534 64.338 60.4519 46.305 57.9538 44.654L57.9542 44.6535Z" fill="#517C3C"/>
<path d="M48.0103 18.4826C46.9894 17.9779 45.4354 17.9095 45.1828 17.8778C42.1621 17.4958 40.3442 21.6277 40.2369 22.8796C40.0397 25.1872 38.743 25.5392 36.9177 26.9845C33.2578 29.8824 34.331 33.2499 36.3325 34.501C37.5334 35.2516 39.6499 34.501 39.6499 34.501C39.6799 34.5207 45.4386 31.4705 48.2771 29.9992C52.5327 29.4298 50.6125 19.7692 48.0103 18.4826Z" fill="#666666"/>
<path d="M47.3801 28.5773C47.3933 28.5837 46.0379 29.1641 45.0592 28.8596C44.1386 28.5743 43.328 27.2697 43.3407 27.2676C43.7401 27.2133 44.1463 26.842 44.2599 24.6435L44.4367 24.6854L47.4114 25.3933C47.4114 25.3933 47.2938 26.2804 47.2451 27.1192C47.2043 27.8232 47.2124 28.4935 47.3796 28.5773H47.3801Z" fill="#FFD9BF"/>
<path d="M47.412 25.3934C47.412 25.3934 47.412 25.576 47.3007 26.4011C45.6181 26.0016 44.8766 25.4764 44.3531 24.8754L47.4115 25.3934H47.412Z" fill="#ED975D"/>
<path d="M48.0466 25.5049C48.0466 25.5049 44.1131 26.108 43.7519 23.7961C43.3907 21.4842 42.6401 20.0052 45.1359 19.5227C47.6322 19.0402 48.2593 19.8546 48.5792 20.5984C48.899 21.3427 49.0608 25.2889 48.0466 25.5053V25.5049Z" fill="#FFD9BF"/>
<path d="M48.0503 19.4257C48.0503 19.4257 46.2637 22.0801 44.6693 22.7089C43.0745 23.3376 42.2911 23.0186 42.2911 23.0186C42.2911 23.0186 43.0168 21.983 43.2058 20.5925C43.2617 20.1827 43.5452 19.8311 43.9528 19.6776C45.0973 19.246 47.3106 18.5659 48.0508 19.4257H48.0503Z" fill="#666666"/>
<path d="M46.4814 19.6824C46.4814 19.6824 47.5283 20.1875 47.9595 20.6615C48.3757 21.1183 48.8564 22.3587 48.8219 22.9156C48.8219 22.9156 49.3385 20.2466 48.2626 19.3291C47.1217 18.3564 46.4814 19.6824 46.4814 19.6824Z" fill="#666666"/>
<path d="M50.5271 34.2252C50.4076 41.7523 50.4944 40.1792 49.6197 40.8935C49.4089 41.0654 48.8164 41.1681 48.0367 41.2164C45.5849 41.3695 41.2752 40.9893 41.1111 40.5628C40.5454 39.0872 40.9448 38.6286 40.4732 36.369C40.4241 36.1286 40.3632 35.8685 40.2919 35.5854C39.8984 34.0336 39.5158 33.5053 40.9112 31.0121C42.1771 28.7537 43.6652 26.9192 43.7838 26.9851C47.1229 28.8512 47.2374 27.287 47.2374 27.287C47.2374 27.287 50.5862 30.5536 50.5276 34.2252H50.5271Z" fill="white"/>
<path d="M47.2369 27.2873C47.2369 27.2873 50.6547 27.8326 51.0582 29.2253C51.4617 30.618 53.8362 38.8051 53.8362 38.8051C53.8362 38.8051 52.0896 39.1007 51.2827 38.341C50.4757 37.5814 48.4746 31.2934 48.4746 31.2934L47.2374 27.2877L47.2369 27.2873Z" fill="white"/>
<path d="M48.0366 41.2163C45.5848 41.3694 41.2751 40.9892 41.1111 40.5627C40.5454 39.0871 40.9448 38.6286 40.4731 36.3689L41.6559 33.2341C41.6559 33.2341 41.4605 36.7248 42.5537 37.6431C43.646 38.561 47.0311 39.4156 47.5627 40.1825C47.819 40.5508 47.9876 40.9199 48.0371 41.2163H48.0366Z" fill="#F2FFEB"/>
<path d="M45.2278 39.7484C45.2278 39.7484 47.6469 39.2416 48.0367 39.4434C48.427 39.6453 49.3807 40.3815 49.5002 40.6377C49.6197 40.8939 48.6315 40.4435 48.3098 40.3622C48.1017 40.3096 47.5537 40.4888 47.2825 40.5739C46.1411 40.9324 45.4413 40.748 45.4413 40.748L45.2278 39.7488V39.7484Z" fill="#FFD9BF"/>
<path d="M43.7833 26.9853C43.7833 26.9853 40.3601 27.1735 39.2355 28.65C37.6529 30.7279 34.5132 39.584 36.3125 40.7649C38.339 42.0952 45.5349 41.1131 45.5349 41.1131C45.5349 41.1131 45.7744 40.0596 45.4413 39.5498C45.1083 39.0399 39.6935 38.2165 39.4436 37.9813C39.1937 37.746 42.5674 33.3939 42.5674 32.6882C42.5674 31.9824 43.7833 26.9853 43.7833 26.9853Z" fill="white"/>
<path d="M48.1539 40.0773C48.1539 40.0773 48.6606 40.6928 48.8269 40.7664C48.9932 40.84 49.1004 40.8216 49.1004 40.8216L48.7587 40.2429L48.1539 40.0773Z" fill="#FFD9BF"/>
<path d="M48.0366 39.4433L49.5102 40.117C49.5102 40.117 49.4474 40.2136 49.2662 40.2059C49.0849 40.1982 48.6269 40.0404 48.6269 40.0404L48.0366 39.4433Z" fill="#FFD9BF"/>
<path d="M53.4651 41.039H46.6213C46.6213 40.7554 46.8658 40.5253 47.167 40.5253H53.4651V41.039Z" fill="#BAAF74"/>
<path d="M53.4451 34.023H64.0261L61.488 41.039H50.8389L53.4451 34.023Z" fill="#BAAF74"/>
<path d="M64.1819 34.0229L61.6438 41.0393H50.9946L53.6014 34.0229H64.1819Z" fill="#E7E2CA"/>
<path d="M58.4773 37.4666C58.4114 37.7348 58.1274 37.9521 57.8425 37.9521C57.5576 37.9521 57.38 37.7348 57.4459 37.4666C57.5117 37.1984 57.7957 36.9811 58.0806 36.9811C58.3655 36.9811 58.5427 37.1984 58.4773 37.4666Z" fill="white"/>
<path d="M44.2559 41.0393H90.6241C90.819 41.0393 90.9772 41.1882 90.9772 41.3716V42.2853C90.9772 42.4688 90.819 42.6176 90.6241 42.6176H44.2559C44.061 42.6176 43.9028 42.4688 43.9028 42.2853V41.3716C43.9028 41.1882 44.061 41.0393 44.2559 41.0393Z" fill="#295214"/>
<path d="M91.7592 68.6201L91.7792 68.6179C92.0168 68.5901 92.1849 68.3908 92.1549 68.1722L88.0229 41.8431L86.5103 41.8837L91.372 68.3553C91.4034 68.5247 91.5742 68.6419 91.7596 68.6201H91.7592Z" fill="#295214"/>
<path d="M42.7033 68.6201L42.6833 68.6179C42.4457 68.5901 42.2776 68.3908 42.3075 68.1722L46.4396 41.8431L47.9522 41.8837L43.0904 68.3553C43.0595 68.5247 42.8882 68.6419 42.7028 68.6201H42.7033Z" fill="#295214"/>
<path d="M52.2687 68.6201L52.2487 68.6179C52.0111 68.5901 51.843 68.3908 51.873 68.1722L56.005 41.8431L57.5176 41.8837L52.6559 68.3553C52.6245 68.5247 52.4537 68.6419 52.2683 68.6201H52.2687Z" fill="#295214"/>
<path d="M128.594 68.371H0.175388C0.0785238 68.371 0 68.4449 0 68.5361V68.6717C0 68.7629 0.0785238 68.8368 0.175388 68.8368H128.594C128.691 68.8368 128.769 68.7629 128.769 68.6717V68.5361C128.769 68.4449 128.691 68.371 128.594 68.371Z" fill="#2E3552"/>
<path d="M76.6458 68.5988H84.845C85.2394 68.1459 85.094 66.4743 85.0345 65.9281C85.0222 65.8182 85.0136 65.754 85.0136 65.754C85.0136 65.754 82.2137 63.6457 81.8289 65.26C81.817 65.3105 81.803 65.3601 81.7875 65.4088C81.3032 66.9187 79.1294 67.6048 77.8745 67.796C77.0584 67.9204 76.7572 68.3199 76.6454 68.5984L76.6458 68.5988Z" fill="#1B3051"/>
<path d="M99.0191 43.5184C98.7233 43.5184 84.974 45.9484 82.6999 48.5985C81.5639 49.9224 81.3949 65.2119 81.3949 65.2119C81.3949 65.2119 82.8003 66.8522 85.8359 65.8997C85.8359 65.8997 88.0614 55.4388 87.8974 52.2663C87.852 51.389 97.2916 52.1393 99.0191 51.7184C100.747 51.2975 104.968 47.7593 104.038 46.036C103.108 44.3123 99.0191 43.5184 99.0191 43.5184Z" fill="#295214"/>
<path d="M82.7585 39.7748C82.7585 39.7748 79.985 39.8099 79.3294 40.0746C78.6737 40.3394 77.3429 40.9468 77.6991 41.04C78.0553 41.1332 79.7542 41.0015 80.1213 41.0545C80.4885 41.1076 80.941 41.04 81.1659 41.04C81.3909 41.04 82.4395 41.04 82.4395 41.04L82.7585 39.7748Z" fill="#FFD9BF"/>
<path d="M79.5161 33.5094C79.5161 33.5094 78.5706 32.8734 77.6523 32.7498C77.1284 32.6792 76.6195 32.5915 76.3119 32.4893C75.4645 32.2083 73.7692 30.7732 73.8978 30.6051C74.309 30.0658 76.2882 31.2074 76.6336 31.0846C76.9789 30.9619 75.9697 30.2865 76.3205 30.0487C76.5041 29.9246 76.933 30.5465 77.2833 30.609C77.7577 30.6937 78.1285 31.3241 78.2716 31.3571C78.5497 31.4212 79.7674 32.2737 79.7674 32.2737L79.5166 33.509L79.5161 33.5094Z" fill="#FFD9BF"/>
<path d="M97.6496 26.0816C97.6496 26.0816 95.5386 26.6975 93.4585 32.0895C91.3783 37.4814 90.5887 37.7727 89.8326 37.984C89.0765 38.1957 82.4399 39.4395 82.4399 39.4395V41.0396H92.6656C92.6656 41.0396 96.5 37.6059 97.6496 35.2944C98.7992 32.983 97.6496 26.0812 97.6496 26.0812V26.0816Z" fill="#BAAF74"/>
<path d="M73.0222 68.5988H81.2213C81.6157 68.1459 81.4703 66.4743 81.4108 65.9281C81.3985 65.8182 81.3899 65.754 81.3899 65.754C81.3899 65.754 78.5901 63.6457 78.2052 65.26C78.1934 65.3105 78.1793 65.3601 78.1639 65.4088C77.6795 66.9187 75.5058 67.6048 74.2508 67.796C73.4348 67.9204 73.1335 68.3199 73.0217 68.5984L73.0222 68.5988Z" fill="#1B3051"/>
<path d="M94.9675 43.5184C94.6712 43.5184 80.9224 45.9484 78.6482 48.5985C77.5123 49.9224 77.3433 65.2119 77.3433 65.2119C77.3433 65.2119 78.7491 66.8522 81.7843 65.8997C81.7843 65.8997 84.0098 55.4388 83.8458 52.2663C83.8003 51.389 93.2399 52.1393 94.9675 51.7184C96.695 51.2975 100.917 47.7593 99.9865 46.036C99.0564 44.3123 94.9675 43.5184 94.9675 43.5184Z" fill="#517C3C"/>
<path d="M95.8281 27.7901C96.8172 27.7131 97.8541 27.4651 98.7506 27.1913C99.8711 26.8491 100.774 26.3487 100.192 25.385C99.6562 24.4966 98.7878 22.512 98.8465 20.8678L96.7618 22.4495L95.3455 23.5236C95.3455 23.5236 95.3514 24.157 95.5064 25.267C95.5345 25.4693 95.5677 25.6879 95.6068 25.921C95.6381 26.1096 95.5464 26.2978 95.3742 26.3983C95.3632 26.4047 95.3528 26.4107 95.3423 26.4171C94.6385 26.8333 95.0007 27.8547 95.829 27.7901H95.8281Z" fill="#FFD9BF"/>
<path d="M95.3451 23.2618C95.3451 23.2618 95.2728 23.492 95.3973 24.341C96.66 24.1472 97.84 23.199 97.84 23.199C97.1971 23.033 96.9635 22.379 96.4846 22.4402L95.3451 23.2618Z" fill="#ED975D"/>
<path d="M94.1773 23.4557C94.1773 23.4557 99.0336 24.2153 99.4898 21.3607C99.9456 18.5065 100.88 16.6822 97.7982 16.0766C94.7167 15.4709 93.9388 16.4748 93.5407 17.3927C93.1423 18.3106 92.926 23.1845 94.1778 23.4557H94.1773Z" fill="#FFD9BF"/>
<path d="M92.8261 16.1296C92.6175 16.817 93.1755 17.654 94.1124 17.9299C95.5032 18.3388 95.1956 19.9449 95.8217 19.9231C96.4474 19.9013 96.7 19.0001 97.2589 19.7199C97.7356 20.3342 96.8623 21.0621 96.9222 21.3992C97.0254 21.9775 97.9877 23.1606 98.8547 23.1011C99.7216 23.0417 101.344 19.1626 101.02 17.9624C100.695 16.7622 99.3972 15.4966 98.1686 15.3221C96.9399 15.1475 95.2338 15.6467 94.8398 15.6467C94.4459 15.6467 92.9383 15.7579 92.8256 16.1292L92.8261 16.1296Z" fill="#666666"/>
<path d="M104.103 30.0431C103.401 27.3834 101.46 24.593 100.149 24.5951C97.9131 24.5989 94.6998 25.1546 93.4025 28.1675C92.447 30.3865 91.1725 43.1512 92.6128 44.0588C95.9057 46.1341 103.539 50.3703 104.895 46.0503C106.137 42.0917 105.321 34.6591 104.102 30.0431H104.103Z" fill="#E7E2CA"/>
<path d="M98.6733 27.3963C98.0358 25.8346 95.9789 25.2948 94.5762 26.3222C93.8174 26.8779 92.8887 27.6691 91.7664 28.7941C87.5948 32.976 86.7469 32.9499 85.9636 32.8635C85.1803 32.7771 78.561 31.4545 78.561 31.4545C78.561 31.4545 78.222 31.6898 78.0225 32.0705C77.7563 32.5786 77.8903 32.9251 77.8903 32.9251C77.6309 32.7672 80.2367 34.458 81.5335 35.1321C83.2464 36.0222 85.8273 36.8572 86.8551 37.1741C87.1463 37.2639 87.4607 37.2596 87.7493 37.1617C89.2751 36.6441 94.3986 34.7574 98.5697 31.4845C99.6688 30.6222 99.2649 28.8445 98.6737 27.3967L98.6733 27.3963Z" fill="#E7E2CA"/>
<path d="M100.374 24.6207L99.8674 23.5475C99.8674 23.5475 95.3373 23.8952 94.5758 26.3222C94.5758 26.3222 98.0872 24.6724 100.373 24.6207H100.374Z" fill="white"/>
<path d="M111.372 68.5024H111.403C111.659 68.4972 111.857 68.3005 111.833 68.0742L110.126 52.0315L108.637 52.1564L111.088 68.2855C111.107 68.4117 111.229 68.5049 111.372 68.5024Z" fill="#B1D3A5"/>
<path d="M102.589 68.5024H102.62C102.876 68.4972 103.073 68.3005 103.049 68.0742L101.343 52.0315L99.8542 52.1564L102.305 68.2855C102.324 68.4117 102.446 68.5049 102.589 68.5024H102.589Z" fill="#B1D3A5"/>
<path d="M86.0994 68.5024H86.0681C85.8123 68.4972 85.6146 68.3005 85.6387 68.0742L87.3453 52.0315L88.8343 52.1564L86.3839 68.2855C86.3648 68.4117 86.2421 68.5049 86.0994 68.5024Z" fill="#6D976E"/>
<path d="M110.89 49.7589L112.509 36.36C112.722 34.4292 112.035 32.5382 109.075 32.3919L103.868 32.0934C100.781 31.9736 99.388 34.3916 98.9972 36.253L95.9056 50.9818L110.889 49.7585L110.89 49.7589Z" fill="#B1D3A5"/>
<path d="M86.9078 49.6981H110.864V51.4715C110.864 51.9103 110.486 52.2662 110.02 52.2662H86.9078C86.4416 52.2662 86.0636 51.9099 86.0636 51.4715V50.4928C86.0636 50.054 86.4421 49.6981 86.9078 49.6981Z" fill="#6D976E"/>
<path d="M96.5614 49.6981H110.864V51.649C110.864 51.9895 110.57 52.2662 110.208 52.2662H96.5614C96.1997 52.2662 95.9058 51.9895 95.9058 51.649V50.3153C95.9058 49.9749 96.1997 49.6981 96.5614 49.6981Z" fill="#B1D3A5"/>
</svg>
