<svg width="180" height="120" viewBox="0 0 180 120" fill="none" xmlns="http://www.w3.org/2000/svg">
<path d="M145.96 60C145.96 90.9601 120.906 116.058 89.9998 116.058C59.0939 116.058 34.0398 90.9601 34.0398 60C34.0398 29.0399 59.0939 3.94214 89.9998 3.94214C120.906 3.94214 145.96 29.0399 145.96 60Z" fill="#FAEFE4"/>
<path d="M114.787 108.742H62.3242V33.1233H120.55V103.817C120.55 106.537 117.97 108.742 114.787 108.742Z" fill="#F7F7F7"/>
<path d="M62.3108 36.634H120.44V33.1233H62.3108V36.634Z" fill="#C99158"/>
<path d="M105.868 74.7105C106.652 74.7105 106.652 73.8226 105.868 73.8226C96.142 73.8226 86.4161 73.8226 76.6904 73.8226C75.9063 73.8226 75.9063 74.7105 76.6904 74.7105H105.868Z" fill="#ADA69E"/>
<path d="M90.1083 39.0689C85.4331 39.0689 81.2487 41.143 78.4121 44.4203L90.1083 54.5729L101.804 44.4203C98.9678 41.143 94.7835 39.0689 90.1083 39.0689Z" fill="#F4E6D7"/>
<path d="M106.541 52.3009L91.2234 54.5072V70.0112C99.7779 70.0112 106.7 63.0769 106.7 54.5072C106.7 53.7577 106.644 53.0218 106.541 52.3009Z" fill="#996530"/>
<path d="M78.4286 44.4717C72.915 51.0238 73.7462 60.7952 80.2869 66.3183C80.859 66.8015 81.4568 67.2329 82.0731 67.6191L90.2621 54.4641L78.4286 44.4717Z" fill="#DBAC7D"/>
<path d="M90.241 69.989C87.3409 69.9897 84.4308 69.1786 81.8743 67.5268L90.2425 54.4856L90.241 69.989Z" fill="#C99158"/>
<path d="M107.328 51.4468C106.901 48.4297 105.606 45.6956 103.706 43.5006L92.0103 53.6531L107.328 51.4468Z" fill="#5A4B3B"/>
<path d="M74.8553 105.344H69.1697V91.626H74.8553V105.344Z" fill="#C99158"/>
<path d="M74.8553 92.7606H69.1697V86.3139H74.8553V92.7606Z" fill="#F4E6D7"/>
<path d="M112.285 105.963H106.599V92.2449H112.285V105.963Z" fill="#C99158"/>
<path d="M112.322 93.3796H106.599V80.6666H112.322V93.3796Z" fill="#F4E6D7"/>
<path d="M99.8084 105.654H94.123V91.1618H99.8084V105.654Z" fill="#C99158"/>
<path d="M99.8084 99.491H94.123V89.8725H99.8084V99.491Z" fill="#F4E6D7"/>
<path d="M87.3317 105.577H81.6462V86.1141H87.3317V105.577Z" fill="#C99158"/>
<path d="M87.3317 94.1447H81.6462V78.5779H87.3317V94.1447Z" fill="#F4E6D7"/>
<path d="M64.5316 34.4983C64.1881 34.4983 63.9086 34.7783 63.9086 35.1224C63.9086 35.4666 64.1881 35.7466 64.5316 35.7466C64.8752 35.7466 65.1547 35.4666 65.1547 35.1224C65.1547 34.7783 64.8752 34.4983 64.5316 34.4983ZM64.5316 35.8715C64.1193 35.8715 63.7839 35.5355 63.7839 35.1224C63.7839 34.7095 64.1193 34.3735 64.5316 34.3735C64.9439 34.3735 65.2793 34.7095 65.2793 35.1224C65.2793 35.5355 64.9439 35.8715 64.5316 35.8715Z" fill="white"/>
<path d="M66.8369 34.4983C66.4932 34.4983 66.2137 34.7783 66.2137 35.1224C66.2137 35.4666 66.4932 35.7466 66.8369 35.7466C67.1804 35.7466 67.4599 35.4666 67.4599 35.1224C67.4599 34.7783 67.1804 34.4983 66.8369 34.4983ZM66.8369 35.8715C66.4245 35.8715 66.0891 35.5355 66.0891 35.1224C66.0891 34.7095 66.4245 34.3735 66.8369 34.3735C67.2492 34.3735 67.5845 34.7095 67.5845 35.1224C67.5845 35.5355 67.2492 35.8715 66.8369 35.8715Z" fill="white"/>
<path d="M69.1423 34.4983C68.7988 34.4983 68.5192 34.7783 68.5192 35.1224C68.5192 35.4666 68.7988 35.7466 69.1423 35.7466C69.4858 35.7466 69.7653 35.4666 69.7653 35.1224C69.7653 34.7783 69.4858 34.4983 69.1423 34.4983ZM69.1423 35.8715C68.7299 35.8715 68.3945 35.5355 68.3945 35.1224C68.3945 34.7095 68.7299 34.3735 69.1423 34.3735C69.5545 34.3735 69.8899 34.7095 69.8899 35.1224C69.8899 35.5355 69.5545 35.8715 69.1423 35.8715Z" fill="white"/>
<path d="M63.8919 110.944H26.7771V53.523H34.4094C34.1654 55.6476 34.0398 57.8099 34.0398 60C34.0398 80.8751 45.4302 99.0852 62.3243 108.734V108.742H62.3387C63.4125 109.355 64.5093 109.934 65.626 110.476C65.1167 110.774 64.5241 110.944 63.8919 110.944Z" fill="#EADAC9"/>
<path d="M65.626 110.476C64.5093 109.934 63.4125 109.355 62.3387 108.742H67.1053C66.8212 109.474 66.2954 110.084 65.626 110.476ZM62.3243 108.734C45.4301 99.0851 34.0398 80.875 34.0398 60C34.0398 57.8099 34.1654 55.6476 34.4094 53.5229H62.3243V108.734Z" fill="#5A4A3A"/>
<path d="M67.1052 108.742H62.3242V53.523H67.3383V107.492C67.3383 107.933 67.2557 108.355 67.1052 108.742Z" fill="#ECEBE9"/>
<path d="M60.8522 109.338H22.1687V49.1787H65.874V104.307C65.874 107.085 63.6257 109.338 60.8522 109.338Z" fill="#DBAC7D"/>
<path d="M62.1879 76.3945H26.8074V53.9823H62.1879V76.3945Z" fill="white"/>
<path d="M49.2199 61.7553C49.3666 62.0517 49.6207 62.3053 50.1016 62.4851C50.9974 62.8201 52.2018 62.5782 52.7183 61.8269C53.5816 60.5706 53.3389 58.773 54.2678 57.4678C54.6448 56.9381 55.2199 56.5085 55.8975 56.315C56.5752 56.1213 57.3529 56.178 57.9559 56.5108C58.9383 57.0529 59.2782 58.173 59.2878 59.1895C59.3062 61.1419 59.0337 63.1601 58.6827 65.0868C58.5127 66.019 58.2512 66.9768 57.5767 67.7134C56.662 68.7123 55.1556 69.1284 53.7152 69.3507C50.0705 69.9135 46.3321 69.5695 42.6523 69.224C39.6923 68.9461 36.7323 68.6682 33.7724 68.3903C32.938 68.312 30.4812 68.4384 29.9816 67.8593C29.4939 67.2938 29.8772 65.3772 30.1625 64.7858C30.7978 63.4684 32.5354 62.7251 34.1663 62.8086C37.8449 62.9973 36.3907 59.1489 37.5682 57.3215C38.1937 56.3508 39.5712 55.6531 40.7576 56.0576C41.8891 56.4435 42.3616 57.5812 42.9193 58.5254C43.2088 59.0156 43.62 59.5237 44.2388 59.6298C45.2909 59.81 46.1686 58.7388 47.2397 58.7798C47.8739 58.8042 48.4135 59.233 48.6875 59.7342C49.0599 60.416 48.93 61.1694 49.2199 61.7553Z" fill="#F4E6D7"/>
<path d="M59.8753 75.1784C59.8738 75.1783 59.8811 73.5653 59.8814 73.4766C59.89 71.0695 59.8897 68.6621 59.8927 66.2548C59.8955 63.9547 60.0847 61.6555 60.0475 59.3612C60.0309 58.2998 59.5733 57.7451 58.4574 58.0298C57.3589 58.31 56.3539 58.9632 55.6625 59.8644C55.1942 60.4749 54.8049 61.2393 54.0765 61.4851C52.7748 61.9245 51.7097 60.4558 50.5408 59.7332C49.2821 58.9552 47.53 59.0861 46.4006 60.0427C45.0359 61.199 44.7228 63.1979 43.5677 64.5644C42.2964 66.0684 39.9872 66.5776 38.2029 65.7473C37.47 65.4061 36.84 64.8746 36.1175 64.5118C33.2523 63.073 29.2688 65.1433 28.7932 68.3184V74.8888C28.7932 74.8888 59.9331 75.2363 59.8753 75.1784Z" fill="#EAC5B0"/>
<path d="M30.0448 82.4753H27.3855V79.8113H30.0448V82.4753Z" fill="#996530"/>
<path d="M30.0448 86.4135H27.3855V83.7495H30.0448V86.4135Z" fill="#C99158"/>
<path d="M39.9882 81.4329H32.2415V80.6222H39.9882V81.4329Z" fill="#F7F7F7"/>
<path d="M39.8727 85.7185H32.126V84.9077H39.8727V85.7185Z" fill="#F7F7F7"/>
<path d="M61.4939 91.8319H27.7322V90.9559H61.4939V91.8319Z" fill="#F7F7F7"/>
<path d="M42.7631 105.503H27.7322V93.5005H42.7631V105.503Z" fill="#5A4B3B"/>
<path d="M61.494 98.843H45.0757V93.6163H61.494V98.843Z" fill="#C99158"/>
<path d="M61.3207 105.445H44.9023V100.218H61.3207V105.445Z" fill="#996530"/>
<path d="M46.947 24.3174H19.3243C19.2179 24.3174 19.1316 24.4115 19.1316 24.5277V39.1866C19.1316 42.8006 21.8156 45.7303 25.1268 45.7303H36.5798L41.2628 52.312C41.388 52.488 41.6647 52.4016 41.6679 52.1855L41.7641 45.7303H46.947C47.0534 45.7303 47.1397 45.6361 47.1397 45.52V24.5277C47.1397 24.4115 47.0534 24.3174 46.947 24.3174Z" fill="#996530"/>
<path d="M22.7488 28.5386H39.955V27.8205H22.7488V28.5386Z" fill="#F4E6D7"/>
<path d="M22.7488 34.0148H43.2709V33.2966H22.7488V34.0148Z" fill="#F4E6D7"/>
<path d="M22.7488 39.491H43.2709V38.7728H22.7488V39.491Z" fill="#F4E6D7"/>
<path d="M64.919 31.1902H44.4309V16.6417H63.616L67.7248 20.9889V28.1861C67.7248 29.8452 66.4686 31.1902 64.919 31.1902Z" fill="#C99158"/>
<path d="M67.7085 21.0235L63.5835 21.1274V16.6416L67.7085 21.0235Z" fill="#EAC5B0"/>
<path d="M63.12 21.041H50.0496V20.4174H63.12V21.041Z" fill="#DBAC7D"/>
<path d="M63.1198 24.0546H47.9788V23.4311H63.1198V24.0546Z" fill="#DBAC7D"/>
<path d="M63.1198 27.0682H47.9788V26.4447H63.1198V27.0682Z" fill="#DBAC7D"/>
<path d="M106.186 60.3105C106.109 60.3105 106.041 60.2533 106.031 60.1742C106.001 59.9611 105.982 59.7442 105.973 59.5299C105.97 59.4428 106.038 59.3693 106.124 59.3658C106.213 59.3625 106.285 59.4302 106.288 59.5174C106.297 59.7215 106.315 59.928 106.343 60.1311C106.354 60.2174 106.295 60.2972 106.208 60.309L106.186 60.3105Z" fill="#EAC5B0"/>
<path d="M145.376 44.0207C145.347 44.0207 145.318 44.0126 145.291 43.9956C145.218 43.9484 145.197 43.8507 145.244 43.7774C145.46 43.4388 145.672 43.077 145.87 42.7021C145.911 42.6252 146.007 42.5959 146.084 42.6366C146.16 42.6776 146.19 42.7732 146.149 42.8502C145.946 43.2329 145.731 43.6023 145.509 43.9482C145.478 43.9952 145.428 44.0207 145.376 44.0207ZM143.813 45.9852C143.773 45.9852 143.732 45.9698 143.701 45.9388C143.639 45.8772 143.639 45.7772 143.701 45.7156C143.984 45.4327 144.26 45.1209 144.523 44.7892C144.578 44.7208 144.677 44.7094 144.745 44.7635C144.813 44.8176 144.825 44.9169 144.77 44.9853C144.5 45.3266 144.215 45.6476 143.924 45.939C143.894 45.9699 143.853 45.9852 143.813 45.9852ZM141.812 47.4935C141.756 47.4935 141.702 47.4634 141.673 47.4104C141.632 47.3336 141.661 47.2379 141.738 47.1965C142.092 47.0054 142.44 46.7806 142.773 46.5287C142.842 46.476 142.941 46.4897 142.993 46.5592C143.046 46.6287 143.032 46.7277 142.963 46.7804C142.618 47.0422 142.256 47.2757 141.887 47.4746C141.864 47.4874 141.837 47.4935 141.812 47.4935ZM124.413 47.8439C124.329 47.8439 124.26 47.7774 124.256 47.6924C124.252 47.6053 124.32 47.5318 124.407 47.5282C124.819 47.5114 125.242 47.5003 125.668 47.4954C125.753 47.4966 125.825 47.5642 125.826 47.6514C125.828 47.7386 125.758 47.8101 125.671 47.8112C125.25 47.816 124.828 47.827 124.419 47.8437L124.413 47.8439ZM128.182 47.8474L128.176 47.8473C127.753 47.8308 127.331 47.8195 126.924 47.8134C126.836 47.8121 126.767 47.7403 126.768 47.6532C126.769 47.566 126.84 47.4936 126.928 47.4976C127.339 47.5037 127.763 47.5152 128.188 47.5317C128.275 47.535 128.343 47.6084 128.339 47.6956C128.336 47.7806 128.266 47.8474 128.182 47.8474ZM130.691 47.9984L130.678 47.998C130.256 47.9641 129.835 47.9345 129.428 47.9098C129.34 47.9045 129.274 47.8297 129.279 47.7426C129.285 47.6556 129.359 47.5899 129.446 47.5945C129.856 47.6194 130.279 47.6492 130.703 47.6832C130.789 47.6901 130.855 47.7662 130.847 47.8532C130.841 47.9358 130.771 47.9984 130.691 47.9984ZM121.908 48.0282C121.828 48.0282 121.76 47.9681 121.752 47.8873C121.742 47.8005 121.804 47.7226 121.891 47.7133C122.301 47.6688 122.724 47.6306 123.148 47.5996C123.234 47.5933 123.31 47.6586 123.316 47.7456C123.322 47.8325 123.257 47.9082 123.17 47.9146C122.75 47.9453 122.332 47.9832 121.925 48.0273L121.908 48.0282ZM133.191 48.2407L133.175 48.2398L132.801 48.1989C132.51 48.1675 132.218 48.1375 131.926 48.1089C131.84 48.1005 131.777 48.0234 131.786 47.9365C131.794 47.8498 131.871 47.786 131.957 47.7947C132.25 47.8233 132.543 47.8534 132.834 47.8849L133.208 47.9259C133.295 47.9354 133.357 48.0134 133.348 48.1C133.34 48.1808 133.271 48.2407 133.191 48.2407ZM139.449 48.3205C139.375 48.3205 139.309 48.2681 139.294 48.1926C139.278 48.107 139.334 48.0242 139.419 48.0077C139.835 47.9273 140.235 47.8205 140.611 47.6904C140.693 47.6619 140.783 47.7057 140.812 47.7881C140.84 47.8705 140.796 47.9604 140.714 47.9888C140.324 48.1238 139.909 48.2344 139.479 48.3177C139.469 48.3196 139.459 48.3205 139.449 48.3205ZM119.423 48.3952C119.348 48.3952 119.282 48.3424 119.269 48.2666C119.252 48.1809 119.308 48.0983 119.394 48.0821C119.799 48.005 120.218 47.9346 120.639 47.8728C120.725 47.8602 120.805 47.9198 120.817 48.0061C120.83 48.0924 120.771 48.1726 120.685 48.1853C120.269 48.2464 119.854 48.3161 119.452 48.3924C119.442 48.3942 119.432 48.3952 119.423 48.3952ZM135.693 48.4787L135.683 48.4784C135.308 48.4539 134.897 48.4194 134.426 48.3727C134.339 48.3642 134.276 48.2869 134.284 48.2001C134.293 48.1134 134.37 48.0496 134.457 48.0585C134.924 48.1047 135.332 48.139 135.704 48.1633C135.79 48.1689 135.856 48.2441 135.851 48.331C135.845 48.4146 135.775 48.4787 135.693 48.4787ZM137.075 48.5273L136.948 48.5267C136.861 48.5261 136.79 48.4549 136.791 48.3678C136.791 48.2806 136.86 48.2093 136.95 48.211L137.075 48.2115C137.465 48.2115 137.841 48.1976 138.192 48.1703C138.278 48.164 138.355 48.2286 138.361 48.3156C138.369 48.4025 138.304 48.4785 138.216 48.4853C137.857 48.513 137.473 48.5273 137.075 48.5273ZM116.979 48.9746C116.911 48.9746 116.847 48.9296 116.828 48.8603C116.803 48.7765 116.852 48.689 116.936 48.6649C117.334 48.5502 117.745 48.4425 118.158 48.3449C118.243 48.3248 118.328 48.3774 118.348 48.4623C118.368 48.5472 118.315 48.6322 118.23 48.6523C117.823 48.7487 117.416 48.8552 117.022 48.9685C117.008 48.9726 116.994 48.9746 116.979 48.9746ZM114.604 49.7941C114.542 49.7941 114.483 49.7568 114.458 49.6956C114.425 49.6147 114.464 49.5226 114.545 49.4899C114.93 49.3332 115.329 49.1837 115.729 49.0456C115.811 49.0173 115.902 49.0612 115.93 49.1436C115.959 49.226 115.914 49.3159 115.832 49.3443C115.436 49.4804 115.043 49.6279 114.664 49.7824C114.644 49.7903 114.624 49.7941 114.604 49.7941ZM112.335 50.8733C112.28 50.8733 112.226 50.8437 112.197 50.7914C112.155 50.7149 112.183 50.6188 112.26 50.5769C112.625 50.3753 113.005 50.1812 113.386 49.9998C113.465 49.9625 113.56 49.996 113.596 50.0748C113.634 50.1536 113.601 50.2478 113.522 50.2852C113.146 50.4638 112.771 50.655 112.411 50.8537C112.387 50.8669 112.361 50.8733 112.335 50.8733ZM110.236 52.2536C110.189 52.2536 110.142 52.2328 110.112 52.1932C110.058 52.1246 110.07 52.0253 110.138 51.9715C110.469 51.7116 110.816 51.4619 111.17 51.2294C111.243 51.1816 111.34 51.202 111.389 51.2748C111.436 51.3478 111.416 51.4457 111.342 51.4936C110.996 51.7212 110.656 51.9655 110.333 52.2198C110.304 52.2425 110.27 52.2536 110.236 52.2536ZM108.411 53.9799C108.374 53.9799 108.337 53.967 108.308 53.9409C108.242 53.8837 108.235 53.7839 108.292 53.7182C108.565 53.405 108.862 53.0965 109.175 52.801C109.238 52.7414 109.338 52.7443 109.397 52.8078C109.457 52.8713 109.454 52.9712 109.391 53.0309C109.085 53.3193 108.795 53.6203 108.529 53.9257C108.499 53.9615 108.455 53.9799 108.411 53.9799ZM106.99 56.0488C106.966 56.0488 106.941 56.0432 106.918 56.0313C106.841 55.9913 106.81 55.896 106.85 55.8185C107.039 55.4504 107.261 55.0822 107.509 54.7239C107.559 54.6522 107.656 54.6344 107.728 54.684C107.799 54.7337 107.817 54.832 107.768 54.9037C107.528 55.2508 107.314 55.6073 107.13 55.9633C107.102 56.0176 107.047 56.0488 106.99 56.0488ZM106.202 58.4262L106.178 58.4244C106.092 58.4113 106.033 58.3308 106.045 58.2446C106.108 57.83 106.21 57.4103 106.349 56.9972C106.377 56.9145 106.467 56.8701 106.549 56.8979C106.632 56.9257 106.676 57.0153 106.649 57.098C106.515 57.4938 106.417 57.8955 106.357 58.292C106.346 58.3702 106.279 58.4262 106.202 58.4262Z" fill="#EAC5B0"/>
<path d="M146.561 41.7947C146.54 41.7947 146.518 41.7904 146.498 41.7813C146.418 41.7461 146.381 41.6528 146.417 41.5731C146.5 41.3855 146.581 41.1913 146.659 40.9959C146.692 40.9151 146.785 40.8759 146.864 40.9085C146.945 40.9412 146.984 41.0331 146.952 41.114C146.872 41.3125 146.789 41.5099 146.705 41.7006C146.679 41.7596 146.622 41.7947 146.561 41.7947Z" fill="#EAC5B0"/>
<path d="M154.35 29.2082L153.691 44.1837L148.756 38.9926C148.756 38.9926 154.371 28.7883 154.41 28.9571L154.195 28.777C154.361 28.7294 148.188 38.6055 148.188 38.6055L141.26 36.8073L154.004 28.9516L154.35 29.2082Z" fill="#EAC5B0"/>
<path d="M145.62 98.801H130.389C130.755 98.4193 131.115 98.0318 131.47 97.6398H134.324V97.7136H134.389V97.6398H138.705V97.7136H138.77V97.6398H143.087V97.7136H143.152V97.6398H145.62V98.801Z" fill="#EADAC9"/>
<path d="M130.389 98.801H120.551V97.6398H121.182V97.7136H121.247V97.6398H125.563V97.7136H125.628V97.6398H129.944V97.7136H130.009V97.6398H131.47C131.115 98.0318 130.755 98.4193 130.389 98.801Z" fill="#5A4A3A"/>
<path d="M120.551 98.801H116.489V77.7049H117.485V97.6398H120.551V98.801Z" fill="#ECEBE9"/>
<path d="M117.485 97.6398H146.813V76.4808H117.485V97.6398Z" fill="#996530"/>
<path d="M117.485 78.1652H146.773V76.4809H117.485V78.1652Z" fill="#C99158"/>
<path d="M143.152 97.7136H143.087V97.6398H143.152V97.7136ZM138.77 97.7136H138.705V97.6398H138.77V97.7136ZM134.389 97.7136H134.324V97.6398H134.389V97.7136Z" fill="#E4D4C4"/>
<path d="M130.009 97.7136H129.944V97.6398H130.009V97.7136ZM125.628 97.7136H125.563V97.6398H125.628V97.7136ZM121.247 97.7136H121.182V97.6398H121.247V97.7136Z" fill="#584939"/>
<path d="M143.152 97.6398H143.087V93.9929H138.77V97.6398H138.705V93.9929H134.39V97.6398H134.324V93.9929H130.009V97.6398H129.944V93.9929H125.628V97.6398H125.563V93.9929H121.247V97.6398H121.182V93.9929H117.587V93.9277H121.182V89.9291H117.587V89.8639H121.182V85.8655H117.587V85.8001H121.182V81.8017H117.587V81.7363H121.182V78.1975H121.247V81.7363H125.563V78.1975H125.628V81.7363H129.944V78.1975H130.009V81.7363H134.324V78.1975H134.39V81.7363H138.705V78.1975H138.77V81.7363H143.087V78.1975H143.152V81.7363H146.752V81.8017H143.152V85.8001H146.752V85.8655H143.152V89.8639H146.752V89.9291H143.152V93.9277H146.752V93.9929H143.152V97.6398ZM138.77 89.9291V93.9277H143.087V89.9291H138.77ZM134.39 89.9291V93.9277H138.705V89.9291H134.39ZM130.009 89.9291V93.9277H134.324V89.9291H130.009ZM125.628 89.9291V93.9277H129.944V89.9291H125.628ZM121.247 89.9291V93.9277H125.563V89.9291H121.247ZM138.77 85.8655V89.8639H143.087V85.8655H138.77ZM134.39 85.8655V89.8639H138.705V85.8655H134.39ZM130.009 85.8655V89.8639H134.324V85.8655H130.009ZM125.628 85.8655V89.8639H129.944V85.8655H125.628ZM121.247 85.8655V89.8639H125.563V85.8655H121.247ZM138.77 81.8017V85.8001H143.087V81.8017H138.77ZM134.39 81.8017V85.8001H138.705V81.8017H134.39ZM130.009 81.8017V85.8001H134.324V81.8017H130.009ZM125.628 81.8017V85.8001H129.944V81.8017H125.628ZM121.247 81.8017V85.8001H125.563V81.8017H121.247Z" fill="#956330"/>
<path d="M143.657 80.8777C143.163 80.8777 142.762 81.2791 142.762 81.7741C142.762 82.0239 142.865 82.2497 143.029 82.4122C141.992 83.3074 140.954 84.2026 139.916 85.0976C139.838 85.1657 139.758 85.2338 139.679 85.3018C139.526 85.1781 139.331 85.1037 139.119 85.1037C138.625 85.1037 138.224 85.5051 138.224 86.0001C138.224 86.3153 138.386 86.5918 138.632 86.7517C138.405 87.2999 138.177 87.848 137.95 88.3962C137.854 88.63 137.756 88.8637 137.659 89.0975C137.594 89.0823 137.527 89.0736 137.458 89.0736C137.127 89.0736 136.839 89.2533 136.684 89.5199C135.682 88.8853 134.679 88.2506 133.677 87.6157C132.934 87.1455 132.191 86.6751 131.448 86.2049C131.489 86.1018 131.513 85.9898 131.513 85.872C131.513 85.377 131.112 84.9756 130.618 84.9756C130.124 84.9756 129.723 85.377 129.723 85.872C129.723 85.9348 129.73 85.996 129.742 86.0551C128.336 86.6299 126.93 87.2048 125.525 87.7795C125.386 87.8359 125.248 87.8922 125.111 87.9487C124.973 87.6311 124.658 87.4088 124.29 87.4088C123.796 87.4088 123.395 87.8101 123.395 88.3052C123.395 88.5622 123.504 88.7933 123.676 88.9569C123.468 89.1942 123.259 89.4315 123.05 89.669C122.054 90.8022 121.057 91.9355 120.061 93.0687C119.918 92.9719 119.745 92.9154 119.561 92.9154C119.066 92.9154 118.665 93.3168 118.665 93.8118C118.665 94.3069 119.066 94.7081 119.561 94.7081C120.054 94.7081 120.455 94.3069 120.455 93.8118C120.455 93.6204 120.395 93.4435 120.293 93.2979C121.144 92.3303 121.994 91.3628 122.845 90.3951C123.215 89.9753 123.584 89.5553 123.953 89.1354C124.057 89.1778 124.17 89.2016 124.29 89.2016C124.784 89.2016 125.184 88.8002 125.184 88.3052C125.184 88.2932 125.183 88.2814 125.183 88.2694C125.203 88.2611 125.223 88.2528 125.244 88.2444C126.785 87.6147 128.324 86.9849 129.865 86.3551C130.024 86.6035 130.302 86.7686 130.618 86.7686C130.878 86.7686 131.111 86.6572 131.274 86.4804C131.947 86.907 132.621 87.3335 133.294 87.7601C134.387 88.452 135.48 89.144 136.573 89.836C136.567 89.8798 136.562 89.9243 136.562 89.97C136.562 90.4651 136.963 90.8664 137.458 90.8664C137.951 90.8664 138.352 90.4651 138.352 89.97C138.352 89.6601 138.195 89.3871 137.957 89.2261C138.281 88.4428 138.606 87.6596 138.931 86.8763C138.992 86.8894 139.055 86.8966 139.119 86.8966C139.613 86.8966 140.014 86.4952 140.014 86.0001C140.014 85.8353 139.969 85.6815 139.891 85.5489C140.075 85.3904 140.258 85.232 140.442 85.0737C141.228 84.3955 142.015 83.7174 142.801 83.0392C142.97 82.8929 143.14 82.7466 143.309 82.6003C143.417 82.6455 143.534 82.6706 143.657 82.6706C144.151 82.6706 144.552 82.2692 144.552 81.7741C144.552 81.2791 144.151 80.8777 143.657 80.8777Z" fill="#F7F7F7"/>
<path d="M149.292 67.1477L145.782 72.7791L125.867 60.2114L129.377 54.58L149.292 67.1477Z" fill="#F7F7F7"/>
<path d="M156.152 75.3059L156.111 75.3708C155.005 77.1471 153.028 77.9129 151.699 77.0813L136.412 67.682L140.429 60.9142L155.749 70.5834C157.078 71.4151 157.259 73.5295 156.152 75.3059Z" fill="#996530"/>
<path d="M128.225 61.7542L127.664 61.3453L128.287 61.7381L128.225 61.7542Z" fill="#554738"/>
<path d="M128.287 61.7381L127.664 61.3453L127.406 61.1567C128.196 60.2844 128.919 59.3296 129.564 58.2955C130.099 57.4366 130.561 56.5521 130.952 55.6506L136.951 59.4851L128.287 61.7381Z" fill="#EBEBEA"/>
<path d="M127.2 56.8167C122.18 64.8701 111.595 67.3229 103.555 62.2951C95.5161 57.2673 93.0676 46.663 98.0866 38.6096C103.105 30.5561 113.691 28.1034 121.731 33.1311C129.77 38.1589 132.218 48.7633 127.2 56.8167ZM123.207 30.7624C113.861 24.918 101.556 27.7693 95.7221 37.1308C89.8879 46.4923 92.7341 58.8193 102.079 64.6638C111.424 70.5082 123.73 67.657 129.564 58.2955C135.398 48.9339 132.552 36.6069 123.207 30.7624Z" fill="#996530"/>
<path d="M120.55 62.9724V48.2053C120.596 48.1985 120.64 48.1919 120.685 48.1853C120.771 48.1726 120.83 48.0924 120.817 48.0061C120.806 47.9276 120.739 47.8711 120.662 47.8711C120.654 47.8711 120.646 47.8717 120.639 47.8728C120.609 47.8771 120.58 47.8815 120.55 47.8859V37.8174C121.423 38.6162 122.184 39.5497 122.801 40.6023C123.049 41.0274 123.435 41.2039 123.818 41.2039C124.64 41.2039 125.457 40.396 124.923 39.4853C123.805 37.5728 122.299 35.9839 120.55 34.784V33.1233H117.35C115.74 32.5249 114.023 32.2084 112.274 32.2084C111.271 32.2084 110.257 32.3127 109.247 32.5281C108.552 32.6763 107.877 32.8763 107.225 33.1233H103.561C106.294 31.4185 109.456 30.5208 112.657 30.5204C112.658 30.5204 112.659 30.5204 112.659 30.5204C112.66 30.5204 112.66 30.5204 112.66 30.5204C115.719 30.5208 118.816 31.34 121.611 33.0568C121.625 33.0659 121.64 33.0749 121.655 33.0841C121.659 33.0868 121.663 33.0895 121.668 33.0922C121.681 33.1001 121.694 33.1081 121.706 33.1161C121.715 33.121 121.723 33.1262 121.73 33.131C126.909 36.3698 129.768 41.9231 129.805 47.6174C129.685 47.6094 129.565 47.6018 129.446 47.5945C129.443 47.5944 129.44 47.5943 129.438 47.5943C129.355 47.5943 129.285 47.6585 129.279 47.7426C129.274 47.8297 129.34 47.9045 129.428 47.9098C129.552 47.9174 129.678 47.9254 129.805 47.9338C129.768 50.976 128.925 54.0473 127.2 56.8166C127.194 56.8269 127.187 56.8365 127.181 56.8468C127.177 56.8522 127.174 56.8587 127.169 56.8641C127.161 56.8774 127.154 56.8895 127.145 56.9027C125.462 59.5701 123.163 61.617 120.55 62.9724ZM123.16 47.5991C123.155 47.5991 123.151 47.5994 123.148 47.5996C122.723 47.6306 122.301 47.6688 121.891 47.7133C121.804 47.7226 121.742 47.8005 121.752 47.8873C121.76 47.9681 121.828 48.0282 121.908 48.0282L121.925 48.0273C122.332 47.9831 122.75 47.9453 123.17 47.9146C123.257 47.9082 123.322 47.8325 123.316 47.7456C123.31 47.6625 123.242 47.5991 123.16 47.5991ZM126.921 47.4975C126.836 47.4975 126.769 47.5683 126.768 47.6531C126.767 47.7403 126.836 47.8121 126.923 47.8134C127.331 47.8195 127.753 47.8308 128.176 47.8473L128.182 47.8474C128.266 47.8474 128.336 47.7806 128.339 47.6956C128.343 47.6084 128.275 47.535 128.188 47.5317C127.763 47.5151 127.339 47.5037 126.928 47.4976C126.926 47.4975 126.923 47.4975 126.921 47.4975ZM125.668 47.4954C125.242 47.5003 124.819 47.5114 124.407 47.5282C124.32 47.5318 124.252 47.6053 124.256 47.6924C124.26 47.7774 124.329 47.8439 124.413 47.8439L124.419 47.8437C124.828 47.827 125.25 47.816 125.671 47.8112C125.758 47.8101 125.828 47.7386 125.826 47.6514C125.825 47.5642 125.753 47.4966 125.668 47.4954ZM125.548 42.7108C125.022 42.7108 124.507 42.9747 124.207 43.4552C123.746 44.1962 123.971 45.1718 124.711 45.6344C124.971 45.797 125.26 45.8746 125.546 45.8746C126.072 45.8746 126.587 45.6107 126.887 45.1303C127.348 44.3894 127.123 43.4137 126.383 42.951C126.123 42.7884 125.834 42.7108 125.548 42.7108Z" fill="#A79889"/>
<path d="M112.627 64.9058C112.627 64.9058 112.627 64.9058 112.625 64.9058C109.805 64.9053 106.952 64.2089 104.335 62.7547C105.164 61.4332 105.8 59.977 106.202 58.4262C106.279 58.4259 106.346 58.37 106.358 58.292C106.417 57.8955 106.515 57.4938 106.649 57.098C106.676 57.0152 106.632 56.9257 106.549 56.8979C106.539 56.8945 106.529 56.8922 106.518 56.8909C106.638 56.1139 106.7 55.3179 106.7 54.5071C106.7 53.7577 106.644 53.0218 106.541 52.3008L96.5699 53.737C96.483 53.5038 96.4011 53.2684 96.3244 53.0318L107.328 51.4468C106.901 48.4297 105.606 45.6956 103.706 43.5006L100.28 46.4747C100.288 46.2163 100.303 45.9588 100.326 45.7034L101.805 44.4203C101.479 44.0445 101.137 43.6847 100.777 43.3418C101.58 40.6101 103.306 38.2234 105.658 36.634H119.035C119.568 36.9867 120.076 37.382 120.551 37.8173V47.8859C120.16 47.9445 119.771 48.0104 119.394 48.0821C119.308 48.0983 119.252 48.1809 119.269 48.2666C119.282 48.3424 119.348 48.3951 119.423 48.3951C119.432 48.3951 119.442 48.3942 119.452 48.3924C119.811 48.3243 120.18 48.2614 120.551 48.2052V62.9724C118.104 64.242 115.381 64.9053 112.629 64.9058C112.628 64.9058 112.628 64.9058 112.627 64.9058ZM106.131 59.3657C106.128 59.3657 106.126 59.3658 106.124 59.3658C106.038 59.3692 105.97 59.4427 105.973 59.5299C105.982 59.7442 106.001 59.961 106.031 60.1742C106.041 60.2532 106.108 60.3105 106.186 60.3105L106.208 60.3089C106.294 60.2971 106.354 60.2173 106.343 60.131C106.314 59.928 106.297 59.7214 106.288 59.5173C106.285 59.4322 106.216 59.3657 106.131 59.3657ZM107.638 54.6559C107.588 54.6559 107.54 54.6797 107.509 54.7239C107.261 55.0822 107.039 55.4504 106.85 55.8185C106.81 55.896 106.841 55.9912 106.918 56.0312C106.941 56.0431 106.966 56.0488 106.99 56.0488C107.047 56.0488 107.103 56.0176 107.13 55.9632C107.314 55.6072 107.528 55.2508 107.768 54.9037C107.817 54.832 107.799 54.7337 107.728 54.684C107.7 54.665 107.67 54.6559 107.638 54.6559ZM109.283 52.7581C109.244 52.7581 109.205 52.7723 109.175 52.801C108.862 53.0965 108.565 53.405 108.292 53.7182C108.235 53.7839 108.242 53.8837 108.308 53.9409C108.337 53.967 108.374 53.9799 108.411 53.9799C108.455 53.9799 108.499 53.9614 108.529 53.9257C108.795 53.6203 109.085 53.3192 109.391 53.0309C109.454 52.9711 109.457 52.8712 109.397 52.8078C109.367 52.7747 109.325 52.7581 109.283 52.7581ZM111.256 51.2036C111.227 51.2036 111.196 51.2119 111.17 51.2293C110.816 51.4619 110.469 51.7116 110.138 51.9714C110.07 52.0252 110.058 52.1246 110.112 52.1931C110.142 52.2328 110.189 52.2536 110.236 52.2536C110.27 52.2536 110.304 52.2425 110.333 52.2198C110.656 51.9654 110.996 51.7211 111.342 51.4936C111.416 51.4457 111.436 51.3478 111.389 51.2748C111.358 51.2286 111.308 51.2036 111.256 51.2036ZM113.453 49.9845C113.431 49.9845 113.408 49.9894 113.386 49.9998C113.005 50.1811 112.625 50.3752 112.26 50.5769C112.183 50.6188 112.155 50.7149 112.197 50.7913C112.226 50.8437 112.28 50.8732 112.335 50.8732C112.361 50.8732 112.387 50.8669 112.411 50.8537C112.772 50.655 113.146 50.4638 113.522 50.2851C113.601 50.2478 113.634 50.1536 113.596 50.0748C113.57 50.0179 113.513 49.9845 113.453 49.9845ZM115.781 49.0369C115.764 49.0369 115.746 49.0398 115.729 49.0456C115.329 49.1837 114.93 49.3331 114.545 49.4899C114.464 49.5226 114.425 49.6147 114.458 49.6956C114.483 49.7568 114.542 49.7941 114.604 49.7941C114.624 49.7941 114.644 49.7903 114.664 49.7824C115.043 49.6279 115.436 49.4804 115.832 49.3443C115.914 49.3159 115.959 49.226 115.93 49.1436C115.907 49.0781 115.846 49.0369 115.781 49.0369ZM118.195 48.3406C118.182 48.3406 118.17 48.342 118.158 48.3449C117.745 48.4425 117.334 48.5502 116.936 48.6649C116.852 48.689 116.803 48.7765 116.828 48.8603C116.848 48.9296 116.911 48.9746 116.979 48.9746C116.994 48.9746 117.008 48.9726 117.022 48.9685C117.416 48.8551 117.823 48.7487 118.23 48.6523C118.315 48.6322 118.368 48.5471 118.348 48.4623C118.33 48.3896 118.266 48.3406 118.195 48.3406ZM95.7013 50.4492C95.6665 50.2334 95.6355 50.0156 95.6089 49.7984L98.0954 47.6401C98.2071 47.7965 98.355 47.9171 98.5214 48.0014L95.7013 50.4492ZM98.7901 41.7361C98.2143 41.3444 97.611 40.9907 96.9832 40.6783C97.2995 39.974 97.6669 39.2829 98.0865 38.6096C98.104 38.5816 98.1216 38.5534 98.1392 38.5257C98.1414 38.5222 98.1431 38.5194 98.1453 38.516C98.5664 37.8497 99.0263 37.2217 99.5193 36.634H101.972C100.587 38.0891 99.4992 39.8288 98.7901 41.7361ZM120.551 34.784C120.514 34.7587 120.477 34.7334 120.44 34.7085V33.1232H117.35H120.551V34.784Z" fill="#F5EEE7"/>
<path d="M119.035 36.634H105.658C106.672 35.9481 107.802 35.4109 109.027 35.0582C110.107 34.7469 111.208 34.5973 112.298 34.5973C114.697 34.5973 117.047 35.3203 119.035 36.634ZM101.972 36.634H99.5193C100.696 35.2316 102.064 34.0566 103.561 33.1233H107.225C105.211 33.888 103.427 35.1036 101.972 36.634ZM120.44 34.7086C119.474 34.0591 118.436 33.5271 117.35 33.1233H120.44V34.7086Z" fill="#DFBC98"/>
<path d="M95.609 49.7984C95.5236 49.1021 95.4805 48.4004 95.4805 47.6961C95.4806 45.3268 95.9696 42.9352 96.9833 40.6783C97.6111 40.9907 98.2144 41.3444 98.7902 41.7361C98.3828 42.8321 98.1004 43.9833 97.9589 45.1678C97.8882 45.759 97.8708 46.3556 97.8801 46.9505C97.8844 47.228 97.9655 47.4582 98.0955 47.6401L95.609 49.7984ZM100.326 45.7035C100.4 44.896 100.553 44.1052 100.777 43.3418C101.137 43.6847 101.479 44.0445 101.805 44.4203L100.326 45.7035Z" fill="#F4E6D7"/>
<path d="M104.334 62.7548C104.072 62.6092 103.812 62.4559 103.555 62.2951C100.22 60.209 97.8464 57.1628 96.5698 53.7371L106.541 52.3009C106.644 53.0218 106.7 53.7577 106.7 54.5072C106.7 55.3179 106.638 56.1139 106.518 56.891C106.512 56.89 106.506 56.8896 106.499 56.8896C106.433 56.8896 106.372 56.9313 106.349 56.9972C106.21 57.4103 106.108 57.83 106.045 58.2447C106.033 58.3309 106.092 58.4113 106.178 58.4244L106.202 58.4262C105.799 59.9771 105.164 61.4333 104.334 62.7548Z" fill="#C7A684"/>
<path d="M96.3243 53.0318C96.0507 52.1879 95.8424 51.325 95.7012 50.4493L98.5213 48.0015C98.7121 48.0982 98.9274 48.1472 99.1399 48.1472C99.7239 48.1473 100.288 47.7784 100.276 47.0205C100.274 46.8379 100.275 46.6562 100.28 46.4747L103.706 43.5006C105.606 45.6956 106.901 48.4297 107.328 51.4469L96.3243 53.0318Z" fill="#A79889"/>
<path d="M106.186 60.3105C106.109 60.3105 106.041 60.2533 106.031 60.1742C106.001 59.9611 105.982 59.7442 105.973 59.5299C105.97 59.4428 106.038 59.3693 106.124 59.3658C106.126 59.3658 106.129 59.3657 106.131 59.3657C106.216 59.3657 106.285 59.4322 106.288 59.5174C106.297 59.7215 106.315 59.928 106.343 60.1311C106.354 60.2174 106.295 60.2972 106.208 60.309L106.186 60.3105Z" fill="#E0D7D2"/>
<path d="M106.202 58.4262L106.178 58.4244C106.092 58.4113 106.033 58.3308 106.045 58.2446C106.108 57.83 106.21 57.4103 106.349 56.9972C106.372 56.9313 106.433 56.8896 106.499 56.8896C106.506 56.8896 106.512 56.89 106.518 56.8909C106.529 56.8922 106.539 56.8945 106.549 56.8979C106.632 56.9257 106.676 57.0153 106.649 57.098C106.515 57.4938 106.417 57.8955 106.357 58.292C106.346 58.37 106.279 58.4259 106.202 58.4262ZM106.99 56.0488C106.966 56.0488 106.941 56.0432 106.918 56.0313C106.841 55.9913 106.81 55.896 106.85 55.8185C107.039 55.4504 107.261 55.0822 107.509 54.7239C107.54 54.6797 107.588 54.6559 107.638 54.6559C107.67 54.6559 107.7 54.665 107.728 54.684C107.799 54.7337 107.817 54.832 107.768 54.9037C107.528 55.2508 107.314 55.6073 107.13 55.9633C107.102 56.0176 107.047 56.0488 106.99 56.0488ZM108.411 53.9799C108.374 53.9799 108.337 53.967 108.308 53.9409C108.242 53.8837 108.235 53.7839 108.292 53.7182C108.565 53.405 108.862 53.0965 109.175 52.801C109.205 52.7723 109.244 52.7581 109.283 52.7581C109.325 52.7581 109.367 52.7747 109.397 52.8078C109.457 52.8713 109.454 52.9712 109.391 53.0309C109.085 53.3193 108.795 53.6203 108.529 53.9257C108.499 53.9615 108.455 53.9799 108.411 53.9799ZM110.236 52.2536C110.189 52.2536 110.142 52.2328 110.112 52.1932C110.058 52.1246 110.07 52.0253 110.138 51.9715C110.469 51.7116 110.816 51.4619 111.17 51.2294C111.196 51.2119 111.227 51.2036 111.256 51.2036C111.308 51.2036 111.358 51.2286 111.389 51.2748C111.436 51.3478 111.416 51.4457 111.342 51.4936C110.996 51.7212 110.656 51.9655 110.333 52.2198C110.304 52.2425 110.27 52.2536 110.236 52.2536ZM112.335 50.8733C112.28 50.8733 112.226 50.8437 112.197 50.7914C112.155 50.7149 112.183 50.6188 112.26 50.5769C112.625 50.3753 113.005 50.1812 113.386 49.9998C113.408 49.9895 113.431 49.9845 113.453 49.9845C113.513 49.9845 113.57 50.0179 113.596 50.0748C113.634 50.1536 113.601 50.2478 113.522 50.2852C113.146 50.4638 112.771 50.655 112.411 50.8537C112.387 50.8669 112.361 50.8733 112.335 50.8733ZM114.604 49.7941C114.542 49.7941 114.483 49.7568 114.458 49.6956C114.425 49.6147 114.464 49.5226 114.545 49.4899C114.93 49.3332 115.329 49.1837 115.729 49.0456C115.746 49.0398 115.764 49.0369 115.781 49.0369C115.846 49.0369 115.907 49.0781 115.93 49.1436C115.959 49.226 115.914 49.3159 115.832 49.3443C115.436 49.4804 115.043 49.6279 114.664 49.7824C114.644 49.7903 114.624 49.7941 114.604 49.7941ZM116.979 48.9746C116.911 48.9746 116.847 48.9296 116.828 48.8603C116.803 48.7765 116.852 48.689 116.936 48.6649C117.334 48.5502 117.745 48.4425 118.158 48.3449C118.17 48.342 118.182 48.3406 118.195 48.3406C118.266 48.3406 118.33 48.3896 118.348 48.4623C118.368 48.5472 118.315 48.6322 118.23 48.6523C117.823 48.7487 117.416 48.8552 117.022 48.9685C117.008 48.9726 116.994 48.9746 116.979 48.9746ZM119.423 48.3952C119.348 48.3952 119.282 48.3424 119.269 48.2666C119.252 48.1809 119.308 48.0983 119.394 48.0821C119.771 48.0104 120.16 47.9445 120.55 47.8859C120.58 47.8815 120.609 47.8772 120.639 47.8728C120.646 47.8717 120.655 47.8712 120.662 47.8712C120.739 47.8712 120.806 47.9276 120.817 48.0061C120.83 48.0924 120.771 48.1726 120.685 48.1853C120.64 48.1919 120.596 48.1985 120.55 48.2053C120.18 48.2615 119.811 48.3243 119.452 48.3924C119.442 48.3942 119.432 48.3952 119.423 48.3952ZM121.908 48.0282C121.828 48.0282 121.76 47.9681 121.752 47.8873C121.742 47.8005 121.804 47.7226 121.891 47.7133C122.301 47.6688 122.724 47.6306 123.148 47.5996C123.151 47.5994 123.155 47.5992 123.16 47.5992C123.242 47.5992 123.31 47.6625 123.316 47.7456C123.322 47.8325 123.257 47.9082 123.17 47.9146C122.75 47.9453 122.332 47.9832 121.925 48.0273L121.908 48.0282ZM129.805 47.9338C129.678 47.9254 129.552 47.9174 129.428 47.9098C129.34 47.9045 129.274 47.8297 129.279 47.7426C129.285 47.6585 129.355 47.5943 129.438 47.5943C129.44 47.5943 129.443 47.5944 129.446 47.5945C129.565 47.6018 129.685 47.6094 129.805 47.6174C129.806 47.6552 129.806 47.6923 129.806 47.7301C129.806 47.7981 129.805 47.8658 129.805 47.9338ZM128.182 47.8474L128.176 47.8473C127.753 47.8308 127.331 47.8195 126.924 47.8134C126.836 47.8121 126.767 47.7403 126.768 47.6532C126.769 47.5683 126.836 47.4975 126.921 47.4975C126.924 47.4975 126.926 47.4975 126.928 47.4976C127.339 47.5037 127.763 47.5152 128.188 47.5317C128.275 47.535 128.343 47.6084 128.339 47.6956C128.336 47.7806 128.266 47.8474 128.182 47.8474ZM124.413 47.8439C124.329 47.8439 124.26 47.7774 124.256 47.6924C124.252 47.6053 124.32 47.5318 124.407 47.5282C124.819 47.5114 125.242 47.5003 125.668 47.4954C125.753 47.4966 125.825 47.5642 125.826 47.6514C125.828 47.7386 125.758 47.8101 125.671 47.8112C125.25 47.816 124.828 47.827 124.419 47.8437L124.413 47.8439Z" fill="#E0D7D2"/>
<path d="M112.629 64.9058C115.381 64.9053 118.104 64.242 120.551 62.9724C123.163 61.617 125.462 59.5701 127.145 56.9027C123.884 62.0693 118.32 64.9054 112.629 64.9058ZM103.555 62.295C98.3425 59.0348 95.4803 53.4299 95.4805 47.6961C95.4805 48.4004 95.5236 49.1021 95.609 49.7984C95.6356 50.0156 95.6666 50.2335 95.7013 50.4492C95.8426 51.3249 96.0508 52.1879 96.3245 53.0318C96.4012 53.2684 96.4831 53.5038 96.57 53.737C97.8466 57.1627 100.22 60.2089 103.555 62.295ZM127.2 56.8166C128.925 54.0472 129.768 50.976 129.805 47.9338C129.805 47.8658 129.806 47.7981 129.806 47.7301C129.806 50.8388 128.964 53.9853 127.2 56.8166ZM98.1454 38.516C101.408 33.354 106.969 30.5207 112.657 30.5204C109.456 30.5208 106.295 31.4185 103.561 33.1232C102.064 34.0565 100.696 35.2316 99.5194 36.634C99.0264 37.2217 98.5665 37.8497 98.1454 38.516Z" fill="#C7A684"/>
<path d="M123.818 41.2039C123.435 41.2039 123.049 41.0274 122.801 40.6023C122.184 39.5497 121.423 38.6162 120.55 37.8174V34.784C122.299 35.9839 123.805 37.5729 124.923 39.4853C125.457 40.396 124.64 41.2039 123.818 41.2039ZM117.35 33.1233H107.225C107.877 32.8763 108.551 32.6763 109.247 32.5281C110.257 32.3128 111.271 32.2084 112.274 32.2084C114.023 32.2084 115.74 32.525 117.35 33.1233Z" fill="#BAAFA3"/>
<path d="M98.5214 48.0015C98.3551 47.9171 98.2072 47.7965 98.0955 47.6401L100.326 45.7035C100.303 45.9588 100.288 46.2163 100.28 46.4747L98.5214 48.0015ZM100.777 43.3418C100.161 42.7542 99.4963 42.2165 98.7902 41.7361C99.4993 39.8288 100.587 38.0891 101.972 36.634H105.658C103.306 38.2235 101.58 40.6101 100.777 43.3418ZM120.551 37.8174C120.076 37.382 119.568 36.9867 119.035 36.634H120.44V34.7085C120.477 34.7335 120.514 34.7587 120.551 34.784V37.8174Z" fill="#F7F2EC"/>
<path d="M120.44 36.634H119.035C117.047 35.3203 114.696 34.5973 112.298 34.5973C111.208 34.5973 110.107 34.7469 109.026 35.0582C107.802 35.4109 106.672 35.9481 105.658 36.634H101.971C103.427 35.1036 105.211 33.888 107.225 33.1233H117.35C118.436 33.5271 119.474 34.0591 120.44 34.7086V36.634Z" fill="#E6CBAF"/>
<path d="M98.0954 47.6401C97.9654 47.4582 97.8843 47.228 97.88 46.9506C97.8707 46.3556 97.8882 45.7591 97.9588 45.1678C98.1003 43.9834 98.3827 42.8321 98.7902 41.7361C99.4962 42.2166 100.161 42.7542 100.777 43.3418C100.553 44.1053 100.4 44.896 100.326 45.7035L98.0954 47.6401Z" fill="#F6EBE0"/>
<path d="M99.1401 48.1472C98.9276 48.1472 98.7123 48.0982 98.5215 48.0015L100.28 46.4747C100.275 46.6562 100.274 46.8379 100.277 47.0205C100.288 47.7784 99.7241 48.1473 99.1401 48.1472Z" fill="#BAAFA3"/>
<path d="M125.546 45.8746C125.26 45.8746 124.971 45.7971 124.711 45.6344C123.971 45.1718 123.746 44.1962 124.207 43.4552C124.507 42.9747 125.022 42.7108 125.548 42.7108C125.834 42.7108 126.123 42.7884 126.383 42.9511C127.123 43.4137 127.348 44.3894 126.887 45.1303C126.587 45.6107 126.072 45.8746 125.546 45.8746Z" fill="#C2B8AE"/>
<path d="M136.615 67.4579L140.438 61.0188C140.569 60.7977 140.511 60.5128 140.305 60.3597L140.238 60.31C139.998 60.1321 139.657 60.2024 139.508 60.4608L135.744 66.9447C135.603 67.1875 135.688 67.4987 135.933 67.6351L135.942 67.6399C136.179 67.7716 136.477 67.6909 136.615 67.4579Z" fill="#DBAC7D"/>
<path d="M129.382 47.836C129.368 51.9678 127.87 55.9726 125.146 59.0795C122.458 62.1464 118.714 64.1263 114.688 64.6981C110.571 65.2826 106.322 64.2366 102.882 61.926C99.5324 59.6756 97.088 56.2038 96.0162 52.3185C94.9048 48.2897 95.3649 43.8959 97.2384 40.1682C99.0431 36.5773 102.147 33.6873 105.848 32.1345C109.71 30.5135 114.096 30.4161 118.046 31.7863C121.85 33.1058 125.08 35.8491 127.104 39.3197C128.608 41.8975 129.372 44.8562 129.382 47.836C129.384 48.4257 130.298 48.4259 130.295 47.836C130.281 43.6965 128.851 39.7106 126.256 36.494C123.722 33.3535 120.091 31.1575 116.159 30.3072C112.08 29.4252 107.767 30.0395 104.072 31.9675C100.521 33.8207 97.6574 36.9226 96.0363 40.5826C94.3416 44.4083 94.0619 48.7767 95.2022 52.7988C96.3041 56.6854 98.7679 60.0851 102.028 62.4414C105.38 64.8639 109.568 65.9987 113.68 65.7152C117.757 65.4341 121.635 63.7064 124.624 60.9273C128.237 57.5703 130.278 52.758 130.295 47.836C130.298 47.2461 129.384 47.2463 129.382 47.836Z" fill="#F7F7F7"/>
<path d="M153.788 79.077C154.433 77.3811 155.367 74.0287 155.904 72.4012C154.727 68.4367 152.305 61.8145 152.054 61.7417C150.587 61.316 149.279 60.9265 147.815 60.5033C147.748 60.4839 147.319 62.6764 147.251 62.6569C147.196 62.6411 147.174 62.2032 147.158 61.7019V61.7012L146.875 58.8514C146.867 58.6132 146.704 58.4088 146.473 58.3488C145.616 58.1258 143.765 57.6904 143.685 57.825C143.654 57.8746 143.494 60.3485 143.362 61.0552L143.053 60.8938L142.65 56.2772C142.65 56.2772 139.448 55.469 139.385 55.6178C139.311 55.7927 138.599 59.7093 138.599 59.7093C138.599 59.7093 137.36 69.0561 137.219 69.7206C137.013 70.6938 136.365 71.5657 136.458 72.536C136.562 73.6196 137.036 74.6253 137.504 75.6121C138.634 77.9939 139.763 80.3756 140.893 82.7573C141.14 84.374 141.398 88.0771 141.769 89.6684C145.947 88.8239 150.144 88.1848 154.794 86.7022C154.925 86.6603 153.51 79.8081 153.788 79.077Z" fill="#EAC5B0"/>
<path d="M140.621 95.7537L139.656 87.258L156.36 81.0619L159.264 91.4196L140.678 96.9781L140.621 95.7537Z" fill="#F7F7F7"/>
<path d="M159.906 86.0779C159.906 86.0779 142.725 95.9132 139.173 96.8445L138.191 120H167.403L159.906 86.0779Z" fill="#DBAC7D"/>
<path d="M143.207 90.7159C143.071 91.2252 142.55 91.5284 142.041 91.3935C141.534 91.2584 141.23 90.7362 141.366 90.2269C141.5 89.7177 142.021 89.4143 142.53 89.5494C143.038 89.6843 143.341 90.2066 143.207 90.7159Z" fill="#5A4B3B"/>
<path d="M135.499 72.846L133.271 69.3261L130.045 66.3173C130.045 66.3173 129.419 64.5034 131.44 64.4532C133.461 64.403 134.821 66.0958 135.716 67.4392C136.109 68.0301 138.011 69.7497 139.487 70.8018C141.418 72.178 139.4 78.2377 139.4 78.2377C139.4 78.2377 135.723 73.1819 135.499 72.846Z" fill="#EAC5B0"/>
</svg>
