<svg width="390" height="330" viewBox="0 0 390 330" fill="none" xmlns="http://www.w3.org/2000/svg">
<g clip-path="url(#clip0_496_6774)">
<path opacity="0.1" d="M405.163 87.8028C400.961 78.0518 395.284 69.0056 388.33 60.9819L154.791 58.6811L347.072 31.6744C334.651 26.7277 321.427 24.1038 308.058 23.9334C289.664 9.23106 267.016 0.859052 243.482 0.0627012C219.948 -0.73365 196.785 6.08821 177.44 19.5135C161.98 11.5659 144.841 7.43563 127.458 7.46832C75.5677 7.46832 32.3272 43.4057 22.6283 91.066L405.163 87.8028Z" fill="#5B8B43"/>
<path opacity="0.1" d="M413.375 127.772C413.386 114.848 410.915 102.042 406.097 90.0499L1.34263 132.535C-2.8312 140.084 -6.02392 148.135 -8.15806 156.493L117.181 175.18L-11.0207 188.812C-7.16255 242.763 39.0893 285.367 95.5894 285.367C124.029 285.367 149.875 274.57 169.021 256.965C188.233 274.904 214.323 285.933 243.069 285.933C285.723 285.933 322.536 261.649 339.678 226.533C374.075 215.62 400.793 188.208 409.938 153.919L251.45 129.317H413.375C413.367 128.8 413.375 128.288 413.375 127.772Z" fill="#5B8B43"/>
<path d="M107.42 330C159.206 330 201.187 323.118 201.187 314.63C201.187 306.141 159.206 299.259 107.42 299.259C55.6334 299.259 13.6522 306.141 13.6522 314.63C13.6522 323.118 55.6334 330 107.42 330Z" fill="#5B8B43"/>
<path d="M204.397 215.616C200.18 216.673 195.851 214.616 195.851 214.616C195.851 214.616 192.158 210.341 189.043 209.763C185.928 209.184 184.722 214.244 182.872 215.546C181.591 216.459 172.355 215.806 166.762 215.318L165.799 215.232C165.704 215.162 165.609 215.087 165.506 215.021C165.506 215.021 160.136 213.369 159.017 211.906C157.897 210.444 150.417 207.739 148.095 207.896C145.774 208.053 138.912 208.424 138.912 208.424C138.912 208.424 136.223 205.363 135.009 205.681C133.795 206 129.573 205.657 129.573 205.657C129.573 205.657 128.412 202.674 127.251 198.399C126.71 196.404 124.909 195.004 123.145 194.082C124.732 188.712 121.906 173.396 113.133 170.401C111.22 169.748 110.241 167.58 108.614 166.39C107.155 165.328 104.768 162.825 105.937 158.302C107.589 151.97 111.687 141.998 111.687 141.998L114.739 135.901C114.455 136.333 114.131 136.738 113.773 137.111C114.186 136.583 114.599 136.062 114.954 135.624C118.001 137.163 121.323 138.079 124.728 138.318C128.173 139.71 131.613 140.936 132.952 140.891C136.013 140.784 143.82 144.691 143.82 144.691C143.82 144.691 162.602 150.061 166.506 150.495C170.409 150.929 172.309 145.852 172.309 145.852C172.309 145.852 174.338 135.843 170.736 133.191C167.134 130.539 165.039 142.692 165.039 142.692L140.466 133.836L138.95 133.038C140.127 131.793 141.061 130.339 141.705 128.751C142.085 127.805 142.432 126.723 143.337 126.252C143.58 126.131 143.843 126.054 144.113 126.024C144.337 126.01 144.562 126.01 144.786 126.024C149.049 126.285 152.713 129.639 156.984 129.655C157.141 129.655 157.298 129.655 157.455 129.655C158.27 129.653 159.065 129.409 159.74 128.953C160.121 128.643 160.434 128.258 160.66 127.821C160.886 127.385 161.02 126.907 161.053 126.417C160.991 126.55 160.922 126.679 160.847 126.805C160.958 126.198 160.958 125.575 160.847 124.967C160.582 123.517 159.826 122.216 159.149 120.906C158.957 120.601 158.849 120.251 158.835 119.89C158.854 119.702 158.911 119.52 159.003 119.355C159.095 119.189 159.219 119.044 159.368 118.928C159.374 118.967 159.382 119.005 159.393 119.044C159.715 118.741 160.073 118.478 160.458 118.263C161.502 117.578 162.395 116.686 163.08 115.642C163.765 114.599 164.228 113.425 164.44 112.195C164.337 112.5 164.213 112.802 164.081 113.099C164.716 111.002 164.562 108.746 163.647 106.755C163.41 106.188 163.032 105.692 162.549 105.313C161.008 104.231 158.938 105.383 157.059 105.507C155.407 105.615 153.804 104.875 152.313 104.127C149.768 102.851 147.236 101.471 145.117 99.5836C142.709 97.4233 140.92 94.6681 138.747 92.2764C136.575 89.8847 133.786 87.7532 130.552 87.5136C124.674 87.0593 119.13 92.8836 113.542 90.9835C110.815 90.0623 109.023 87.5426 107.127 85.3781C105.231 83.2136 102.624 81.1358 99.7821 81.6026C97.8076 81.933 96.0975 83.4655 94.0982 83.4077C93.0531 83.3746 92.0824 82.9079 91.091 82.5815C88.6911 81.7761 85.403 82.1685 84.5479 84.556C84.38 85.0423 84.3206 85.5596 84.3742 86.0713C84.4277 86.583 84.5928 87.0768 84.8578 87.5178C84.7314 87.6951 84.6181 87.8815 84.519 88.0754C84.3137 88.4538 84.2424 88.8906 84.3166 89.3146C82.6178 90.8395 81.359 92.7921 80.6715 94.9688C79.9839 97.1456 79.8927 99.467 80.4073 101.691C80.922 103.915 82.0237 105.96 83.5976 107.614C85.1716 109.267 87.1601 110.468 89.3561 111.092C89.4346 111.393 89.5131 111.695 89.5874 112.001C90.3888 115.375 90.806 119.176 89.6205 121.737C89.5461 121.894 89.4676 122.047 89.3809 122.195L89.2776 122.241L89.3231 122.286L89.2776 122.241L89.1289 122.088L88.2284 121.146C88.1789 120.163 87.6253 117.528 83.7755 112.637C78.7071 106.197 77.757 95.5397 77.757 95.5397C77.757 95.5397 76.493 90.054 77.757 88.472C79.021 86.8899 81.136 69.4706 81.136 69.4706L84.6306 59.6643C84.6306 59.6643 101.62 42.3565 94.5443 40.2498C89.7403 38.8164 84.011 46.2022 80.8303 51.0847C79.268 53.4822 78.2578 56.1967 77.8727 59.0322L68.2687 85.3078C68.2687 85.3078 67.3187 88.4761 68.2687 93.9617C69.2188 99.4473 71.3296 109.159 71.3296 109.159L76.6996 122.769C76.6996 122.769 78.6782 128.647 78.5047 131.2C78.2692 131.353 77.4431 132.989 76.7285 134.476L76.2039 135.302L76.1667 135.637C75.8156 136.384 75.5719 136.921 75.5719 136.921C75.5719 136.921 72.5812 145.749 75.0803 151.164C77.5794 156.579 77.6785 159.091 77.6785 159.091L79.5415 167.113L80.3181 174.135L87.0181 190.703L93.1894 199.514C93.1894 199.514 92.6111 206.004 91.343 206.9C90.0749 207.796 90.6573 212.439 90.6573 212.439L89.8642 224.625C89.8642 224.625 87.3858 228.268 87.2288 234.175C87.0718 240.082 86.1713 241.776 86.1713 241.776C86.1713 241.776 85.7583 246.733 86.9107 249.005C88.0632 251.276 85.0643 253.648 85.0643 253.648L87.6377 262.483L86.634 273.669C86.634 273.669 87.1007 273.797 87.8732 273.991L87.7162 274.793L83.5194 295.983C83.5194 295.983 81.2516 301.791 81.1484 303.158L73.8122 316.406C73.8122 316.406 67.6904 322.474 70.5943 323.052C73.4982 323.63 81.9415 318.409 81.9415 318.409C81.9415 318.409 88.9059 310.916 91.6487 310.234C94.3915 309.553 97.4317 307.591 96.556 304.745C95.6803 301.899 93.6645 297.57 95.6059 292.976C96.8451 290.085 99.4805 282.236 101.29 276.759C101.389 276.457 101.484 276.168 101.579 275.887C102.058 275.844 102.531 275.754 102.992 275.619C107.424 274.247 109.745 275.206 109.745 275.206L117.66 243.18L119.399 227.112L130.482 236.356C132.674 238.185 135.397 239.261 138.247 239.425C142.614 239.682 149.425 240.314 154.357 241.838L156.423 233.238C156.423 233.238 162.33 233.452 163.598 231.445C164.114 230.619 164.622 229.916 165.039 229.379L165.998 229.231L192.141 225.187C196.995 225.187 203.645 221.911 203.645 221.911L207.71 221.122C207.71 221.122 213.774 219.908 214.319 218.904C214.864 217.9 208.623 214.567 204.397 215.616Z" fill="url(#paint0_linear_496_6774)"/>
<path d="M85.7665 86.6256C86.5927 84.2959 89.8229 83.9035 92.1733 84.6924C93.1399 85.0146 94.0941 85.4731 95.1144 85.5186C97.0723 85.5764 98.7453 84.0728 100.678 83.7548C103.458 83.2921 106.007 85.3244 107.862 87.4435C109.716 89.5626 111.476 92.0286 114.145 92.9332C119.61 94.7755 125.037 89.0917 130.787 89.5336C133.943 89.7774 136.67 91.8551 138.797 94.1972C140.924 96.5394 142.676 99.2326 145.03 101.348C147.095 103.206 149.574 104.557 152.073 105.809C153.531 106.54 155.088 107.263 156.716 107.155C158.558 107.036 160.582 105.916 162.086 106.965C162.559 107.336 162.929 107.823 163.16 108.378C165.01 112.228 163.519 117.354 159.897 119.618C159.265 120.01 158.496 120.444 158.459 121.2C158.471 121.553 158.576 121.896 158.765 122.195C159.426 123.476 160.169 124.752 160.417 126.169C160.665 127.586 160.33 129.218 159.178 130.077C158.425 130.577 157.532 130.822 156.629 130.775C152.449 130.754 148.863 127.47 144.691 127.218C144.158 127.157 143.617 127.24 143.126 127.458C142.242 127.916 141.887 128.978 141.527 129.903C139.594 134.732 134.794 138.09 129.672 139.012C124.55 139.933 119.201 138.636 114.616 136.174C114.28 136.013 113.972 135.802 113.703 135.546C113.32 135.081 113.05 134.534 112.914 133.947C111.509 129.507 109.609 124.86 105.718 122.294C103.194 120.642 99.7697 119.713 98.6255 116.925C97.9067 115.161 98.357 113.157 98.1752 111.257C97.9963 109.628 97.3614 108.082 96.3436 106.798C95.3258 105.513 93.9662 104.542 92.4211 103.995C91.7437 103.768 91.0001 103.607 90.5045 103.091C90.102 102.584 89.845 101.977 89.7609 101.335C89.1454 98.5386 88.7365 95.5852 87.8773 92.8548C87.2205 90.715 84.8867 89.0751 85.7665 86.6256Z" fill="#313131"/>
<g opacity="0.1">
<path d="M159.661 128.792C158.906 129.286 158.013 129.525 157.112 129.474C152.936 129.474 149.351 126.169 145.179 125.921C144.645 125.859 144.105 125.94 143.613 126.157C142.725 126.615 142.374 127.677 142.015 128.602C140.081 133.435 135.277 136.793 130.155 137.714C125.033 138.636 119.684 137.338 115.103 134.877C114.768 134.716 114.46 134.504 114.19 134.249C113.808 133.783 113.538 133.236 113.401 132.65C111.997 128.205 110.097 123.563 106.205 120.993C103.677 119.32 100.253 118.416 99.1129 115.623C98.39 113.855 98.8403 111.852 98.6626 109.956C98.4843 108.326 97.8492 106.78 96.8305 105.495C95.8117 104.21 94.4508 103.239 92.9044 102.694C92.227 102.467 91.4834 102.302 90.9877 101.789C90.5848 101.282 90.329 100.673 90.2483 100.03C89.6287 97.2374 89.2239 94.2798 88.3647 91.5535C87.7864 89.7277 85.9648 88.2489 86.0557 86.2992C86.0022 86.4021 85.9553 86.5084 85.9152 86.6173C85.0312 89.0668 87.3692 90.7067 88.0343 92.8134C88.8935 95.5396 89.2983 98.4972 89.9179 101.29C89.9986 101.933 90.2544 102.542 90.6573 103.049C91.153 103.562 91.8965 103.727 92.5739 103.954C94.1209 104.499 95.4822 105.471 96.501 106.756C97.5198 108.042 98.1546 109.589 98.3322 111.22C98.5098 113.116 98.0596 115.119 98.7824 116.887C99.9225 119.692 103.347 120.605 105.875 122.257C109.758 124.831 111.658 129.469 113.071 133.914C113.208 134.5 113.478 135.047 113.86 135.513C114.13 135.768 114.438 135.98 114.772 136.141C119.353 138.619 124.686 139.895 129.825 138.978C134.964 138.061 139.739 134.699 141.684 129.866C142.056 128.941 142.399 127.879 143.283 127.421C143.774 127.204 144.315 127.123 144.848 127.185C149.02 127.437 152.606 130.721 156.782 130.738C157.684 130.785 158.577 130.542 159.331 130.044C159.704 129.741 160.011 129.365 160.233 128.938C160.455 128.512 160.586 128.045 160.619 127.565C160.411 128.05 160.081 128.472 159.661 128.792V128.792Z" fill="black"/>
<path d="M160.38 118.321C159.748 118.734 158.975 119.147 158.938 119.903C158.935 120.054 158.958 120.206 159.009 120.349C159.322 120.052 159.672 119.795 160.049 119.585C161.071 118.915 161.944 118.043 162.614 117.022C163.285 116.001 163.737 114.853 163.945 113.649C163.334 115.572 162.074 117.224 160.38 118.321V118.321Z" fill="black"/>
</g>
<path d="M96.5766 290.572C94.6641 295.066 96.6303 299.296 97.506 302.089C98.3818 304.881 95.3911 306.785 92.7061 307.459C90.0212 308.132 83.2055 315.46 83.2055 315.46C83.2055 315.46 74.944 320.57 72.102 320.004C69.2601 319.438 75.2497 313.498 75.2497 313.498L82.4289 300.536C82.5321 299.197 84.7503 293.513 84.7503 293.513L88.8563 272.777L89.4015 270.022L103.958 269.142C103.958 269.142 103.194 271.505 102.141 274.698C100.369 280.068 97.7745 287.767 96.5766 290.572Z" fill="#FFE5E5"/>
<path d="M212.753 218.09C212.237 219.073 206.301 220.259 206.301 220.259L202.323 221.031C202.323 221.031 195.817 224.237 191.067 224.237L165.481 228.198L162.049 228.731V214.216C162.049 214.216 163.775 214.397 166.221 214.629C171.686 215.108 180.728 215.744 181.979 214.852C183.789 213.563 184.974 208.606 188.019 209.176C191.063 209.746 194.681 213.926 194.681 213.926C194.681 213.926 198.915 215.938 203.046 214.905C207.177 213.873 213.27 217.107 212.753 218.09Z" fill="#FFE5E5"/>
<path opacity="0.1" d="M166.386 227.075C166.386 227.075 166.018 227.488 165.481 228.194L162.049 228.727V214.216C162.049 214.216 163.775 214.397 166.221 214.629C170.327 217.871 166.386 227.075 166.386 227.075Z" fill="black"/>
<path d="M116.974 223.72L130.717 235.187C132.864 236.977 135.528 238.029 138.318 238.19C142.589 238.442 149.256 239.058 154.097 240.553L156.113 232.135C156.113 232.135 161.896 232.341 163.135 230.379C163.863 229.221 164.673 228.116 165.56 227.075C165.56 227.075 169.744 217.318 164.994 214.323C164.994 214.323 159.727 212.72 158.641 211.275C157.554 209.829 150.227 207.198 147.955 207.35C145.683 207.503 138.97 207.867 138.97 207.867C138.97 207.867 136.335 204.872 135.149 205.182C133.964 205.492 129.829 205.182 129.829 205.182C129.829 205.182 128.693 202.261 127.557 198.077C126.421 193.892 119.659 192.397 119.659 192.397L116.974 223.72Z" fill="#2F2E41"/>
<path opacity="0.1" d="M116.974 223.72L130.717 235.187C132.864 236.977 135.528 238.029 138.318 238.19C142.589 238.442 149.256 239.058 154.097 240.553L156.113 232.135C156.113 232.135 161.896 232.341 163.135 230.379C163.863 229.221 164.673 228.116 165.56 227.075C165.56 227.075 169.744 217.318 164.994 214.323C164.994 214.323 159.727 212.72 158.641 211.275C157.554 209.829 150.227 207.198 147.955 207.35C145.683 207.503 138.97 207.867 138.97 207.867C138.97 207.867 136.335 204.872 135.149 205.182C133.964 205.492 129.829 205.182 129.829 205.182C129.829 205.182 128.693 202.261 127.557 198.077C126.421 193.892 119.659 192.397 119.659 192.397L116.974 223.72Z" fill="black"/>
<path d="M110.828 120.915L109.308 121.2H109.213L108.989 121.241L106.387 121.724L105.586 122.674L105.553 122.707L102.979 125.756L100.811 127.883L100.79 127.908L98.9559 129.693L95.8538 132.778L95.3333 134.063L94.2015 136.909L93.9082 137.632L90.8101 140.936L88.8315 145.17L84.2051 147.855L79.2276 145.274L76.9557 141.969L77.472 137.235L77.5753 136.289L79.0913 133.856L80.4668 131.642L83.1518 127.821L88.3152 124.31L89.2404 124.066L90.2773 123.794C90.3565 123.681 90.4296 123.564 90.4962 123.443C90.5836 123.297 90.6623 123.147 90.7317 122.992C91.8924 120.489 91.4834 116.767 90.6986 113.467C90.0971 110.998 89.3001 108.581 88.3152 106.238L101.947 104.276C101.947 104.276 101.814 106.92 101.814 111.042C101.814 112.075 101.814 113.194 101.843 114.392C101.909 118.11 105.363 119.721 107.969 120.407C108.64 120.585 109.322 120.723 110.01 120.82C110.514 120.898 110.828 120.915 110.828 120.915Z" fill="#FFE5E5"/>
<path d="M89.3479 122.865C89.3479 122.865 89.9675 120.386 85.0106 114.087C80.0537 107.787 79.1243 97.3572 79.1243 97.3572C79.1243 97.3572 77.8851 91.9873 79.1243 90.4383C80.3635 88.8892 82.4289 71.85 82.4289 71.85L85.8367 62.246C85.8367 62.246 102.463 45.31 95.544 43.2447C90.8432 41.8402 85.2171 49.0731 82.1232 53.8482C80.595 56.1947 79.6074 58.8515 79.2317 61.6264L69.8301 87.3402C69.8301 87.3402 68.9007 90.4383 69.8301 95.8082C70.7596 101.178 72.8249 110.679 72.8249 110.679L78.0916 124.013C78.0916 124.013 80.8633 132.316 79.4258 133.328L82.6354 128.581L89.3479 122.865Z" fill="#FFE5E5"/>
<path d="M171.653 146.629C171.653 146.629 169.794 151.585 165.973 151.172C162.152 150.759 143.77 145.493 143.77 145.493C143.77 145.493 136.128 141.672 133.134 141.775C130.139 141.878 116.404 135.476 116.404 135.476C116.404 135.476 115.438 136.748 114.359 138.086C113.186 139.553 111.881 141.102 111.551 141.155C110.931 141.259 101.327 142.601 101.327 142.601L94.8211 139.606L94.2015 136.909L93.9082 135.67L95.3498 134.063L97.2458 131.952L100.802 127.896L100.823 127.871L105.569 122.712L105.602 122.679L108.642 121.439L109.229 121.2H109.324C109.688 121.138 111.084 121.01 112.955 122.067C114.258 122.805 115.705 123.253 117.197 123.381C120.167 123.593 122.98 124.797 125.182 126.801L140.466 134.844L164.527 143.518C164.527 143.518 166.593 131.642 170.104 134.224C173.615 136.806 171.653 146.629 171.653 146.629Z" fill="#FFE5E5"/>
<path opacity="0.1" d="M114.359 138.086C113.186 139.553 111.881 141.102 111.551 141.155C110.931 141.259 101.327 142.601 101.327 142.601L94.8211 139.606L94.2015 136.909L93.9082 137.632L90.8101 140.936L88.8315 145.17L84.2051 147.855L79.2276 145.274L76.9557 141.969L77.472 137.235C77.7322 136.674 78.4427 135.145 79.0913 133.856C79.3977 133.146 79.7829 132.473 80.2396 131.849C80.6527 131.576 81.0864 128.647 81.0864 128.647C82.9617 123.24 89.2446 122.41 89.2446 122.41L90.2483 123.352L90.6862 123.806C90.5086 123.777 90.7192 123.393 90.4921 123.455C90.1286 123.558 89.9675 124.108 89.5007 124.409C86.9603 126.062 82.9907 129.916 81.421 131.746C81.041 132.188 80.6485 132.621 80.2479 133.043C77.9801 135.443 78.3973 138.623 78.3973 138.623C77.8314 141.102 82.8378 142.96 82.8378 142.96C84.234 140.639 93.681 134.236 93.681 134.236L100.042 127.111C101.992 123.715 105.825 121.472 107.965 120.423C108.911 119.961 109.531 119.729 109.531 119.729L111.91 120.745C111.282 120.577 110.617 120.606 110.006 120.828C109.654 120.937 109.313 121.075 108.985 121.241C108.861 121.303 108.738 121.369 108.622 121.439C107.971 121.817 107.36 122.259 106.796 122.757L101.451 128.594C97.3656 133.051 100.443 140.259 106.486 140.362H106.54C110.233 141.213 112.881 139.503 114.359 138.086Z" fill="black"/>
<path opacity="0.1" d="M103.958 269.154C103.958 269.154 103.194 271.517 102.141 274.71C98.1009 275.012 91.4297 273.45 88.8563 272.789L89.4016 270.034L103.958 269.154Z" fill="black"/>
<path d="M90.6903 123.806L89.3685 122.451C89.3685 122.451 84.5975 123.104 81.6358 128.201C81.6358 128.201 80.252 132.022 79.8265 132.295C79.401 132.568 76.9556 137.909 76.9556 137.909C76.9556 137.909 74.0311 146.546 76.4723 151.85C78.9136 157.154 79.021 159.595 79.021 159.595L80.8468 167.443L81.6027 174.325L88.1623 190.538L94.2015 199.143C94.2015 199.143 93.6355 205.491 92.3963 206.371C91.1571 207.251 91.723 211.791 91.723 211.791L90.9506 223.72C90.9506 223.72 88.5217 227.281 88.3689 233.064C88.216 238.847 87.3362 240.499 87.3362 240.499C87.3362 240.499 86.9231 245.353 88.0591 247.575C89.195 249.798 86.2498 252.119 86.2498 252.119L88.7819 260.74L87.7988 271.686C87.7988 271.686 99.4681 274.941 103.805 273.599C108.143 272.256 110.415 273.186 110.415 273.186L118.16 241.829L120.845 217.202C120.845 217.202 121.002 199.75 123.323 194.429C125.314 189.886 122.704 173.697 113.736 170.64C111.864 170.004 110.914 167.881 109.316 166.716C107.887 165.679 105.553 163.23 106.697 158.802C108.3 152.606 112.327 142.849 112.327 142.849L115.309 136.909C115.309 136.909 112.067 142.155 106.131 140.812H106.077C100.034 140.705 96.9566 133.497 101.042 129.044L106.387 123.203C106.387 123.203 109.332 120.489 111.501 121.175L109.126 120.159C109.126 120.159 102.438 122.637 99.6251 127.54L93.2638 134.666C93.2638 134.666 83.8251 141.04 82.4289 143.378C82.4289 143.378 77.4224 141.519 77.9883 139.04C77.9883 139.04 77.5753 135.856 79.8389 133.456C80.252 133.043 80.632 132.605 81.012 132.163C83.0485 129.783 88.6787 123.472 90.6903 123.806Z" fill="#2F2E41"/>
<path opacity="0.1" d="M91.4669 166.353C91.4669 166.353 89.9675 177.25 91.1034 179.468L91.4669 166.353Z" fill="black"/>
<path opacity="0.1" d="M92.4459 170.587L94.0486 176.837C94.0486 176.837 94.6145 173.016 92.4459 170.587Z" fill="black"/>
<path opacity="0.1" d="M82.9452 169.129C82.9452 169.129 86.1465 185.032 89.6577 189.836Z" fill="black"/>
<path opacity="0.1" d="M105.511 188.299C105.511 188.299 100.038 193.463 97.9191 193.087C97.9191 193.087 106.338 193.45 108.969 189.01C108.969 189.022 107.267 187.783 105.511 188.299Z" fill="black"/>
<path opacity="0.1" d="M113.1 187.886C113.1 187.886 106.077 192.996 104.685 193.463C104.685 193.463 112.273 191.294 113.1 187.886Z" fill="black"/>
<path opacity="0.1" d="M89.3479 149.933C89.3479 149.933 85.8367 154.427 84.0812 153.911C84.0812 153.911 88.3689 154.064 89.3479 149.933Z" fill="black"/>
<path opacity="0.1" d="M93.3257 155.716C93.3257 155.716 100.968 145.34 104.582 145.753C104.582 145.753 95.9075 153.291 93.3257 155.716Z" fill="black"/>
<path opacity="0.1" d="M103.909 151.941C103.909 151.941 99.0551 154.374 99.5714 155.084C100.088 155.795 103.909 151.941 103.909 151.941Z" fill="black"/>
<path opacity="0.1" d="M107.42 231.618C107.42 231.618 91.2067 241.07 89.7114 241.532C89.7114 241.532 92.4996 243.651 95.1309 242.619C97.7622 241.586 107.42 231.618 107.42 231.618Z" fill="black"/>
<path opacity="0.1" d="M93.8421 251.293C93.8421 251.293 87.3362 250.62 87.5923 252.739C87.8484 254.858 93.8421 251.293 93.8421 251.293Z" fill="black"/>
<path opacity="0.1" d="M101.947 104.276C101.947 104.276 101.814 106.92 101.814 111.042C100.285 112.296 98.4799 113.169 96.5476 113.589C94.6154 114.01 92.6109 113.967 90.6986 113.463C90.0971 110.994 89.3001 108.577 88.3152 106.234L101.947 104.276Z" fill="black"/>
<path d="M93.8917 113.071C100.793 113.071 106.387 107.476 106.387 100.575C106.387 93.674 100.793 88.0796 93.8917 88.0796C86.9906 88.0796 81.3962 93.674 81.3962 100.575C81.3962 107.476 86.9906 113.071 93.8917 113.071Z" fill="#FFE5E5"/>
<path opacity="0.1" d="M97.1673 108.2C97.5184 113.31 98.5924 119.155 103.029 121.724C106.234 123.579 110.274 123.092 113.822 122.034C117.371 120.977 120.845 119.399 124.538 119.221C127.375 119.085 130.18 119.783 133.01 119.961C135.839 120.138 138.937 119.696 140.957 117.705C143.849 114.872 143.32 109.721 140.581 106.742C137.843 103.764 133.559 102.682 129.503 102.793C124.546 102.93 119.011 104.446 115.091 101.438C112.459 99.4143 111.464 95.9032 109.25 93.4289C105.553 89.2982 89.2033 83.3334 85.7417 90.0665C84.1183 93.2182 91.4958 95.4695 93.206 97.7497C95.9074 101.348 96.8451 103.483 97.1673 108.2Z" fill="black"/>
<path d="M97.5515 107.758C97.9067 112.872 98.9766 118.717 103.413 121.282C106.618 123.137 110.658 122.65 114.207 121.596C117.755 120.543 121.229 118.961 124.926 118.783C127.76 118.647 130.564 119.341 133.398 119.523C136.232 119.704 139.321 119.258 141.341 117.267C144.233 114.429 143.704 109.283 140.965 106.304C138.227 103.326 133.943 102.244 129.891 102.355C124.934 102.488 119.395 104.008 115.475 100.996C112.843 98.9723 111.848 95.4653 109.634 92.9868C105.937 88.8561 89.5874 82.8955 86.1259 89.6286C84.5025 92.7762 91.88 95.0274 93.5942 97.3117C96.2916 100.905 97.2293 103.037 97.5515 107.758Z" fill="#313131"/>
<path opacity="0.1" d="M82.5239 142.956C82.7156 141.326 83.2528 139.755 84.0998 138.349C84.9467 136.943 86.0839 135.734 87.4353 134.802" fill="black"/>
<path opacity="0.1" d="M129.375 207.66C129.336 208.065 129.237 208.462 129.081 208.837C128.54 210.459 127.889 212.042 127.132 213.575C128.235 213.48 129.143 212.613 129.61 211.613C130.018 210.585 130.243 209.493 130.275 208.387C130.316 208.042 130.325 207.693 130.304 207.346C130.275 207.024 130.069 205.793 129.536 206.012C129.106 206.194 129.383 207.334 129.375 207.66Z" fill="black"/>
<path opacity="0.1" d="M142.085 115.974C140.061 117.965 136.971 118.412 134.137 118.23C131.304 118.048 128.487 117.354 125.665 117.495C121.948 117.672 118.503 119.25 114.95 120.308C111.398 121.365 107.362 121.852 104.152 119.998C99.7201 117.428 98.6461 111.583 98.295 106.474C97.9728 101.756 97.031 99.6209 94.3337 96.023C92.702 93.8461 85.9276 91.6981 86.7042 88.7736C86.4797 89.0373 86.2857 89.3255 86.1259 89.6327C84.5025 92.7804 91.88 95.0316 93.5942 97.3159C96.2916 100.91 97.2293 103.049 97.5515 107.763C97.9067 112.876 98.9766 118.721 103.413 121.287C106.618 123.141 110.658 122.654 114.207 121.6C117.755 120.547 121.229 118.965 124.926 118.787C127.76 118.651 130.564 119.345 133.398 119.527C136.232 119.709 139.321 119.262 141.341 117.271C141.915 116.702 142.371 116.026 142.684 115.28C142.502 115.527 142.302 115.759 142.085 115.974V115.974Z" fill="black"/>
<path d="M81.6275 153.535L80.1115 156.84L84.9321 155.877L81.6275 153.535Z" fill="#FFE5E5"/>
<path opacity="0.1" d="M81.6275 153.535L80.38 156.84H80.1115L81.6275 153.535Z" fill="black"/>
<path opacity="0.1" d="M200.915 303.526C210.268 303.526 217.851 302.485 217.851 301.201C217.851 299.916 210.268 298.875 200.915 298.875C191.561 298.875 183.979 299.916 183.979 301.201C183.979 302.485 191.561 303.526 200.915 303.526Z" fill="#5B8B43"/>
<path opacity="0.1" d="M265.788 310.102C275.141 310.102 282.724 309.061 282.724 307.777C282.724 306.492 275.141 305.451 265.788 305.451C256.434 305.451 248.852 306.492 248.852 307.777C248.852 309.061 256.434 310.102 265.788 310.102Z" fill="#5B8B43"/>
<path opacity="0.1" d="M342.202 301.201C351.556 301.201 359.138 300.159 359.138 298.875C359.138 297.591 351.556 296.549 342.202 296.549C332.849 296.549 325.266 297.591 325.266 298.875C325.266 300.159 332.849 301.201 342.202 301.201Z" fill="#5B8B43"/>
<path opacity="0.1" d="M239.822 328.158C246.47 328.158 251.859 327.418 251.859 326.505C251.859 325.593 246.47 324.853 239.822 324.853C233.174 324.853 227.785 325.593 227.785 326.505C227.785 327.418 233.174 328.158 239.822 328.158Z" fill="#5B8B43"/>
<path opacity="0.1" d="M307.153 326.505C313.801 326.505 319.19 325.766 319.19 324.853C319.19 323.941 313.801 323.201 307.153 323.201C300.505 323.201 295.116 323.941 295.116 324.853C295.116 325.766 300.505 326.505 307.153 326.505Z" fill="#5B8B43"/>
<path d="M266.156 307.256C266.156 307.256 242.404 229.392 269.873 198.205C290.419 174.875 313.746 177.667 324.192 180.55C326.895 181.27 329.41 182.569 331.561 184.357C333.712 186.145 335.449 188.38 336.651 190.906C340.302 198.787 339.645 211.56 313.865 226.5C270.699 251.491 268.014 285.776 268.014 285.776L266.156 307.256Z" fill="#5B8B43"/>
<path d="M320.475 191.596C320.475 191.596 250.459 213.489 266.156 307.256" stroke="#2F2E41" stroke-miterlimit="10"/>
<path d="M279.58 199.444C279.58 199.444 289.217 205.942 286.157 215.703" stroke="#2F2E41" stroke-miterlimit="10"/>
<path d="M313.452 205.227C313.452 205.227 307.558 199.229 300.383 202.538" stroke="#2F2E41" stroke-miterlimit="10"/>
<path d="M285.777 235.381C285.777 235.381 275.425 230.127 272.748 236.707" stroke="#2F2E41" stroke-miterlimit="10"/>
<path d="M260.166 246.328C260.166 246.328 267.936 245.708 268.076 249.426" stroke="#2F2E41" stroke-miterlimit="10"/>
<path d="M265.214 307.876C265.214 307.876 293.03 251.285 300.672 252.524C304.303 253.111 305.976 256.684 306.732 260.269C307.665 264.91 307.128 269.727 305.195 274.049C301.25 283.1 290.647 300.296 265.214 307.876Z" fill="#5B8B43"/>
<path d="M300.445 263.264C300.445 263.264 271.249 305.604 265.606 307.463" stroke="#2F2E41" stroke-miterlimit="10"/>
<path d="M303.13 269.873H296.314" stroke="#2F2E41" stroke-miterlimit="10"/>
<path d="M294.967 285.363L284.285 285.822" stroke="#2F2E41" stroke-miterlimit="10"/>
<path d="M288.466 272.971L289.626 278.535" stroke="#2F2E41" stroke-miterlimit="10"/>
<path d="M277.106 289.907L277.313 294.963" stroke="#2F2E41" stroke-miterlimit="10"/>
<path d="M266.04 307.876C266.04 307.876 238.224 251.285 230.582 252.524C226.951 253.111 225.278 256.684 224.522 260.269C223.576 264.906 224.098 269.723 226.017 274.049C229.962 283.1 240.566 300.296 266.04 307.876Z" fill="#5B8B43"/>
<path d="M230.768 263.264C230.768 263.264 259.964 305.604 265.606 307.463" stroke="#2F2E41" stroke-miterlimit="10"/>
<path d="M228.078 269.873H234.894" stroke="#2F2E41" stroke-miterlimit="10"/>
<path d="M236.245 285.363L246.927 285.822" stroke="#2F2E41" stroke-miterlimit="10"/>
<path d="M242.743 272.971L241.586 278.535" stroke="#2F2E41" stroke-miterlimit="10"/>
<path d="M254.102 289.907L253.896 294.963" stroke="#2F2E41" stroke-miterlimit="10"/>
<path d="M313.783 321.09C314.542 320.474 315.096 319.641 315.369 318.702C315.571 317.752 315.167 316.616 314.262 316.269C313.246 315.881 312.159 316.583 311.337 317.294C310.515 318.004 309.57 318.818 308.491 318.665C309.045 318.163 309.459 317.525 309.693 316.815C309.927 316.105 309.972 315.346 309.826 314.613C309.781 314.308 309.652 314.022 309.454 313.787C308.892 313.184 307.868 313.444 307.19 313.919C305.042 315.431 304.443 318.347 304.435 320.974C304.216 320.024 304.398 319.037 304.394 318.083C304.39 317.129 304.121 316.017 303.303 315.514C302.798 315.234 302.228 315.091 301.651 315.1C300.684 315.067 299.61 315.162 298.949 315.869C298.123 316.744 298.342 318.219 299.057 319.173C299.771 320.128 300.854 320.743 301.849 321.412C302.652 321.886 303.336 322.538 303.848 323.316C303.909 323.424 303.959 323.538 303.997 323.655H310.049C311.403 322.972 312.659 322.109 313.783 321.09V321.09Z" fill="#5B8B43"/>
<path d="M207.797 298.301C208.555 297.683 209.107 296.849 209.379 295.909C209.585 294.959 209.18 293.844 208.272 293.476C207.255 293.088 206.173 293.79 205.347 294.505C204.521 295.219 203.579 296.025 202.505 295.876C203.058 295.371 203.471 294.731 203.704 294.018C203.936 293.306 203.98 292.546 203.831 291.811C203.785 291.507 203.656 291.222 203.459 290.985C202.893 290.382 201.873 290.638 201.196 291.113C199.048 292.625 198.449 295.541 198.436 298.169C198.222 297.223 198.403 296.235 198.399 295.277C198.395 294.319 198.127 293.212 197.305 292.704C196.798 292.431 196.228 292.297 195.652 292.315C194.69 292.278 193.612 292.373 192.955 293.08C192.129 293.959 192.348 295.43 193.058 296.384C193.769 297.338 194.855 297.954 195.855 298.623C196.654 299.1 197.336 299.751 197.85 300.527C197.912 300.636 197.962 300.751 197.998 300.87H204.054C205.411 300.185 206.67 299.321 207.797 298.301Z" fill="#5B8B43"/>
<path d="M243.11 321.09C243.87 320.474 244.423 319.641 244.696 318.702C244.899 317.752 244.494 316.616 243.589 316.269C242.573 315.881 241.487 316.583 240.665 317.294C239.843 318.004 238.897 318.818 237.819 318.665C238.373 318.163 238.788 317.526 239.023 316.816C239.257 316.105 239.303 315.347 239.157 314.613C239.113 314.308 238.984 314.022 238.785 313.787C238.224 313.184 237.199 313.444 236.522 313.919C234.374 315.431 233.775 318.347 233.766 320.974C233.548 320.024 233.729 319.037 233.725 318.083C233.721 317.129 233.453 316.017 232.635 315.514C232.129 315.234 231.56 315.091 230.982 315.1C230.016 315.067 228.942 315.162 228.281 315.869C227.455 316.744 227.674 318.219 228.388 319.173C229.103 320.128 230.185 320.743 231.181 321.412C231.983 321.886 232.667 322.538 233.18 323.316C233.241 323.424 233.291 323.538 233.329 323.655H239.38C240.733 322.972 241.988 322.109 243.11 321.09V321.09Z" fill="#5B8B43"/>
<path d="M343.285 275.02C343.285 275.02 345.556 277.986 342.239 282.455C338.923 286.925 336.188 290.717 337.283 293.509C337.283 293.509 342.289 285.19 346.37 285.074C350.451 284.959 347.783 280.022 343.285 275.02Z" fill="#5B8B43"/>
<path opacity="0.1" d="M343.285 275.02C343.483 275.306 343.639 275.619 343.747 275.949C347.725 280.617 349.84 284.975 346.019 285.087C342.463 285.186 338.196 291.551 337.171 293.158C337.205 293.281 337.245 293.402 337.291 293.522C337.291 293.522 342.297 285.202 346.378 285.087C350.46 284.971 347.783 280.022 343.285 275.02Z" fill="black"/>
<path d="M347.519 278.8C347.519 279.845 347.403 280.691 347.258 280.691C347.114 280.691 347.002 279.832 347.002 278.8C347.002 277.767 347.147 278.25 347.291 278.25C347.436 278.25 347.519 277.767 347.519 278.8Z" fill="#FFD037"/>
<path d="M348.968 280.047C348.051 280.547 347.25 280.848 347.184 280.724C347.118 280.601 347.799 280.088 348.716 279.589C349.633 279.089 349.274 279.452 349.34 279.589C349.406 279.725 349.894 279.547 348.968 280.047Z" fill="#FFD037"/>
<path d="M331.305 275.02C331.305 275.02 329.034 277.986 332.351 282.455C335.667 286.925 338.402 290.717 337.307 293.509C337.307 293.509 332.305 285.19 328.22 285.074C324.134 284.959 326.836 280.022 331.305 275.02Z" fill="#5B8B43"/>
<path opacity="0.1" d="M331.305 275.02C331.106 275.306 330.949 275.619 330.839 275.949C326.865 280.617 324.75 284.975 328.567 285.087C332.127 285.186 336.415 291.551 337.419 293.158C337.386 293.282 337.344 293.403 337.295 293.522C337.295 293.522 332.293 285.202 328.207 285.087C324.122 284.971 326.836 280.022 331.305 275.02Z" fill="black"/>
<path d="M327.096 278.8C327.096 279.845 327.216 280.691 327.361 280.691C327.505 280.691 327.621 279.845 327.621 278.8C327.621 277.754 327.476 278.25 327.332 278.25C327.187 278.25 327.096 277.767 327.096 278.8Z" fill="#FFD037"/>
<path d="M325.65 280.047C326.567 280.547 327.365 280.848 327.435 280.724C327.505 280.601 326.819 280.088 325.902 279.589C324.985 279.089 325.345 279.452 325.275 279.589C325.204 279.725 324.733 279.547 325.65 280.047Z" fill="#FFD037"/>
<path d="M327.819 293.133C327.819 293.133 334.164 292.939 336.081 291.576C337.997 290.213 345.841 288.589 346.317 290.775C346.792 292.96 355.85 301.634 348.688 301.692C341.525 301.75 332.045 300.577 330.136 299.412C328.228 298.247 327.819 293.133 327.819 293.133Z" fill="#A8A8A8"/>
<path opacity="0.2" d="M348.811 300.932C341.649 300.99 332.165 299.817 330.256 298.652C328.806 297.768 328.224 294.591 328.034 293.125H327.819C327.819 293.125 328.232 298.243 330.132 299.404C332.032 300.564 341.521 301.742 348.683 301.684C350.749 301.684 351.463 300.932 351.426 299.842C351.133 300.507 350.348 300.92 348.811 300.932Z" fill="black"/>
</g>
<defs>
<linearGradient id="paint0_linear_496_6774" x1="141.102" y1="323.085" x2="141.102" y2="40.0557" gradientUnits="userSpaceOnUse">
<stop stop-color="#808080" stop-opacity="0.25"/>
<stop offset="0.54" stop-color="#808080" stop-opacity="0.12"/>
<stop offset="1" stop-color="#808080" stop-opacity="0.1"/>
</linearGradient>
<clipPath id="clip0_496_6774">
<rect width="424.371" height="330" fill="white" transform="translate(-11)"/>
</clipPath>
</defs>
</svg>
