<svg width="369" height="330" viewBox="0 0 369 330" fill="none" xmlns="http://www.w3.org/2000/svg">
<g clip-path="url(#clip0_496_6858)">
<path d="M333.071 236.442L346.272 234.917C349.133 228.432 350.396 221.334 349.954 214.238C342.778 224.548 327.597 224.382 317.509 231.737C314.38 234.055 311.803 237.061 309.969 240.532C308.135 244.003 307.091 247.85 306.915 251.788L302.555 260.301C308.764 260.993 315.046 260.306 320.968 258.286C326.891 256.267 332.314 252.963 336.863 248.603C339.391 246.131 341.603 243.344 343.448 240.309C338.253 238.706 333.071 236.442 333.071 236.442Z" fill="#B2C9A7"/>
<path d="M323.019 217.071L334.167 209.707C333.889 202.602 331.914 195.675 328.412 189.525C326.501 202.014 312.841 208.764 307.031 219.931C305.245 223.428 304.254 227.29 304.132 231.23C304.01 235.17 304.76 239.088 306.325 242.692L306.149 252.292C312.009 250.091 317.331 246.621 321.748 242.122C326.165 237.623 329.573 232.202 331.736 226.232C332.917 222.87 333.677 219.371 334 215.816C328.649 216.742 323.019 217.071 323.019 217.071Z" fill="#B2C9A7"/>
<path d="M274.622 307.194C296.716 307.194 314.627 288.944 314.627 266.432C314.627 243.92 296.716 225.67 274.622 225.67C252.529 225.67 234.618 243.92 234.618 266.432C234.618 288.944 252.529 307.194 274.622 307.194Z" fill="white"/>
<path d="M274.622 307.692C266.614 307.692 258.785 305.272 252.126 300.738C245.467 296.205 240.277 289.761 237.212 282.222C234.147 274.682 233.345 266.387 234.908 258.383C236.47 250.379 240.327 243.028 245.99 237.257C251.653 231.487 258.868 227.557 266.722 225.965C274.577 224.373 282.719 225.19 290.118 228.313C297.517 231.436 303.841 236.724 308.291 243.509C312.74 250.294 315.115 258.272 315.115 266.432C315.103 277.371 310.833 287.858 303.242 295.593C295.65 303.328 285.358 307.679 274.622 307.692ZM274.622 226.168C266.807 226.168 259.167 228.529 252.668 232.954C246.17 237.378 241.105 243.666 238.114 251.024C235.124 258.381 234.341 266.477 235.866 274.287C237.39 282.098 241.154 289.272 246.68 294.903C252.207 300.535 259.248 304.369 266.913 305.923C274.579 307.477 282.524 306.679 289.745 303.632C296.965 300.584 303.137 295.423 307.479 288.802C311.821 282.18 314.138 274.395 314.138 266.432C314.126 255.757 309.959 245.523 302.551 237.974C295.143 230.426 285.099 226.18 274.622 226.168V226.168Z" fill="#3F3D56"/>
<path d="M271.627 282.723C271.542 282.723 271.456 282.72 271.371 282.716C270.618 282.679 269.881 282.476 269.212 282.122C268.542 281.767 267.956 281.27 267.493 280.663L260.808 271.905C260.386 271.352 260.074 270.72 259.892 270.045C259.71 269.369 259.66 268.664 259.745 267.969C259.83 267.274 260.049 266.603 260.389 265.994C260.728 265.385 261.183 264.85 261.725 264.42L261.966 264.23C262.508 263.799 263.129 263.482 263.792 263.296C264.455 263.11 265.147 263.059 265.829 263.146C266.512 263.233 267.171 263.456 267.768 263.802C268.366 264.149 268.891 264.612 269.313 265.165C269.65 265.607 270.078 265.969 270.565 266.227C271.053 266.485 271.59 266.633 272.139 266.66C272.688 266.687 273.236 266.593 273.746 266.385C274.256 266.176 274.716 265.858 275.094 265.452L288.668 250.85C289.623 249.824 290.939 249.227 292.326 249.189C293.714 249.15 295.059 249.674 296.068 250.645L296.291 250.861C296.79 251.343 297.191 251.92 297.471 252.56C297.751 253.199 297.905 253.889 297.924 254.589C297.942 255.289 297.825 255.986 297.579 256.64C297.333 257.294 296.963 257.893 296.49 258.401L275.425 281.057C274.937 281.583 274.348 282.002 273.695 282.289C273.042 282.575 272.338 282.723 271.627 282.723V282.723Z" fill="#5B8B43"/>
<path d="M253.695 318.523L248.147 319.153L242.89 297.22L251.078 296.291L253.695 318.523Z" fill="#A0616A"/>
<path d="M290.247 219.919C290.075 219.745 289.888 219.574 289.702 219.413C288.27 218.203 286.774 217.074 285.221 216.031C283.463 214.838 281.485 213.62 279.247 212.362C278.164 211.753 277.02 211.13 275.814 210.496C275.21 210.177 274.588 209.857 273.949 209.534C273.922 209.518 273.894 209.503 273.866 209.49L273.681 209.394L260.216 220.719L259.26 221.485L261.74 224.601C261.74 224.601 261.524 227.078 261.529 227.08L259.067 233.34L259.04 233.353L250.268 237.432L241.229 241.637L236.374 243.897C235.248 244.419 234.236 245.165 233.395 246.09C232.555 247.015 231.904 248.102 231.479 249.286C231.033 250.515 230.831 251.823 230.886 253.134C230.941 254.444 231.251 255.729 231.799 256.916C231.907 257.158 232.029 257.4 232.159 257.633L234.176 270.558C235.381 278.289 237.724 285.79 241.127 292.808L244.208 304.907L244.676 304.668L251.645 301.111L253.486 300.173L253.834 292.044C253.873 291.118 253.879 290.186 253.847 289.256C253.799 287.734 253.656 286.217 253.419 284.714L249.423 259.363C250.132 259.069 250.832 258.773 251.522 258.475C254.72 257.112 257.747 255.734 260.604 254.341C269.897 249.816 277.467 245.118 283.652 240.029C285.39 238.602 287.02 237.141 288.543 235.646C289.102 235.1 289.647 234.549 290.177 233.992C290.303 233.863 290.426 233.736 290.547 233.606C291.636 232.442 292.421 231.017 292.83 229.463C293.239 227.91 293.26 226.276 292.889 224.712C292.475 222.891 291.558 221.228 290.247 219.919V219.919Z" fill="#2F2E41"/>
<path d="M253.243 314.684L247.238 315.36L246.295 315.465L246.908 319.099L239.929 326.047C239.584 326.39 239.355 326.836 239.277 327.321C239.198 327.806 239.274 328.304 239.493 328.742C239.712 329.18 240.063 329.535 240.494 329.755C240.925 329.976 241.414 330.05 241.889 329.967L251.801 328.237L252.904 324.344L254.176 327.822L257.909 327.171L254.704 314.521L253.243 314.684Z" fill="#2F2E41"/>
<path d="M258.959 188.845L264.102 183.288L256.847 167.116L255.768 161.435C255.628 160.697 255.3 160.009 254.818 159.441C254.335 158.873 253.714 158.443 253.018 158.196C252.321 157.948 251.573 157.891 250.848 158.031C250.123 158.17 249.447 158.501 248.887 158.99V158.99C248.057 159.715 247.535 160.74 247.433 161.849C247.331 162.958 247.655 164.065 248.338 164.934L252.344 170.036L258.959 188.845Z" fill="#A0616A"/>
<path d="M264.102 180.8L258.241 186.772L259.362 195.503C259.719 196.643 260.359 197.669 261.22 198.483C262.081 199.297 263.134 199.87 264.276 200.147V200.147C265.684 200.488 267.163 200.364 268.497 199.792C269.832 199.22 270.953 198.229 271.698 196.964L284.88 173.941C285.814 172.354 286.103 170.458 285.684 168.658C285.265 166.858 284.171 165.296 282.637 164.306V164.306C281.812 163.774 280.887 163.424 279.92 163.281C278.954 163.137 277.969 163.202 277.029 163.472C276.089 163.742 275.215 164.211 274.465 164.847C273.714 165.484 273.104 166.275 272.673 167.168L264.627 184.637L264.102 180.8Z" fill="#E6E6E6"/>
<path d="M258.197 268.922C257.895 269.237 257.591 269.547 257.284 269.858C256.672 270.48 256.053 271.096 255.431 271.705C255.118 272.01 254.802 272.315 254.489 272.616L254.491 272.627L254.47 272.636L254.464 272.642L253.943 272.916L252.645 270.969L252.047 270.072L251.201 268.802L249.652 266.478L241.494 254.243L248.81 250.394L249.386 251.537L249.39 251.536L249.675 252.102L255.025 262.665L256.118 264.825L256.152 264.89L256.808 266.18L257.375 267.298L258.006 268.547L258.197 268.922Z" fill="#A0616A"/>
<path d="M256.686 264.957L251.593 268.27L250.793 268.789L252.92 271.772L249.676 281.148C249.515 281.612 249.504 282.115 249.644 282.585C249.784 283.056 250.069 283.468 250.455 283.762C250.842 284.056 251.31 284.217 251.793 284.22C252.275 284.223 252.746 284.069 253.136 283.781L261.275 277.762L260.574 273.774L263.224 276.321L266.29 274.054L257.925 264.152L256.686 264.957Z" fill="#2F2E41"/>
<path d="M122.057 81.4832L125.957 68.5419C121.264 63.2799 115.382 59.2645 108.822 56.8444C115.232 67.6649 109.02 81.7806 111.609 94.1413C112.445 97.9903 114.12 101.598 116.511 104.697C118.902 107.797 121.946 110.308 125.419 112.046L131.337 119.517C134.44 113.994 136.33 107.851 136.878 101.512C137.427 95.173 136.62 88.788 134.513 82.7972C133.298 79.4483 131.675 76.2686 129.68 73.3331C126.164 77.5457 122.057 81.4832 122.057 81.4832Z" fill="#B2C9A7"/>
<path d="M100.613 83.1366L98.4397 69.7814C91.9368 67.2039 84.9147 66.2829 77.9832 67.0982C88.4565 73.8702 89.0754 89.3269 96.8022 99.2141C99.2354 102.279 102.314 104.747 105.811 106.434C109.307 108.122 113.131 108.986 117 108.963L125.567 112.961C125.926 106.608 124.93 100.251 122.646 94.3281C120.362 88.4051 116.845 83.057 112.337 78.6523C109.784 76.2068 106.94 74.0986 103.87 72.3775C102.566 77.7461 100.613 83.1366 100.613 83.1366Z" fill="#B2C9A7"/>
<path d="M175.252 43.9144L179.257 38.8129C179.94 37.9431 180.265 36.8369 180.162 35.7279C180.06 34.6188 179.539 33.5936 178.709 32.8687C178.149 32.3795 177.472 32.0487 176.747 31.9092C176.023 31.7698 175.274 31.8267 174.578 32.0742C173.881 32.3217 173.261 32.7511 172.778 33.3196C172.295 33.888 171.967 34.5756 171.827 35.3136L170.748 40.9941L166.654 52.258L171.567 54.7611L175.252 43.9144Z" fill="#FFB8B8"/>
<path d="M162.969 58.5158L154.923 41.0461C154.492 40.153 153.881 39.3624 153.131 38.7257C152.381 38.089 151.507 37.6205 150.567 37.3506C149.627 37.0807 148.642 37.0154 147.675 37.1592C146.709 37.3029 145.783 37.6523 144.958 38.1847V38.1847C143.424 39.1746 142.331 40.7365 141.912 42.5367C141.493 44.337 141.781 46.2328 142.715 47.8193L155.898 70.843C156.643 72.108 157.764 73.0984 159.098 73.6706C160.433 74.2428 161.911 74.367 163.32 74.0253V74.0253C164.462 73.7482 165.515 73.1751 166.376 72.3615C167.236 71.5479 167.876 70.5215 168.233 69.3817L173.205 53.5096L166.654 50.1721L162.969 58.5158Z" fill="#2F2E41"/>
<path d="M178.152 52.8933L172.88 52.4429C172.053 52.3713 171.287 51.9681 170.751 51.3219C170.215 50.6757 169.952 49.8392 170.021 48.996L172.049 24.3514C172.119 23.5083 172.515 22.728 173.149 22.1818C173.783 21.6356 174.604 21.368 175.432 21.4378L180.703 21.8881C181.531 21.9598 182.296 22.3629 182.832 23.0091C183.369 23.6553 183.631 24.4918 183.563 25.3351L181.535 49.9797C181.464 50.8228 181.069 51.603 180.434 52.1492C179.8 52.6955 178.979 52.963 178.152 52.8933Z" fill="#3F3D56"/>
<path d="M174.712 22.6421C174.266 22.6045 173.823 22.7487 173.482 23.0431C173.14 23.3374 172.927 23.7579 172.889 24.2122L170.861 48.8568C170.824 49.3112 170.965 49.762 171.254 50.1102C171.543 50.4584 171.956 50.6757 172.402 50.7143L177.673 51.1647C178.119 51.2022 178.561 51.058 178.903 50.7637C179.245 50.4694 179.458 50.0489 179.496 49.5946L181.524 24.95C181.561 24.4956 181.419 24.0448 181.13 23.6966C180.841 23.3483 180.429 23.1311 179.983 23.0925L174.712 22.6421Z" fill="#5B8B43"/>
<path d="M163.927 75.0753H141.996V97.4215H163.927V75.0753Z" fill="#FFB8B8"/>
<path d="M168.192 73.1643C168.841 73.1643 169.367 72.6283 169.367 71.9671C169.367 71.306 168.841 70.77 168.192 70.77C167.544 70.77 167.018 71.306 167.018 71.9671C167.018 72.6283 167.544 73.1643 168.192 73.1643Z" fill="#2F2E41"/>
<path d="M187.768 169.465L193.617 169.465L196.4 146.476L187.767 146.477L187.768 169.465Z" fill="#FFB6B6"/>
<path d="M186.317 166.525L195.564 165.963V169.999L204.354 176.186C204.789 176.491 205.116 176.93 205.288 177.438C205.46 177.947 205.468 178.498 205.311 179.011C205.154 179.524 204.84 179.973 204.415 180.292C203.99 180.61 203.476 180.782 202.948 180.782H191.94L190.043 176.789L189.302 180.782H185.151L186.317 166.525Z" fill="#2F2E41"/>
<path d="M144.358 185.876L149.373 188.943L163.37 170.692L155.968 166.165L144.358 185.876Z" fill="#FFB6B6"/>
<path d="M144.599 182.594L152.811 186.961L150.772 190.422L155.185 200.336C155.403 200.826 155.462 201.373 155.353 201.9C155.243 202.426 154.972 202.902 154.578 203.26C154.184 203.618 153.688 203.838 153.163 203.888C152.638 203.938 152.11 203.816 151.658 203.54L142.22 197.767L142.609 193.348L139.957 196.383L136.399 194.207L144.599 182.594Z" fill="#2F2E41"/>
<path d="M60.0407 184C59.9949 184 59.949 183.999 59.9027 183.996C59.3625 183.971 58.8351 183.778 58.3653 183.433C57.8955 183.088 57.4972 182.602 57.2042 182.016C55.0101 177.785 52.3175 174.022 49.2237 170.862C47.3507 168.931 45.3936 167.135 43.501 165.398C38.6183 160.918 34.0201 156.7 31.4676 150.87C25.9024 138.159 32.4562 120.454 41.819 112.514C52.3206 103.608 66.1339 102.211 79.4967 102.028C80.8855 102.009 82.275 102 83.6655 102C107.742 102.012 131.769 104.846 155.448 110.469C163.322 112.343 171.564 114.639 178.187 120.211C184.771 125.751 188.773 134.474 188.382 142.435C187.812 154.058 178.263 162.742 169.568 165.013C161.28 167.175 152.671 165.714 143.556 164.166C141.543 163.825 139.463 163.471 137.405 163.164C115.045 159.83 73.0386 170.108 71.2615 170.548L69.4984 170.983L62.6574 182.342C62.3497 182.859 61.9534 183.278 61.4995 183.566C61.0457 183.854 60.5464 184.002 60.0407 184V184Z" fill="#5B8B43"/>
<path d="M152.789 128H49.3362C48.7392 128 48.1667 127.684 47.7445 127.121C47.3224 126.559 47.0853 125.796 47.0853 125C47.0853 124.204 47.3224 123.441 47.7445 122.879C48.1667 122.316 48.7392 122 49.3362 122H152.789C153.386 122 153.959 122.316 154.381 122.879C154.803 123.441 155.04 124.204 155.04 125C155.04 125.796 154.803 126.559 154.381 127.121C153.959 127.684 153.386 128 152.789 128V128Z" fill="white"/>
<path d="M152.793 144H49.3405C49.0448 144.001 48.7518 143.924 48.4784 143.774C48.2049 143.623 47.9564 143.403 47.7469 143.124C47.5375 142.846 47.3712 142.516 47.2577 142.152C47.1442 141.788 47.0856 141.397 47.0853 141.003C47.085 140.609 47.1429 140.219 47.2559 139.854C47.3689 139.49 47.5346 139.159 47.7436 138.88C47.9526 138.601 48.2008 138.38 48.474 138.229C48.7472 138.078 49.0401 138 49.3358 138H152.793C153.389 138.001 153.961 138.318 154.382 138.88C154.804 139.443 155.04 140.205 155.04 141C155.04 141.795 154.804 142.557 154.382 143.12C153.961 143.682 153.389 143.999 152.793 144Z" fill="white"/>
<path d="M61.5034 160H49.3511C48.7499 159.999 48.1735 159.735 47.7487 159.267C47.3239 158.798 47.0853 158.162 47.0853 157.5C47.0853 156.838 47.3239 156.202 47.7487 155.733C48.1735 155.265 48.7499 155.001 49.3511 155H61.5034C62.1047 155.001 62.681 155.265 63.1058 155.733C63.5306 156.202 63.7692 156.838 63.7692 157.5C63.7692 158.162 63.5306 158.798 63.1058 159.267C62.681 159.735 62.1047 159.999 61.5034 160V160Z" fill="white"/>
<path d="M164.703 91.0242L141.256 88.1731L141.931 92.7028C141.931 92.7028 126.053 105.739 136.922 120.122L142.17 125.337L141.687 127.787H145.057L145.418 130.744L159.914 142.97L160.746 145.472H163.133L161.967 148.316L151.205 173.82L160.121 178.056L176.542 145.979L172.336 136.311L157.204 116.797L180.641 126.23L181.04 128.3L183.195 127.884L182.779 130.932L187.352 154.909L197.039 153.599L196.043 123.765C195.968 122.134 195.471 120.552 194.603 119.18C193.734 117.809 192.524 116.696 191.097 115.954C186.131 113.355 167.788 106.134 167.788 106.134L164.703 91.0242Z" fill="#2F2E41"/>
<path d="M155.312 38.7628L150.897 32.9812L144.601 32.703L143.972 38.1407L140.852 39.6066C137.737 51.6665 137.256 64.2758 139.443 76.5457V76.5457C139.861 76.9468 140.166 77.4544 140.328 78.016C140.489 78.5777 140.5 79.173 140.361 79.7406L140.158 80.5623L140.177 80.5924C140.841 81.6598 141.066 82.9505 140.804 84.1857V84.1857L135.1 94.5129C147.213 99.5432 156.093 90.1624 164.319 77.8687L169.41 59.9119L155.312 38.7628Z" fill="#3F3D56"/>
<path d="M168.582 72.0068L169.771 59.892L153.988 36.0863L153.339 36.5327L168.963 60.1L167.803 71.9272L168.582 72.0068Z" fill="#2F2E41"/>
<path d="M151.205 32.5065C157.635 32.5065 162.848 27.1953 162.848 20.6436C162.848 14.0918 157.635 8.78064 151.205 8.78064C144.775 8.78064 139.563 14.0918 139.563 20.6436C139.563 27.1953 144.775 32.5065 151.205 32.5065Z" fill="#FFB8B8"/>
<path d="M152.703 6.17554L151.242 6.22277L150.746 6.23881L145.186 6.41856C140.258 6.57789 136.405 11.2865 136.581 16.9355C132.981 20.8602 134.246 25.5904 137.356 30.6261C142.702 31.1289 147.954 32.3799 152.965 34.3438L153.571 31.2682L155.08 35.244C156.33 35.8119 157.571 36.4369 158.804 37.119C157.181 30.4039 156.389 23.6777 157.196 18.4067L159.742 18.3244L159.654 15.4854L160.606 18.2965L165.222 18.1472C165.171 16.5236 164.807 14.9259 164.151 13.4456C163.494 11.9652 162.558 10.6311 161.396 9.51943C160.233 8.40776 158.867 7.54028 157.376 6.96653C155.884 6.39278 154.296 6.12401 152.703 6.17554V6.17554Z" fill="#2F2E41"/>
<path d="M142.65 11.1731C145.678 11.1731 148.133 8.67192 148.133 5.58655C148.133 2.50119 145.678 0 142.65 0C139.622 0 137.168 2.50119 137.168 5.58655C137.168 8.67192 139.622 11.1731 142.65 11.1731Z" fill="#2F2E41"/>
<path d="M178.671 49.8862L182.676 44.7847C183.359 43.9149 183.683 42.8087 183.581 41.6997C183.479 40.5906 182.958 39.5654 182.128 38.8405V38.8405C181.568 38.3513 180.891 38.0205 180.166 37.881C179.441 37.7416 178.693 37.7985 177.997 38.046C177.3 38.2935 176.679 38.7229 176.197 39.2914C175.714 39.8598 175.386 40.5474 175.246 41.2854L174.167 46.9659L170.073 58.2298L174.986 60.7329L178.671 49.8862Z" fill="#FFB8B8"/>
<path d="M166.388 64.4876L158.342 47.0179C157.911 46.1248 157.3 45.3342 156.55 44.6975C155.799 44.0608 154.926 43.5923 153.986 43.3224C153.046 43.0525 152.06 42.9872 151.094 43.131C150.128 43.2747 149.202 43.6241 148.377 44.1565V44.1565C146.843 45.1464 145.75 46.7083 145.331 48.5085C144.912 50.3088 145.2 52.2046 146.134 53.7911L159.317 76.8148C160.062 78.0798 161.183 79.0702 162.517 79.6424C163.852 80.2146 165.33 80.3388 166.739 79.9971V79.9971C167.881 79.72 168.933 79.1469 169.794 78.3333C170.655 77.5197 171.295 76.4933 171.652 75.3535L176.624 59.4814L170.073 56.1439L166.388 64.4876Z" fill="#2F2E41"/>
<path d="M293.408 230.03C292.901 230.86 292.383 231.685 291.862 232.503C290.892 234.026 289.897 235.526 288.876 237.003C288.876 237.007 288.873 237.007 288.869 237.011C288.273 237.573 287.615 238.063 286.909 238.47C286.879 238.492 286.846 238.507 286.816 238.526C286.295 238.819 285.741 239.046 285.166 239.201C284.959 239.254 284.748 239.306 284.541 239.359C283.794 239.54 283.054 239.695 282.318 239.83C281.008 240.068 279.714 240.237 278.426 240.343C278.323 240.354 278.219 240.362 278.116 240.369C272.822 240.765 267.669 240.128 262.291 239.084C259.635 238.571 256.923 237.957 254.116 237.32C253.198 237.109 252.277 236.902 251.345 236.694C251.275 236.679 251.201 236.66 251.127 236.645C249.795 236.348 248.441 236.054 247.054 235.763C245.308 235.398 246.203 235.377 244.331 235.041C244.331 235.041 248.65 239.51 249.367 241.447C250.166 243.829 250.799 245.714 249.463 249.637L253.611 257.933L239.193 260.424C231.247 244.559 224.896 234.111 227.733 227.958C227.744 227.672 227.766 227.382 227.803 227.095C227.954 225.793 228.358 224.534 228.991 223.393C229.624 222.251 230.474 221.249 231.492 220.446C232.466 219.67 233.583 219.099 234.776 218.766C235.969 218.434 237.215 218.346 238.442 218.509L241.272 218.882L263.219 217.796L264.081 214.215L264.24 214.154L269.297 212.266L286.786 205.734L286.831 205.719L287.981 205.289L288.118 205.515C288.159 205.583 288.2 205.651 288.236 205.719C289.374 207.796 290.299 209.986 291 212.255C292.177 215.961 293.147 219.733 293.904 223.551C293.937 223.717 293.966 223.868 293.992 224.003L294.003 224.045C294.015 224.109 294.022 224.15 294.026 224.162C294.429 225.873 294.148 227.961 293.408 230.03Z" fill="#2F2E41"/>
<path d="M289.718 160.383L289.592 153.24L278.485 151.923L277.32 157.955L265.647 169.133C257.348 179.471 263.378 186.601 263.739 187.661L264.766 200.698L265.411 205.227L262.89 217.623L294.711 224.579C295.73 216.008 294.595 208.045 287.952 201.636L291.309 190.993C293.01 188.214 294.077 185.081 294.431 181.826L294.551 180.713C297.518 171.296 295.76 168.125 289.718 160.383Z" fill="#E6E6E6"/>
<path d="M305.301 138.058C305.308 138.242 305.312 138.427 305.312 138.608C305.309 140.604 304.842 142.572 303.95 144.349C303.058 146.126 301.766 147.663 300.179 148.834C298.593 150.006 296.757 150.778 294.821 151.087C292.886 151.397 290.906 151.236 289.043 150.617L286.761 149.859C286.742 149.852 286.72 149.848 286.702 149.84L282.94 148.589C282.927 148.427 282.93 148.264 282.947 148.103C277.335 145.66 285.092 137.636 287.02 131.609C287.319 130.67 277.017 131.371 277.505 130.568C277.398 130.512 277.291 130.455 277.191 130.399C278.931 127.6 281.504 125.442 284.533 124.239C287.563 123.036 290.89 122.852 294.03 123.712C294.111 123.731 294.196 123.757 294.277 123.78C301.587 123.965 305.427 129.155 305.427 135.894C305.426 136.617 305.384 137.34 305.301 138.058V138.058Z" fill="#2F2E41"/>
<path d="M298.968 140.711C297.987 143.772 295.854 146.31 293.037 147.768C290.22 149.226 286.95 149.485 283.946 148.487C283.605 148.374 283.272 148.246 282.947 148.103C280.213 146.909 278.016 144.716 276.789 141.955C275.561 139.194 275.392 136.066 276.314 133.184C276.607 132.267 277.007 131.388 277.505 130.568C279.037 128.041 281.424 126.174 284.216 125.32C287.008 124.466 290.01 124.684 292.654 125.934C295.299 127.184 297.402 129.378 298.565 132.101C299.729 134.824 299.872 137.888 298.968 140.711V140.711Z" fill="#A0616A"/>
<path d="M286.758 149.858C286.738 149.853 286.719 149.846 286.7 149.838L282.939 148.589C282.929 148.425 276.023 153.083 276.043 152.919C276.15 151.66 283.93 145.519 285.093 144.09C285.845 143.178 286.367 142.093 286.616 140.93C286.865 139.766 286.832 138.558 286.52 137.41C286.209 136.262 285.628 135.208 284.828 134.34C284.028 133.472 283.033 132.815 281.928 132.425C281.895 132.417 281.862 132.405 281.83 132.391C281.103 132.132 280.404 131.868 279.75 131.604C279.427 130.236 279.261 130.689 278.485 129.529C278.626 130.584 277.313 131.38 277.293 132.445C277.024 132.321 276.77 132.191 276.526 132.062C276.419 132.002 276.316 131.948 276.214 131.893C275.46 131.536 274.802 131 274.294 130.33C276.175 124.443 283.369 119.73 289.147 121.656L291.33 122.378C294.083 123.289 296.371 125.273 297.694 127.897C299.286 129.141 300.557 130.762 301.396 132.619C306.172 142.398 296.946 153.192 286.758 149.858Z" fill="#2F2E41"/>
<path d="M302.556 133.493C305.416 133.493 307.735 131.131 307.735 128.216C307.735 125.302 305.416 122.939 302.556 122.939C299.696 122.939 297.377 125.302 297.377 128.216C297.377 131.131 299.696 133.493 302.556 133.493Z" fill="#2F2E41"/>
<path d="M368.351 138.979C367.253 144.063 365.056 148.834 361.919 152.943C358.783 157.052 354.787 160.396 350.221 162.732C349.64 163.026 349.049 163.3 348.453 163.553C348.507 161.092 347.813 158.675 346.465 156.631C346.684 158.288 346.711 159.965 346.544 161.628C346.452 162.581 346.297 163.527 346.08 164.459C342.248 165.747 338.224 166.338 334.192 166.206C333.962 164.38 333.314 162.635 332.302 161.11C332.521 162.767 332.547 164.444 332.38 166.106C328.327 165.771 324.367 164.691 320.693 162.916C318.783 161.991 316.907 160.831 315.677 159.08C314.041 156.746 313.767 153.665 314.168 150.829C314.568 147.987 315.569 145.275 316.268 142.498C316.966 139.721 317.362 136.75 316.541 134.008C315.726 131.261 313.435 128.817 310.627 128.603C309.347 128.504 308.063 128.862 306.783 128.743C305.503 128.618 304.116 127.747 304.087 126.439L305.313 124.408C305.831 120.855 307.608 117.332 310.656 115.525C313.699 113.714 318.075 114.102 320.248 116.928C322.08 119.307 322.011 122.612 322.612 125.573C324.009 132.45 329.406 137.984 335.677 140.9C341.953 143.812 349.015 144.424 355.911 144.304C358.275 144.259 360.678 144.13 362.925 143.369C365.176 142.602 367.276 141.129 368.351 138.979Z" fill="#2F2E41"/>
<path d="M250.899 170.694L248.871 146.049C248.802 145.206 249.065 144.369 249.601 143.723C250.137 143.077 250.903 142.674 251.73 142.602L257.002 142.152C257.829 142.082 258.65 142.35 259.284 142.896C259.918 143.442 260.314 144.222 260.384 145.065L262.412 169.71C262.481 170.553 262.218 171.39 261.682 172.036C261.146 172.682 260.38 173.085 259.553 173.157L254.282 173.607C253.454 173.677 252.633 173.409 251.999 172.863C251.365 172.317 250.969 171.537 250.899 170.694V170.694Z" fill="#3F3D56"/>
<path d="M252.45 143.806C252.004 143.845 251.592 144.062 251.303 144.41C251.014 144.759 250.873 145.209 250.909 145.664L252.938 170.308C252.975 170.763 253.189 171.183 253.53 171.478C253.872 171.772 254.315 171.916 254.76 171.879L260.032 171.428C260.478 171.39 260.89 171.172 261.179 170.824C261.468 170.476 261.61 170.025 261.573 169.571L259.545 144.926C259.507 144.472 259.294 144.051 258.952 143.757C258.61 143.463 258.168 143.318 257.722 143.356L252.45 143.806Z" fill="#5B8B43"/>
<path d="M261.338 179.15L266.47 177.154L263.49 165.533L262.967 159.771C262.9 159.023 262.64 158.306 262.215 157.691C261.79 157.077 261.214 156.587 260.545 156.271C259.876 155.954 259.137 155.822 258.402 155.888C257.667 155.953 256.962 156.214 256.357 156.645V156.645C255.46 157.283 254.842 158.25 254.633 159.343C254.423 160.437 254.639 161.57 255.234 162.505L258.725 167.985L261.338 179.15Z" fill="#A0616A"/>
<path d="M266.673 175.078L259.83 177.739L263.236 194.035C263.481 195.205 264.018 196.291 264.796 197.187C265.573 198.083 266.565 198.76 267.675 199.151V199.151C269.043 199.633 270.527 199.658 271.91 199.223C273.294 198.788 274.505 197.916 275.369 196.732L290.722 175.15C291.806 173.666 292.277 171.808 292.035 169.974C291.793 168.141 290.856 166.476 289.426 165.337V165.337C288.657 164.724 287.769 164.283 286.822 164.042C285.874 163.802 284.887 163.767 283.926 163.941C282.964 164.115 282.049 164.493 281.241 165.051C280.432 165.609 279.748 166.334 279.232 167.18L269.53 183.753L266.673 175.078Z" fill="#E6E6E6"/>
<path opacity="0.2" d="M261.107 183.851L264.566 198.163L265.284 199.053C265.852 199.757 266.578 200.313 267.401 200.672C268.224 201.032 269.12 201.185 270.012 201.118C270.905 201.051 271.769 200.767 272.532 200.289C273.295 199.811 273.934 199.154 274.395 198.372L285.357 179.802L275.474 193.736C274.92 194.517 274.18 195.142 273.324 195.553C272.468 195.964 271.524 196.146 270.58 196.084C269.635 196.021 268.722 195.716 267.926 195.196C267.129 194.675 266.475 193.958 266.025 193.11L261.107 183.851Z" fill="black"/>
</g>
<defs>
<clipPath id="clip0_496_6858">
<rect width="422.351" height="330" fill="white" transform="translate(-54)"/>
</clipPath>
</defs>
</svg>
