<svg width="372" height="330" viewBox="0 0 372 330" fill="none" xmlns="http://www.w3.org/2000/svg">
<path d="M298.438 161.186L316.033 142.046L301.633 130.683L294.519 146.411L262.244 157.073C261.156 156.448 259.91 156.152 258.657 156.223C257.405 156.294 256.199 156.727 255.189 157.471C254.178 158.215 253.406 159.236 252.966 160.411C252.526 161.586 252.437 162.864 252.711 164.089C252.985 165.313 253.609 166.432 254.507 167.308C255.405 168.184 256.539 168.779 257.77 169.022C259.001 169.265 260.276 169.144 261.44 168.675C262.603 168.206 263.605 167.408 264.323 166.379L298.438 161.186Z" fill="#FFE6E6"/>
<path d="M330.692 117.941C333.881 125.053 314.422 145.37 314.422 145.37C309.101 149.674 308.257 160.446 301.66 161.646C283.866 164.881 294.933 161.496 290.337 163.263C286.011 164.927 289.995 150.688 287.102 149.783C285.447 149.266 294.651 143.313 294.651 143.313C294.651 143.313 302.945 127.046 308.045 118.608C309.443 116.196 311.428 114.177 313.816 112.738C316.204 111.299 318.917 110.488 321.703 110.38C321.703 110.38 327.502 110.829 330.692 117.941Z" fill="#E6E6E6"/>
<path d="M248.31 329.361H46.1269C41.3348 329.356 36.7405 327.45 33.3519 324.061C29.9634 320.672 28.0573 316.078 28.0519 311.286V18.075C28.0573 13.2829 29.9634 8.68857 33.3519 5.30002C36.7405 1.91148 41.3348 0.00541184 46.1269 0H248.31C253.102 0.00541327 257.696 1.91148 261.085 5.30002C264.474 8.68857 266.38 13.2829 266.385 18.075V311.286C266.38 316.078 264.474 320.672 261.085 324.061C257.696 327.45 253.102 329.356 248.31 329.361V329.361Z" fill="#3F3D56"/>
<path d="M248.666 317.829H45.771C44.2938 317.827 42.8776 317.239 41.833 316.195C40.7885 315.15 40.2009 313.734 40.1992 312.257V17.104C40.2009 15.6268 40.7885 14.2106 41.833 13.166C42.8776 12.1215 44.2938 11.5339 45.771 11.5322H248.666C250.143 11.5339 251.559 12.1215 252.604 13.166C253.648 14.2106 254.236 15.6268 254.238 17.104V312.257C254.236 313.734 253.648 315.15 252.604 316.195C251.559 317.239 250.143 317.827 248.666 317.829V317.829Z" fill="white"/>
<path d="M55.6694 147.346C56.2358 139.655 57.1709 130.201 64.7799 126.092C68.3702 124.154 72.172 124.84 75.7816 126.351C79.2695 127.811 82.5556 129.552 86.3122 130.238C92.788 131.355 99.4516 130.356 105.315 127.388C111.22 124.452 115.958 119.603 118.757 113.631C120.198 110.593 121.389 107.302 123.511 104.651C124.579 103.259 125.995 102.173 127.616 101.502C129.237 100.831 131.006 100.599 132.745 100.829C140.723 101.814 146.018 108.805 152.378 112.92C155.437 114.9 158.95 116.345 162.654 116.167C166.453 115.986 169.897 114.187 172.808 111.839C178.986 106.858 182.364 99.1532 188.847 94.511C191.921 92.3649 195.488 91.0317 199.216 90.6356C202.944 90.2394 206.711 90.7932 210.167 92.2452C216.812 95.1116 221.517 101.534 222.76 108.602C223.057 110.343 223.134 112.115 222.988 113.876C222.907 114.914 224.525 114.909 224.606 113.876C224.849 110.213 224.241 106.543 222.831 103.154C221.421 99.7641 219.247 96.7464 216.478 94.3361C210.742 89.3878 202.728 87.7795 195.439 89.6837C191.728 90.6676 188.316 92.5531 185.509 95.1725C182.51 97.9381 180.145 101.289 177.614 104.465C175.144 107.564 172.42 110.556 168.954 112.557C167.295 113.569 165.435 114.206 163.504 114.426C161.573 114.646 159.617 114.442 157.773 113.829C154.032 112.567 150.862 109.967 147.868 107.477C144.783 104.911 141.712 102.343 138.003 100.713C134.555 99.1964 130.6 98.461 127.01 99.9541C123.774 101.3 121.632 104.095 120.044 107.117C118.432 110.185 117.285 113.492 115.404 116.418C113.586 119.218 111.252 121.647 108.526 123.576C102.991 127.531 96.2601 129.454 89.4708 129.02C85.7819 128.758 82.4279 127.593 79.0875 126.066C75.4007 124.38 71.5177 122.627 67.3694 123.444C63.7911 124.148 60.7806 126.579 58.6904 129.484C56.2771 132.837 55.2168 136.947 54.6633 140.984C54.3738 143.096 54.2083 145.221 54.0518 147.346C53.9753 148.385 55.5933 148.38 55.6694 147.346V147.346Z" fill="#E4E4E4"/>
<path d="M341.611 321.569L333.929 321.568L330.275 291.941L341.612 291.942L341.611 321.569Z" fill="#FFE6E6"/>
<path d="M341.406 319.058L333.21 315.729L332.968 315.63L328.443 319.058C325.959 319.058 323.571 320.017 321.778 321.734C319.984 323.452 318.922 325.796 318.815 328.277C318.802 328.413 318.803 328.556 318.803 328.699V329.015H343.569V319.058H341.406Z" fill="#2F2E41"/>
<path d="M323.622 314.42L316.376 316.97L303.096 290.235L313.79 286.473L323.622 314.42Z" fill="#FFE6E6"/>
<path d="M322.596 312.121L313.76 311.7L313.499 311.687L310.368 316.423C308.025 317.247 306.091 318.944 304.969 321.16C303.847 323.375 303.623 325.939 304.346 328.315C304.379 328.448 304.426 328.582 304.474 328.717L304.579 329.015L327.942 320.794L324.637 311.402L322.596 312.121Z" fill="#2F2E41"/>
<path d="M344.325 193.823C351.352 193.55 342.647 249.55 342.647 249.55C342.647 249.55 345.193 298.715 344.654 301.296C344.114 303.876 344.586 310.834 344.586 310.834C343.209 308.329 329.005 310.22 329.005 310.22L327.073 260.391L317.207 220.466L303.53 247.228L316.639 288.306C316.639 288.306 321.948 293.219 321.383 295.16C320.819 297.101 306.913 301.479 304.358 301.579C301.802 301.678 302.956 298.434 302.832 295.24C302.708 292.046 290.684 262.442 286.455 252.369C282.225 242.296 285.513 228.093 287.672 217.773C289.831 207.452 301.189 188.084 301.189 188.084C315.288 172.183 337.298 194.095 344.325 193.823Z" fill="#2F2E41"/>
<path d="M324.66 100.783C332.062 100.783 338.063 94.7823 338.063 87.38C338.063 79.9778 332.062 73.9771 324.66 73.9771C317.258 73.9771 311.257 79.9778 311.257 87.38C311.257 94.7823 317.258 100.783 324.66 100.783Z" fill="#FFE6E6"/>
<path d="M317.958 109.641C315.071 111.358 313.344 114.512 312.352 117.722C310.516 123.664 309.411 129.807 309.062 136.017L305.247 173.063L297.886 191.303C313.629 189.936 348.539 196.351 348.539 196.351C348.539 196.351 349.836 195.918 348.539 194.621C347.242 193.324 345.979 194.473 347.276 193.176C348.573 191.879 347.679 193.324 347.247 192.027C346.814 190.73 347.247 191.595 347.679 191.162C348.112 190.73 344.332 186.839 344.332 186.839L347.791 164.118L352.114 118.289C346.926 111.803 336.492 107.98 336.492 107.98L333.796 103.127L320.315 104.206L317.958 109.641Z" fill="#E6E6E6"/>
<path d="M357.193 160.879L353.866 141.273L342.292 143.371L343.309 160.52L338.242 196.217C337.062 196.643 336.032 197.404 335.277 198.406C334.522 199.409 334.075 200.609 333.991 201.861C333.906 203.113 334.187 204.362 334.801 205.457C335.414 206.551 336.332 207.444 337.444 208.026C338.556 208.608 339.813 208.853 341.062 208.733C342.311 208.613 343.498 208.131 344.478 207.348C345.458 206.565 346.189 205.513 346.582 204.322C346.975 203.13 347.013 201.85 346.691 200.637L357.193 160.879Z" fill="#FFE6E6"/>
<path d="M347.63 115.002C355.12 117.159 358.071 145.137 358.071 145.137C361.464 158.639 355.043 164.326 353.413 164.266C348.782 164.097 346.216 160.133 343.657 161.759C342.193 162.688 341.92 152.007 341.92 152.007C341.92 152.007 336.668 142.069 333.518 132.726C332.578 130.102 332.318 127.282 332.761 124.53C333.205 121.777 334.337 119.182 336.053 116.985C336.053 116.985 340.14 112.846 347.63 115.002Z" fill="#E6E6E6"/>
<path d="M339.997 83.2841C339.953 81.1069 339.706 78.3215 338.181 76.1002C336.894 74.2315 334.298 72.7506 331.879 73.4911C331.906 73.0072 331.798 72.5253 331.568 72.099C331.338 71.6726 330.994 71.3184 330.574 71.0759C329.646 70.6014 328.623 70.3437 327.581 70.3222C325.127 70.093 322.584 69.855 320.098 70.3266C317.308 70.8555 315.025 72.2923 313.839 74.2712L313.813 74.3328L313.571 75.5052C313.538 75.6624 313.472 75.8108 313.377 75.9401C313.282 76.0695 313.16 76.1767 313.02 76.2545C312.879 76.3333 312.723 76.3801 312.562 76.3916C312.401 76.403 312.24 76.3787 312.09 76.3205C311.925 76.2589 311.747 76.2412 311.574 76.2692C311.401 76.2973 311.238 76.3701 311.101 76.4805C310.964 76.5909 310.859 76.735 310.795 76.8987C310.731 77.0623 310.711 77.2398 310.737 77.4136L310.803 77.8808L310.102 77.7485C309.926 77.7145 309.744 77.728 309.575 77.7877C309.406 77.8474 309.257 77.9511 309.141 78.0881C309.026 78.2251 308.949 78.3905 308.919 78.5671C308.888 78.7437 308.906 78.9252 308.969 79.0928L309.163 79.6261C309.019 79.628 308.876 79.659 308.743 79.7173C308.611 79.7756 308.491 79.86 308.392 79.9654C308.25 80.1191 308.161 80.3137 308.138 80.5213C308.114 80.7288 308.157 80.9385 308.26 81.1202C309.045 82.4609 310.158 83.5801 311.495 84.3728C312.096 84.7348 312.744 85.0121 313.421 85.1969C313.562 85.2366 313.707 85.2719 313.857 85.3027C319.268 86.4689 324.847 86.6362 330.318 85.7963C329.996 86.8757 329.872 88.0046 329.953 89.1282C330 89.7655 330.221 90.3775 330.592 90.8981C330.962 91.4186 331.468 91.8278 332.055 92.0811C332.304 92.1656 332.561 92.2276 332.822 92.2662C333.072 92.3067 333.318 92.3671 333.558 92.447C333.912 92.5768 334.226 92.798 334.468 93.0881C334.709 93.3782 334.87 93.7269 334.933 94.099C334.997 94.4711 334.961 94.8535 334.829 95.2072C334.698 95.561 334.475 95.8738 334.184 96.1138C334.184 96.1138 335.338 97.0702 335.484 97.0218C336.051 96.7711 336.526 96.3487 336.841 95.8142C339.04 92.6496 340.103 88.4363 339.997 83.2841Z" fill="#2F2E41"/>
<path d="M146.45 7.07308C147.299 7.07308 147.987 6.38466 147.987 5.53544C147.987 4.68623 147.299 3.9978 146.45 3.9978C145.6 3.9978 144.912 4.68623 144.912 5.53544C144.912 6.38466 145.6 7.07308 146.45 7.07308Z" fill="white"/>
<path d="M236.349 147.873H53.9639C53.8125 147.873 53.6673 147.812 53.5603 147.705C53.4532 147.598 53.3931 147.453 53.3931 147.302L53.6701 146.667L236.349 146.731C236.501 146.73 236.646 146.79 236.753 146.897C236.861 147.003 236.922 147.148 236.922 147.3C236.923 147.451 236.863 147.596 236.756 147.704C236.65 147.811 236.505 147.872 236.353 147.873H236.349V147.873Z" fill="#3F3D56"/>
<path d="M88.6566 143.879H87.5371V147.069H88.6566V143.879Z" fill="#3F3D56"/>
<path d="M122.172 125.546H121.053V147.069H122.172V125.546Z" fill="#3F3D56"/>
<path d="M155.757 99.6638H154.638V147.069H155.757V99.6638Z" fill="#3F3D56"/>
<path d="M189.342 77.5559H188.222V147.069H189.342V77.5559Z" fill="#3F3D56"/>
<path d="M222.926 128.242H221.807V147.069H222.926V128.242Z" fill="#3F3D56"/>
<path d="M188.851 73.6814C190.742 73.6814 192.276 72.1481 192.276 70.2567C192.276 68.3653 190.742 66.832 188.851 66.832C186.96 66.832 185.426 68.3653 185.426 70.2567C185.426 72.1481 186.96 73.6814 188.851 73.6814Z" fill="#5B8B43"/>
<path d="M155.805 93.7707C157.697 93.7707 159.23 92.2374 159.23 90.346C159.23 88.4546 157.697 86.9213 155.805 86.9213C153.914 86.9213 152.381 88.4546 152.381 90.346C152.381 92.2374 153.914 93.7707 155.805 93.7707Z" fill="#5B8B43"/>
<path d="M222.436 125.359C224.327 125.359 225.86 123.825 225.86 121.934C225.86 120.042 224.327 118.509 222.436 118.509C220.544 118.509 219.011 120.042 219.011 121.934C219.011 123.825 220.544 125.359 222.436 125.359Z" fill="#5B8B43"/>
<path d="M120.719 266.648V226.239C120.719 225.721 121.321 225.301 122.065 225.301H128.073C128.816 225.301 129.419 225.721 129.419 226.239V266.753L120.719 266.648Z" fill="#3F3D56"/>
<path d="M140.562 266.783V235.909C140.562 235.411 141.165 235.007 141.908 235.007H147.916C148.66 235.007 149.263 235.411 149.263 235.909V266.717L140.562 266.783Z" fill="#3F3D56"/>
<path d="M180.249 266.712V251.009C180.196 250.821 180.797 250.658 181.595 250.644H187.603C188.402 250.658 189.002 250.821 188.95 251.009V266.753L180.249 266.712Z" fill="#3F3D56"/>
<path d="M100.875 266.712V251.009C100.875 250.807 101.478 250.644 102.221 250.644H108.229C108.973 250.644 109.575 250.808 109.575 251.009V266.753L100.875 266.712Z" fill="#3F3D56"/>
<path d="M160.405 266.555V190.727C160.405 189.755 161.008 188.966 161.752 188.966H167.76C168.503 188.966 169.106 189.755 169.106 190.727V266.753L160.405 266.555Z" fill="#5B8B43"/>
<path d="M214.843 267.451H78.9602C78.8172 267.451 78.68 267.394 78.5789 267.293C78.4778 267.192 78.421 267.055 78.421 266.912C78.421 266.769 78.4778 266.632 78.5789 266.53C78.68 266.429 78.8172 266.373 78.9602 266.373H214.843C214.986 266.373 215.123 266.429 215.224 266.53C215.325 266.632 215.382 266.769 215.382 266.912C215.382 267.055 215.325 267.192 215.224 267.293C215.123 267.394 214.986 267.451 214.843 267.451Z" fill="#3F3D56"/>
<path d="M361.568 330H28.4321C28.3175 330 28.2076 329.947 28.1266 329.854C28.0455 329.76 28 329.633 28 329.5C28 329.367 28.0455 329.24 28.1266 329.146C28.2076 329.053 28.3175 329 28.4321 329H361.568C361.683 329 361.792 329.053 361.873 329.146C361.954 329.24 362 329.367 362 329.5C362 329.633 361.954 329.76 361.873 329.854C361.792 329.947 361.683 330 361.568 330Z" fill="#CACACA"/>
<path d="M88.2503 140.333C90.1417 140.333 91.675 138.8 91.675 136.909C91.675 135.017 90.1417 133.484 88.2503 133.484C86.3589 133.484 84.8256 135.017 84.8256 136.909C84.8256 138.8 86.3589 140.333 88.2503 140.333Z" fill="#5B8B43"/>
<path d="M121.682 121.461C123.573 121.461 125.106 119.928 125.106 118.036C125.106 116.145 123.573 114.611 121.682 114.611C119.79 114.611 118.257 116.145 118.257 118.036C118.257 119.928 119.79 121.461 121.682 121.461Z" fill="#5B8B43"/>
</svg>
