<svg width="49" height="19" viewBox="0 0 49 19" fill="none" xmlns="http://www.w3.org/2000/svg">
<path d="M2.8 12.7685C2.8 14.6565 3.216 16.0165 4.048 16.8485C4.896 17.6805 5.856 18.0965 6.928 18.0965C8.384 18.0965 9.768 17.6085 11.08 16.6325C12.408 15.6725 13.448 14.4645 14.2 13.0085C14.952 11.5365 15.328 10.0325 15.328 8.49655C15.328 6.96055 14.984 5.76055 14.296 4.89655C13.608 4.01655 12.632 3.57655 11.368 3.57655C9.848 3.57655 8.656 4.10455 7.792 5.16055C6.928 6.21655 6.496 7.45655 6.496 8.88055C6.496 9.50455 6.592 10.0485 6.784 10.5125C6.976 10.9765 7.192 11.3205 7.432 11.5445C7.672 11.7685 7.944 11.9525 8.248 12.0965C8.648 12.2885 8.992 12.3845 9.28 12.3845L9.256 12.8645C8.984 12.8645 8.632 12.7685 8.2 12.5765C7.784 12.3845 7.432 12.1605 7.144 11.9045C6.856 11.6485 6.592 11.2565 6.352 10.7285C6.128 10.2005 6.016 9.58455 6.016 8.88055C6.016 7.32855 6.488 5.98455 7.432 4.84855C8.392 3.69655 9.704 3.12055 11.368 3.12055C12.76 3.12055 13.848 3.60055 14.632 4.56055C15.416 5.52055 15.808 6.85655 15.808 8.56855C15.808 9.76855 15.568 10.9765 15.088 12.1925C14.624 13.3925 13.984 14.4725 13.168 15.4325C12.368 16.3925 11.36 17.1765 10.144 17.7845C8.944 18.3925 7.664 18.6965 6.304 18.6965C4.368 18.6965 2.856 18.1045 1.768 16.9205C0.68 15.7525 0.136 14.1285 0.136 12.0485C0.136 9.18455 1.048 6.75255 2.872 4.75255C4.696 2.75255 6.968 1.69655 9.688 1.58455L9.712 2.06455C8.672 2.09655 7.736 2.36055 6.904 2.85655C6.088 3.33655 5.424 3.95255 4.912 4.70455C4.416 5.44055 4 6.30455 3.664 7.29655C3.088 9.04055 2.8 10.8645 2.8 12.7685ZM21.7611 15.3605C21.5531 15.6325 21.2651 15.8805 20.8971 16.1045C20.5451 16.3285 20.0811 16.4405 19.5051 16.4405C18.9291 16.4405 18.4411 16.2565 18.0411 15.8885C17.6411 15.5205 17.4411 15.0005 17.4411 14.3285C17.4411 14.2005 17.4571 13.9925 17.4891 13.7045L19.0491 5.06455C19.3371 3.48055 19.7291 2.35255 20.2251 1.68055C20.7371 1.00855 21.4091 0.672548 22.2411 0.672548C22.8171 0.672548 23.2891 0.888548 23.6571 1.32055C24.0411 1.75255 24.2331 2.40855 24.2331 3.28855C24.2331 4.16855 23.8891 5.42455 23.2011 7.05655C22.5291 8.68855 22.1931 9.88055 22.1931 10.6325H21.7611C21.7611 9.78455 22.0971 8.57655 22.7691 7.00855C23.4411 5.42455 23.7771 4.16055 23.7771 3.21655C23.7771 2.64055 23.6411 2.14455 23.3691 1.72855C23.1131 1.31255 22.7931 1.10455 22.4091 1.10455C22.3931 1.52055 22.1131 3.39255 21.5691 6.72055C21.0411 10.0325 20.5131 13.1125 19.9851 15.9605C20.4331 15.9605 20.8491 15.7285 21.2331 15.2645C21.6171 14.8005 21.8891 14.3365 22.0491 13.8725L22.3131 13.1525L22.7451 13.3445C22.6971 13.5685 22.5691 13.8965 22.3611 14.3285C22.1691 14.7445 21.9691 15.0885 21.7611 15.3605ZM28.4888 15.5765C28.0088 16.1525 27.4088 16.4405 26.6888 16.4405C25.9688 16.4405 25.4008 16.2565 24.9848 15.8885C24.5848 15.5205 24.3848 15.0405 24.3848 14.4485C24.3848 14.2405 24.5128 13.3685 24.7688 11.8325L25.5608 7.53655H24.5528L24.6008 7.10455H25.6328C26.8168 7.10455 27.6888 7.05655 28.2488 6.96055L28.5848 6.88855L26.9288 15.9605C27.4088 15.9125 27.8088 15.6885 28.1288 15.2885L28.4888 15.5765ZM26.3768 4.58455C26.0408 4.24855 25.8728 3.84055 25.8728 3.36055C25.8728 2.88055 26.0408 2.47255 26.3768 2.13655C26.7128 1.78455 27.1208 1.60855 27.6008 1.60855C28.0808 1.60855 28.4888 1.78455 28.8248 2.13655C29.1768 2.47255 29.3528 2.88055 29.3528 3.36055C29.3528 3.84055 29.1768 4.24855 28.8248 4.58455C28.4888 4.92055 28.0808 5.08855 27.6008 5.08855C27.1208 5.08855 26.7128 4.92055 26.3768 4.58455ZM36.1493 9.86455C35.8133 9.52855 35.6453 9.12055 35.6453 8.64055C35.6453 8.16055 35.8133 7.75255 36.1493 7.41655C36.4853 7.06455 36.8613 6.88855 37.2773 6.88855C37.7093 6.88855 38.0693 7.00055 38.3573 7.22455C38.6613 7.43255 38.8773 7.70455 39.0053 8.04055C39.0213 8.05655 39.0293 8.07255 39.0293 8.08855V8.11255C39.2213 8.52855 39.3173 9.13655 39.3173 9.93655C39.3173 10.7205 39.2213 11.4405 39.0293 12.0965C38.8533 12.7525 38.5733 13.4245 38.1893 14.1125C37.8213 14.7845 37.2773 15.3445 36.5573 15.7925C35.8373 16.2245 34.9893 16.4405 34.0133 16.4405C33.0373 16.4405 32.2213 16.1205 31.5653 15.4805C30.9253 14.8405 30.6053 14.1045 30.6053 13.2725C30.6053 12.4405 30.7493 11.4165 31.0373 10.2005C31.3413 8.96855 31.5093 8.02455 31.5413 7.36855C31.2853 7.38455 31.0373 7.48055 30.7973 7.65655C30.5573 7.81655 30.3813 7.97655 30.2693 8.13655L30.1013 8.37655L29.7413 8.08855C29.7893 7.99255 29.8613 7.88055 29.9573 7.75255C30.0533 7.62455 30.2933 7.44855 30.6773 7.22455C31.0773 7.00055 31.5733 6.88855 32.1653 6.88855C32.7573 6.88855 33.2293 7.08055 33.5813 7.46455C33.9493 7.84855 34.1333 8.33655 34.1333 8.92855C34.1333 9.52055 33.9733 10.4405 33.6533 11.6885C33.3333 12.9205 33.1733 13.7925 33.1733 14.3045C33.1733 14.8005 33.2853 15.1925 33.5093 15.4805C33.7493 15.7685 34.0853 15.9125 34.5173 15.9125C35.5893 15.9125 36.5653 15.3285 37.4453 14.1605C38.3253 12.9925 38.7653 11.6885 38.7653 10.2485C38.7653 10.1365 38.7493 9.96855 38.7173 9.74455C38.3813 10.1605 37.9493 10.3685 37.4213 10.3685C36.9093 10.3685 36.4853 10.2005 36.1493 9.86455ZM45.6391 6.88855C47.6711 6.88855 48.6871 7.69655 48.6871 9.31255C48.6871 10.3205 48.2071 11.0885 47.2471 11.6165C46.3031 12.1285 44.9511 12.3925 43.1911 12.4085C43.1591 12.9845 43.1431 13.4405 43.1431 13.7765C43.1431 14.4965 43.3031 15.0325 43.6231 15.3845C43.9591 15.7205 44.3751 15.8885 44.8711 15.8885C45.3671 15.8885 45.8151 15.7925 46.2151 15.6005C46.6311 15.4085 46.9591 15.1845 47.1991 14.9285C47.4391 14.6565 47.6471 14.3765 47.8231 14.0885C48.1431 13.5605 48.3031 13.2245 48.3031 13.0805L48.7351 13.2725C48.6871 13.5285 48.5431 13.8725 48.3031 14.3045C48.0631 14.7205 47.7991 15.0645 47.5111 15.3365C47.2231 15.6085 46.7991 15.8645 46.2391 16.1045C45.6791 16.3285 45.0551 16.4405 44.3671 16.4405C43.0711 16.4405 42.0871 16.1365 41.4151 15.5285C40.7591 14.9045 40.4311 14.0565 40.4311 12.9845C40.4311 11.0805 40.9031 9.59255 41.8471 8.52055C42.7911 7.43255 44.0551 6.88855 45.6391 6.88855ZM48.0871 9.31255C48.0871 8.78455 47.9271 8.35255 47.6071 8.01655C47.3031 7.66455 46.8391 7.48855 46.2151 7.48855C45.6071 7.48855 45.0071 7.85655 44.4151 8.59255C43.8391 9.32855 43.4551 10.4165 43.2631 11.8565C46.4791 11.8405 48.0871 10.9925 48.0871 9.31255Z" fill="#5B8B43"/>
</svg>
