<svg width="48" height="49" viewBox="0 0 48 49" fill="none" xmlns="http://www.w3.org/2000/svg">
<path d="M13.8296 14.75C9.54805 22.3079 12.5265 31.5204 19.2591 31.8205C21.088 31.902 23.7269 33.2479 24.6266 33.8077C26.271 34.8309 27.2328 37.2935 27.2328 37.2935" stroke="#5B8B43" stroke-width="1.5" stroke-linecap="round"/>
<path d="M12.4333 24.8816C12.5678 23.8283 13.6372 21.5717 16.7149 21.4936C15.8462 24.5884 13.8916 24.8816 12.4333 24.8816Z" fill="#5B8B43"/>
<path d="M13.9505 29.7128C13.7809 28.6651 14.1635 26.1769 17.0802 25.1422C17.1263 28.3683 15.3429 29.2579 13.9505 29.7128Z" fill="#5B8B43"/>
<path d="M17.2607 31.4366C16.9005 30.4434 16.8158 27.9246 19.4857 26.315C20.1275 29.4703 18.5425 30.7066 17.2607 31.4366Z" fill="#5B8B43"/>
<path d="M12.1851 19.5077C12.6713 18.5756 14.442 16.8739 17.3406 17.9631C15.47 20.5229 13.5457 20.0584 12.1851 19.5077Z" fill="#5B8B43"/>
<path d="M10.2795 12.0933C11.2114 12.5079 13.0012 14.1875 12.2592 17.3248C9.64637 15.6267 9.89392 13.5699 10.2795 12.0933Z" fill="#5B8B43"/>
<path d="M8.59518 17.91C9.59368 18.0839 11.7085 19.2763 11.6872 22.5089C8.76816 21.5009 8.54984 19.4404 8.59518 17.91Z" fill="#5B8B43"/>
<path d="M8.06883 24.3547C9.04244 24.0643 11.4397 24.1945 12.7348 27.1272C9.68537 27.5243 8.65011 25.7589 8.06883 24.3547Z" fill="#5B8B43"/>
<path d="M10.2616 31.905C10.82 31.0187 12.7193 29.4775 15.5216 30.8162C13.4547 33.2036 11.5739 32.5726 10.2616 31.905Z" fill="#5B8B43"/>
<path d="M14.5498 34.908C14.6957 33.8563 15.7895 31.6128 18.868 31.5715C17.9656 34.6558 16.0079 34.9255 14.5498 34.908Z" fill="#5B8B43"/>
<path d="M13.1982 15.2966C13.1682 14.2344 13.875 11.8256 16.9 11.2245C16.5206 14.4263 14.6371 15.0484 13.1982 15.2966Z" fill="#5B8B43"/>
<path d="M34.3996 14.75C38.6812 22.3079 35.7027 31.5204 28.9701 31.8205C27.1412 31.902 24.5023 33.2479 23.6026 33.8077C21.9582 34.8309 20.9965 37.2935 20.9965 37.2935" stroke="#5B8B43" stroke-width="1.5" stroke-linecap="round"/>
<path d="M35.7959 24.8816C35.6615 23.8283 34.5921 21.5717 31.5143 21.4936C32.383 24.5884 34.3377 24.8816 35.7959 24.8816Z" fill="#5B8B43"/>
<path d="M34.2788 29.7128C34.4484 28.6651 34.0657 26.1769 31.149 25.1422C31.1029 28.3683 32.8864 29.2579 34.2788 29.7128Z" fill="#5B8B43"/>
<path d="M30.9686 31.4366C31.3287 30.4434 31.4134 27.9246 28.7435 26.315C28.1018 29.4703 29.6868 30.7066 30.9686 31.4366Z" fill="#5B8B43"/>
<path d="M36.0439 19.5077C35.5577 18.5756 33.7871 16.8739 30.8884 17.9631C32.759 20.5229 34.6833 20.0584 36.0439 19.5077Z" fill="#5B8B43"/>
<path d="M37.9497 12.0933C37.0178 12.5079 35.228 14.1875 35.97 17.3248C38.5829 15.6267 38.3353 13.5699 37.9497 12.0933Z" fill="#5B8B43"/>
<path d="M39.6341 17.91C38.6356 18.0839 36.5208 19.2763 36.5421 22.5089C39.4611 21.5009 39.6794 19.4404 39.6341 17.91Z" fill="#5B8B43"/>
<path d="M40.1604 24.3547C39.1868 24.0643 36.7896 24.1945 35.4944 27.1272C38.5439 27.5243 39.5791 25.7589 40.1604 24.3547Z" fill="#5B8B43"/>
<path d="M37.9677 31.905C37.4093 31.0187 35.5099 29.4775 32.7076 30.8162C34.7746 33.2036 36.6554 32.5726 37.9677 31.905Z" fill="#5B8B43"/>
<path d="M33.6795 34.908C33.5336 33.8563 32.4397 31.6128 29.3613 31.5715C30.2637 34.6558 32.2214 34.9255 33.6795 34.908Z" fill="#5B8B43"/>
<path d="M35.0311 15.2966C35.061 14.2344 34.3542 11.8256 31.3293 11.2245C31.7086 14.4263 33.5921 15.0484 35.0311 15.2966Z" fill="#5B8B43"/>
</svg>
