<svg width="87" height="87" viewBox="0 0 87 87" fill="none" xmlns="http://www.w3.org/2000/svg">
<circle cx="43.5" cy="43.5" r="43.5" fill="#B2C9A7" fill-opacity="0.5"/>
<path d="M18.9216 25.5195C8.57448 43.7845 15.7725 66.0479 32.0429 66.7731C36.4628 66.9702 42.8401 70.2226 45.0144 71.5756C48.9883 74.0482 51.3126 79.9995 51.3126 79.9995" stroke="#5B8B43" stroke-width="3" stroke-linecap="round"/>
<path d="M15.5476 50.0041C15.8725 47.4586 18.4568 42.0054 25.8948 41.8164C23.7953 49.2956 19.0716 50.0041 15.5476 50.0041Z" fill="#5B8B43"/>
<path d="M19.2137 61.6795C18.8037 59.1475 19.7285 53.1343 26.7773 50.6339C26.8886 58.4303 22.5786 60.5802 19.2137 61.6795Z" fill="#5B8B43"/>
<path d="M27.2135 65.8455C26.3431 63.4453 26.1384 57.358 32.5906 53.4681C34.1415 61.0935 30.3111 64.0812 27.2135 65.8455Z" fill="#5B8B43"/>
<path d="M14.9478 37.0179C16.1228 34.7653 20.4019 30.6528 27.407 33.285C22.8864 39.4711 18.2361 38.3486 14.9478 37.0179Z" fill="#5B8B43"/>
<path d="M10.3423 19.0996C12.5944 20.1017 16.9197 24.1606 15.1265 31.7424C8.81215 27.6388 9.41042 22.6681 10.3423 19.0996Z" fill="#5B8B43"/>
<path d="M6.27208 33.1566C8.68514 33.5767 13.7958 36.4584 13.7444 44.2704C6.69013 41.8345 6.16251 36.855 6.27208 33.1566Z" fill="#5B8B43"/>
<path d="M4.99997 48.7316C7.35288 48.0298 13.1461 48.3446 16.2761 55.4318C8.90661 56.3915 6.40474 52.1251 4.99997 48.7316Z" fill="#5B8B43"/>
<path d="M10.299 66.9779C11.6485 64.8358 16.2386 61.1113 23.0108 64.3464C18.0157 70.1161 13.4704 68.5912 10.299 66.9779Z" fill="#5B8B43"/>
<path d="M20.6621 74.2351C21.0147 71.6936 23.6582 66.2717 31.0977 66.1721C28.917 73.6256 24.1859 74.2774 20.6621 74.2351Z" fill="#5B8B43"/>
<path d="M17.3956 26.8411C17.3232 24.2739 19.0312 18.4529 26.3416 17.0002C25.4248 24.7379 20.873 26.2412 17.3956 26.8411Z" fill="#5B8B43"/>
<path d="M68.633 25.5195C78.9801 43.7845 71.7821 66.0479 55.5116 66.7731C51.0918 66.9702 44.7145 70.2226 42.5401 71.5756C38.5662 74.0482 36.242 79.9995 36.242 79.9995" stroke="#5B8B43" stroke-width="3" stroke-linecap="round"/>
<path d="M72.0071 50.0041C71.6822 47.4586 69.0979 42.0054 61.6599 41.8164C63.7594 49.2956 68.4831 50.0041 72.0071 50.0041Z" fill="#5B8B43"/>
<path d="M68.3409 61.6795C68.7508 59.1475 67.826 53.1343 60.7773 50.6339C60.6659 58.4303 64.9759 60.5802 68.3409 61.6795Z" fill="#5B8B43"/>
<path d="M60.341 65.8455C61.2113 63.4453 61.4161 57.358 54.9639 53.4681C53.4129 61.0935 57.2433 64.0812 60.341 65.8455Z" fill="#5B8B43"/>
<path d="M72.6068 37.0179C71.4317 34.7653 67.1526 30.6528 60.1476 33.285C64.6681 39.4711 69.3185 38.3486 72.6068 37.0179Z" fill="#5B8B43"/>
<path d="M77.2124 19.0996C74.9603 20.1017 70.6349 24.1606 72.4282 31.7424C78.7425 27.6388 78.1443 22.6681 77.2124 19.0996Z" fill="#5B8B43"/>
<path d="M81.2826 33.1566C78.8695 33.5767 73.7588 36.4584 73.8102 44.2704C80.8646 41.8345 81.3922 36.855 81.2826 33.1566Z" fill="#5B8B43"/>
<path d="M82.5546 48.7316C80.2017 48.0298 74.4084 48.3446 71.2784 55.4318C78.648 56.3915 81.1498 52.1251 82.5546 48.7316Z" fill="#5B8B43"/>
<path d="M77.2556 66.9779C75.9061 64.8358 71.3159 61.1113 64.5438 64.3464C69.5389 70.1161 74.0841 68.5912 77.2556 66.9779Z" fill="#5B8B43"/>
<path d="M66.8925 74.2351C66.5399 71.6936 63.8964 66.2717 56.4569 66.1721C58.6376 73.6256 63.3687 74.2774 66.8925 74.2351Z" fill="#5B8B43"/>
<path d="M70.1589 26.8411C70.2314 24.2739 68.5233 18.4529 61.213 17.0002C62.1297 24.7379 66.6815 26.2412 70.1589 26.8411Z" fill="#5B8B43"/>
</svg>
