<svg width="85" height="52" viewBox="0 0 85 52" fill="none" xmlns="http://www.w3.org/2000/svg">
<path d="M13.69 37.45C11.83 37.45 10.22 37.05 8.86 36.25C7.52 35.43 6.48 34.33 5.74 32.95C5.02 31.57 4.66 30.05 4.66 28.39V27.76H5.56V28.39C5.56 29.89 5.88 31.26 6.52 32.5C7.18 33.74 8.11 34.73 9.31 35.47C10.53 36.19 11.99 36.55 13.69 36.55C15.39 36.55 16.84 36.19 18.04 35.47C19.26 34.73 20.19 33.74 20.83 32.5C21.49 31.26 21.82 29.89 21.82 28.39V12.88H22.72V28.39C22.72 30.05 22.35 31.57 21.61 32.95C20.89 34.33 19.86 35.43 18.52 36.25C17.18 37.05 15.57 37.45 13.69 37.45ZM13.69 33.49C12.55 33.49 11.6 33.26 10.84 32.8C10.1 32.34 9.54 31.73 9.16 30.97C8.8 30.19 8.62 29.33 8.62 28.39V27.76H9.52V28.39C9.52 29.55 9.85 30.54 10.51 31.36C11.17 32.18 12.23 32.59 13.69 32.59C15.15 32.59 16.21 32.18 16.87 31.36C17.53 30.54 17.86 29.55 17.86 28.39V12.88H18.76V28.39C18.76 29.33 18.57 30.19 18.19 30.97C17.83 31.73 17.27 32.34 16.51 32.8C15.77 33.26 14.83 33.49 13.69 33.49ZM13.69 35.47C12.19 35.47 10.91 35.15 9.85 34.51C8.81 33.87 8.01 33.02 7.45 31.96C6.91 30.88 6.64 29.69 6.64 28.39V27.76H7.54V28.39C7.54 29.53 7.77 30.57 8.23 31.51C8.71 32.43 9.41 33.17 10.33 33.73C11.25 34.29 12.37 34.57 13.69 34.57C15.03 34.57 16.15 34.29 17.05 33.73C17.97 33.17 18.66 32.43 19.12 31.51C19.6 30.57 19.84 29.53 19.84 28.39V12.88H20.74V28.39C20.74 29.69 20.46 30.88 19.9 31.96C19.36 33.02 18.56 33.87 17.5 34.51C16.46 35.15 15.19 35.47 13.69 35.47ZM37.2348 30.97C37.2348 29.93 36.9848 29.01 36.4848 28.21C36.0048 27.39 35.3348 26.74 34.4748 26.26C33.6348 25.78 32.6848 25.54 31.6248 25.54C30.5648 25.54 29.6048 25.78 28.7448 26.26C27.9048 26.74 27.2348 27.39 26.7348 28.21C26.2548 29.01 26.0148 29.93 26.0148 30.97C26.0148 31.99 26.2548 32.91 26.7348 33.73C27.2348 34.55 27.9048 35.2 28.7448 35.68C29.6048 36.16 30.5648 36.4 31.6248 36.4C32.6848 36.4 33.6348 36.16 34.4748 35.68C35.3348 35.2 36.0048 34.55 36.4848 33.73C36.9848 32.91 37.2348 31.99 37.2348 30.97ZM35.2548 30.97C35.2548 29.97 34.9048 29.15 34.2048 28.51C33.5248 27.85 32.6648 27.52 31.6248 27.52C30.5848 27.52 29.7148 27.85 29.0148 28.51C28.3348 29.15 27.9948 29.97 27.9948 30.97C27.9948 31.95 28.3348 32.77 29.0148 33.43C29.7148 34.09 30.5848 34.42 31.6248 34.42C32.6648 34.42 33.5248 34.09 34.2048 33.43C34.9048 32.77 35.2548 31.95 35.2548 30.97ZM31.6248 35.32C30.7648 35.32 29.9948 35.13 29.3148 34.75C28.6348 34.37 28.0948 33.85 27.6948 33.19C27.2948 32.53 27.0948 31.79 27.0948 30.97C27.0948 30.15 27.2948 29.41 27.6948 28.75C28.0948 28.09 28.6348 27.57 29.3148 27.19C29.9948 26.81 30.7648 26.62 31.6248 26.62C32.4848 26.62 33.2548 26.81 33.9348 27.19C34.6148 27.57 35.1548 28.09 35.5548 28.75C35.9548 29.41 36.1548 30.15 36.1548 30.97C36.1548 31.79 35.9548 32.53 35.5548 33.19C35.1548 33.85 34.6148 34.37 33.9348 34.75C33.2548 35.13 32.4848 35.32 31.6248 35.32ZM31.6248 37.3C30.4048 37.3 29.3048 37.02 28.3248 36.46C27.3448 35.9 26.5648 35.14 25.9848 34.18C25.4048 33.22 25.1148 32.15 25.1148 30.97C25.1148 29.77 25.4048 28.7 25.9848 27.76C26.5648 26.8 27.3448 26.04 28.3248 25.48C29.3048 24.92 30.4048 24.64 31.6248 24.64C32.8448 24.64 33.9448 24.92 34.9248 25.48C35.9048 26.04 36.6848 26.8 37.2648 27.76C37.8448 28.7 38.1348 29.77 38.1348 30.97C38.1348 32.15 37.8448 33.22 37.2648 34.18C36.6848 35.14 35.9048 35.9 34.9248 36.46C33.9448 37.02 32.8448 37.3 31.6248 37.3ZM44.8279 31.15L40.5679 24.94H41.6779L44.1679 28.57L46.6579 24.94H47.7679L44.7379 29.41L45.3679 30.34L49.0879 24.94H50.1979L45.9379 31.15H44.8279ZM42.3979 31.15L38.1379 24.94H39.2479L43.5079 31.15H42.3979ZM44.7079 37V31.87H45.6079V37H44.7079ZM42.7279 37V31.87H43.6279V37H42.7279ZM62.253 37V12.88H63.153V37H62.253ZM58.293 37V12.88H59.193V37H58.293ZM60.273 37V12.88H61.173V37H60.273ZM64.233 33.04V32.14H74.493V33.04H64.233ZM64.233 35.02V34.12H74.493V35.02H64.233ZM64.233 37V36.1H74.493V37H64.233ZM78.0784 37V24.94H78.9784V37H78.0784ZM76.0984 37V24.94H76.9984V37H76.0984Z" fill="black"/>
</svg>
